<?xml version="1.0" encoding="UTF-8"?>
<svg xmlns="http://www.w3.org/2000/svg" viewBox="0 0 350 350" width="350" height="350">
<path d="M0.13 0.13C116.71 0.13 233.29 0.13 349.88 0.13C349.88 116.71 349.88 233.29 349.88 349.88C233.29 349.88 116.71 349.88 0.13 349.88C0.13 233.29 0.13 116.71 0.13 0.13ZM121.58 203.75C122.59 199.26 121.83 193.86 121.83 189.25C121.83 179.42 121.83 169.58 121.83 159.75C121.83 156.86 122.76 147.38 120.81 145.44C119.1 143.75 108.26 144.17 106.2 145.25C106.2 148.42 106.2 151.58 106.2 154.75C107.52 155 108.84 155.26 110.16 155.51C110.16 171.59 110.16 187.67 110.16 203.75C112.64 205.12 119.16 205.31 121.58 203.75ZM143.25 193.84C142.69 191.53 142.2 187.65 143.19 185.39C144.11 183.28 147.15 182.47 149.06 181.77C154.29 179.84 160.03 178.48 164.89 175.63C170.45 172.37 171.38 165.7 170.97 159.75C169.89 144.2 155.44 144.49 143.75 144.49C140 144.49 134.57 143.48 131.21 145.25C131.21 148.42 131.21 151.58 131.21 154.75C137.3 156.27 152.37 153.21 156.71 156C161.03 158.79 159.33 164.49 155.58 166.79C147.3 171.89 132.94 171.12 130.16 182.82C129.28 186.51 129.49 190.49 129.49 194.25C129.49 197.31 129.04 200.81 129.75 203.78C132.13 205.32 136.41 204.51 139.25 204.51C146.25 204.51 153.25 204.51 160.25 204.51C163.22 204.51 167.19 205.23 169.81 203.75C169.81 200.45 169.81 197.14 169.81 193.84C160.95 193.84 152.1 193.84 143.25 193.84ZM216.6 172.75C218.14 171.45 219.95 170.6 220.82 168.62C223.95 161.53 221.48 151.13 214.54 147.24C207.11 143.08 196.95 144.49 188.75 144.49C185.33 144.49 181.29 143.89 178.04 145.02C178.04 148.32 178.04 151.61 178.04 154.91C185.22 155.93 192.99 155.17 200.25 155.16C203.76 155.16 208.16 156.09 208.78 160.36C210.4 171.35 189.73 165.25 184.75 167.71C184.16 170.4 183.77 175.37 185.25 177.71C192.72 178.65 212.77 174.25 208.9 188.72C207.69 193.26 203.13 193.84 199.25 193.83C192.43 193.82 184.73 192.87 178.04 194.2C178.04 197.5 178.04 200.8 178.04 204.11C182.32 205.35 187.79 204.51 192.25 204.51C203.5 204.51 219.77 207.14 221.91 191.74C222.49 187.64 222.36 182.44 220.65 178.6C219.68 176.42 217.25 174.81 216.6 172.75ZM266.98 179.25C268.89 177.18 271.5 175.75 272.82 173.1C276.77 165.17 275.22 148.64 265.52 145.26C259.53 143.17 251.51 144.49 245.25 144.49C240.7 144.49 233.57 143.17 229.51 145.2C229.51 164.75 229.51 184.31 229.51 203.86C232.37 205.17 239.06 205.28 241.84 203.75C241.84 196.75 241.84 189.76 241.84 182.76C245.33 182.2 253.03 181.16 255.58 184.18C258.32 187.42 259.63 193.76 260.92 197.78C261.5 199.57 262.01 202.97 263.68 204.08C265.34 205.18 268.84 204.51 270.75 204.51C272.67 204.51 274.63 204.88 276.16 203.75C273.94 197.52 272.22 191.03 269.82 184.88C269.04 182.9 267.47 181.28 266.98 179.25ZM324.77 145.25C320.84 143.14 313.68 144.49 309.25 144.49C302.26 144.49 291.86 142.57 286.02 147.28C281.66 150.8 282.48 156.76 282.49 161.75C282.49 171.08 282.49 180.42 282.49 189.75C282.49 194.25 281.76 199.5 282.75 203.87C285.28 205.3 292.29 205.17 294.84 203.75C294.84 195.83 294.84 187.91 294.84 180C303.88 180 312.92 180 321.97 180C321.97 176.33 321.97 172.66 321.97 169C313.03 169 304.1 169 295.17 169C294.74 166.65 294.01 157.82 296.12 156.39C298.04 155.08 302 155.84 304.25 155.84C310.66 155.84 318.61 157.08 324.77 155.38C324.77 152.01 324.77 148.63 324.77 145.25ZM32.81 145.13C26.22 146.64 27.33 152.08 24.49 156.24C22.13 159.7 16.97 159.48 15.29 164.02C13.81 168.03 14.95 185.39 14.96 190.75C14.97 194.05 14.39 197.63 16.22 200.55C19.44 205.68 26.6 204.18 31.75 204.18C45.08 204.19 58.42 204.21 71.75 204.18C76.4 204.17 83.18 205.58 86.81 202.07C91.7 197.33 89.53 186.43 89.53 180.25C89.53 174.99 91.21 166.36 87.78 161.97C85.66 159.26 81.9 158.88 79.87 156.36C77.28 153.13 78.25 148.72 74.01 146.27C70.52 144.25 66.15 144.97 62.25 144.96C55.07 144.95 38.98 143.72 32.81 145.13ZM333.86 145.25C333.08 145.28 332.44 146.07 331.75 146.03C331.04 146 330.63 145.36 329.83 145.25C329.33 145.81 329.39 148.65 329.25 149.89C332.59 153.1 336.91 148.7 333.86 145.25ZM30.16 199.75C14.93 203.89 19.04 188.41 19.04 178.75C19.04 174.99 17.89 169.01 19.28 165.51C20.54 162.36 24.91 162.05 27.06 159.81C29.61 157.17 28.99 152.92 31.74 150.5C35.12 147.52 49.81 149.04 54.75 149.03C58.85 149.03 69.43 147.8 72.42 150.34C74.93 152.47 74.54 155.99 76.19 158.59C78.17 161.73 83.11 161.76 84.74 164.99C86.11 167.7 85.13 181.86 85.13 185.75C85.13 189.32 86.99 198.75 82.23 199.97C71.33 202.76 73.18 194.49 65.62 192.18C62.31 191.17 57.7 191.98 54.25 191.97C49.61 191.97 42.87 190.73 38.48 192.26C34.83 193.54 32.58 197 30.16 199.75ZM241.87 170.4C241.87 165.68 241.87 160.97 241.87 156.25C244.52 155.48 257.74 155.03 259.99 156.28C261.88 157.32 262.46 160.32 262.5 162.25C262.69 171.19 257.22 170.83 250.25 170.83C247.47 170.83 244.56 171.14 241.87 170.4ZM49.84 159.67C30.76 162.55 36.22 191.63 54.62 187.78C72.39 184.07 67.97 156.92 49.84 159.67Z" fill="#000000" fill-rule="evenodd" stroke="#000000" stroke-width="0.25" stroke-linejoin="round"/>
<path d="M121.58 203.75C119.16 205.31 112.64 205.12 110.16 203.75C110.16 187.67 110.16 171.59 110.16 155.51C108.84 155.26 107.52 155 106.2 154.75C106.2 151.58 106.2 148.42 106.2 145.25C108.26 144.17 119.1 143.75 120.81 145.44C122.76 147.38 121.83 156.86 121.83 159.75C121.83 169.58 121.83 179.42 121.83 189.25C121.83 193.86 122.59 199.26 121.58 203.75ZM143.25 193.84C152.1 193.84 160.95 193.84 169.81 193.84C169.81 197.14 169.81 200.45 169.81 203.75C167.19 205.23 163.22 204.51 160.25 204.51C153.25 204.51 146.25 204.51 139.25 204.51C136.41 204.51 132.13 205.32 129.75 203.78C129.04 200.81 129.49 197.31 129.49 194.25C129.49 190.49 129.28 186.51 130.16 182.82C132.94 171.12 147.3 171.89 155.58 166.79C159.33 164.49 161.03 158.79 156.71 156C152.37 153.21 137.3 156.27 131.21 154.75C131.21 151.58 131.21 148.42 131.21 145.25C134.57 143.48 140 144.49 143.75 144.49C155.44 144.49 169.89 144.2 170.97 159.75C171.38 165.7 170.45 172.37 164.89 175.63C160.03 178.48 154.29 179.84 149.06 181.77C147.15 182.47 144.11 183.28 143.19 185.39C142.2 187.65 142.69 191.53 143.25 193.84ZM216.6 172.75C217.25 174.81 219.68 176.42 220.65 178.6C222.36 182.44 222.49 187.64 221.91 191.74C219.77 207.14 203.5 204.51 192.25 204.51C187.79 204.51 182.32 205.35 178.04 204.11C178.04 200.8 178.04 197.5 178.04 194.2C184.73 192.87 192.43 193.82 199.25 193.83C203.13 193.84 207.69 193.26 208.9 188.72C212.77 174.25 192.72 178.65 185.25 177.71C183.77 175.37 184.16 170.4 184.75 167.71C189.73 165.25 210.4 171.35 208.78 160.36C208.16 156.09 203.76 155.16 200.25 155.16C192.99 155.17 185.22 155.93 178.04 154.91C178.04 151.61 178.04 148.32 178.04 145.02C181.29 143.89 185.33 144.49 188.75 144.49C196.95 144.49 207.11 143.08 214.54 147.24C221.48 151.13 223.95 161.53 220.82 168.62C219.95 170.6 218.14 171.45 216.6 172.75ZM266.98 179.25C267.47 181.28 269.04 182.9 269.82 184.88C272.22 191.03 273.94 197.52 276.16 203.75C274.63 204.88 272.67 204.51 270.75 204.51C268.84 204.51 265.34 205.18 263.68 204.08C262.01 202.97 261.5 199.57 260.92 197.78C259.63 193.76 258.32 187.42 255.58 184.18C253.03 181.16 245.33 182.2 241.84 182.76C241.84 189.76 241.84 196.75 241.84 203.75C239.06 205.28 232.37 205.17 229.51 203.86C229.51 184.31 229.51 164.75 229.51 145.2C233.57 143.17 240.7 144.49 245.25 144.49C251.51 144.49 259.53 143.17 265.52 145.26C275.22 148.64 276.77 165.17 272.82 173.1C271.5 175.75 268.89 177.18 266.98 179.25ZM324.77 145.25C324.77 148.63 324.77 152.01 324.77 155.38C318.61 157.08 310.66 155.84 304.25 155.84C302 155.84 298.04 155.08 296.12 156.39C294.01 157.82 294.74 166.65 295.17 169C304.1 169 313.03 169 321.97 169C321.97 172.66 321.97 176.33 321.97 180C312.92 180 303.88 180 294.84 180C294.84 187.91 294.84 195.83 294.84 203.75C292.29 205.17 285.28 205.3 282.75 203.87C281.76 199.5 282.49 194.25 282.49 189.75C282.49 180.42 282.49 171.08 282.49 161.75C282.48 156.76 281.66 150.8 286.02 147.28C291.86 142.57 302.26 144.49 309.25 144.49C313.68 144.49 320.84 143.14 324.77 145.25ZM333.86 145.25C336.91 148.7 332.59 153.1 329.25 149.89C329.39 148.65 329.33 145.81 329.83 145.25C330.63 145.36 331.04 146 331.75 146.03C332.44 146.07 333.08 145.28 333.86 145.25ZM241.87 170.4C244.56 171.14 247.47 170.83 250.25 170.83C257.22 170.83 262.69 171.19 262.5 162.25C262.46 160.32 261.88 157.32 259.99 156.28C257.74 155.03 244.52 155.48 241.87 156.25C241.87 160.97 241.87 165.68 241.87 170.4Z" fill="#fefefe" fill-rule="evenodd" stroke="#fefefe" stroke-width="0.25" stroke-linejoin="round"/>
<path d="M32.81 145.13C38.98 143.72 55.07 144.95 62.25 144.96C66.15 144.97 70.52 144.25 74.01 146.27C78.25 148.72 77.28 153.13 79.87 156.36C81.9 158.88 85.66 159.26 87.78 161.97C91.21 166.36 89.53 174.99 89.53 180.25C89.53 186.43 91.7 197.33 86.81 202.07C83.18 205.58 76.4 204.17 71.75 204.18C58.42 204.21 45.08 204.19 31.75 204.18C26.6 204.18 19.44 205.68 16.22 200.55C14.39 197.63 14.97 194.05 14.96 190.75C14.95 185.39 13.81 168.03 15.29 164.02C16.97 159.48 22.13 159.7 24.49 156.24C27.33 152.08 26.22 146.64 32.81 145.13ZM30.16 199.75C32.58 197 34.83 193.54 38.48 192.26C42.87 190.73 49.61 191.97 54.25 191.97C57.7 191.98 62.31 191.17 65.62 192.18C73.18 194.49 71.33 202.76 82.23 199.97C86.99 198.75 85.13 189.32 85.13 185.75C85.13 181.86 86.11 167.7 84.74 164.99C83.11 161.76 78.17 161.73 76.19 158.59C74.54 155.99 74.93 152.47 72.42 150.34C69.43 147.8 58.85 149.03 54.75 149.03C49.81 149.04 35.12 147.52 31.74 150.5C28.99 152.92 29.61 157.17 27.06 159.81C24.91 162.05 20.54 162.36 19.28 165.51C17.89 169.01 19.04 174.99 19.04 178.75C19.04 188.41 14.93 203.89 30.16 199.75ZM49.84 159.67C67.97 156.92 72.39 184.07 54.62 187.78C36.22 191.63 30.76 162.55 49.84 159.67Z" fill="#f8cc44" fill-rule="evenodd" stroke="#f8cc44" stroke-width="0.25" stroke-linejoin="round"/>
</svg>