<?xml version="1.0" encoding="UTF-8"?>
<svg xmlns="http://www.w3.org/2000/svg" viewBox="0 0 447 447" width="447" height="447">
<path d="M0.13 0.13C149.04 0.13 297.96 0.13 446.88 0.13C446.88 149.04 446.88 297.96 446.88 446.88C297.96 446.88 149.04 446.88 0.13 446.88C0.13 297.96 0.13 149.04 0.13 0.13ZM118.25 212.85C117.55 209.99 122.65 200.1 124.33 197.08C125.13 195.64 127.06 192.99 126.85 191.32C126.51 188.75 119.45 178.84 117.96 175.76C116.99 173.74 116.47 170.71 114.09 169.69C110.4 168.11 100.16 169.59 95.75 169.6C81.52 169.62 64.61 168.3 50.71 169.75C47.45 176.75 44.19 183.75 40.93 190.75C43.13 192.42 53.45 191.43 56.75 191.43C67.75 191.43 78.75 191.43 89.75 191.43C93.78 191.43 100.12 190.29 103.75 191.95C103.73 194.55 101.28 198.09 100.16 200.38C96.49 207.82 93.99 215.96 90.18 223.41C88.39 226.91 85.38 230.84 85.75 234.97C98.58 234.97 111.42 234.97 124.25 234.97C125.13 238.9 119.83 246.63 118.13 250.36C117.24 252.31 117.12 254.21 115.75 255.97C110.89 256.75 105.67 256.3 100.75 256.3C91.42 256.3 82.08 256.29 72.75 256.3C68.34 256.3 58.98 257.49 55.25 255.69C55.2 252.58 57.66 249.92 58.83 247.13C61.18 241.6 63.31 235.65 66.07 230.34C67.54 227.52 69.25 224.93 70.15 221.85C70.99 219.01 74.05 216.05 73.25 213.09C69.05 211.69 62.72 212.8 58.25 212.81C56.57 212.82 54.07 212.41 52.61 213.36C49.78 215.21 49.28 220.73 47.83 223.61C43.2 232.84 38.7 242.25 34.36 251.62C33.59 253.3 33.47 255.1 32.62 256.75C34.09 261.39 38.49 268.98 41.24 273C42.34 274.61 42.99 276.96 44.83 277.94C47.24 279.21 61.62 278.24 65.25 278.23C79.58 278.23 93.92 278.23 108.25 278.23C113.25 278.23 122.74 279.48 127.22 277.75C130.34 273.2 131.91 267.46 134.22 262.45C136.85 256.76 139.85 251.25 142.21 245.42C143.41 242.45 146.81 237.94 146.55 234.75C146.34 232.22 144.18 230.26 143.23 228.06C140.99 222.87 138.37 217.8 135.75 212.85C129.92 212.85 124.08 212.85 118.25 212.85ZM189.78 169.75C187.62 169.36 179.03 168.96 177.33 170.05C175.45 171.26 171.28 181.43 171.04 183.75C173.08 184.03 175.11 184.31 177.15 184.59C177.15 208.31 177.15 232.03 177.15 255.75C190.36 258.3 206.48 261.9 218.46 253.71C233.88 243.18 235.14 209.85 217.92 200.34C207.77 194.74 201.21 197.9 191.21 199.75C188.04 194.4 192.92 175.33 189.78 169.75ZM260.99 179.94C256.52 179.94 252.06 179.94 247.59 179.94C246.5 182.3 242.82 189.24 243.25 191.4C247.45 191.4 251.66 191.4 255.86 191.4C257.57 187.58 259.28 183.76 260.99 179.94ZM253.01 199.11C251.03 198.23 241.09 197.87 239.24 198.97C238.02 199.71 235.23 207.34 235.25 208.86C236.46 209.16 237.67 209.45 238.88 209.75C239.22 225.55 239.57 241.35 239.91 257.15C244.28 257.15 248.64 257.15 253.01 257.15C253.01 237.8 253.01 218.45 253.01 199.11ZM304.25 198.87C299.36 197.27 283.32 198.48 277.25 198.48C274.29 198.48 269.72 197.58 266.97 198.75C264.65 199.74 262.21 206.42 262.37 208.75C270.78 209.08 279.19 209.42 287.6 209.75C287.29 212.23 282.15 218.35 280.38 220.62C275.45 226.92 270.97 234.54 267.38 241.63C266.18 244 263.97 246.12 263.37 248.76C262.85 251.05 263.58 254.64 264.51 256.75C270.29 258.51 285.92 257.22 292.75 257.22C296.1 257.22 301.03 258.11 304.19 256.97C306.37 256.18 309.63 248.12 309.25 245.99C299.75 245.73 290.25 245.47 280.75 245.2C280.74 241.44 285.07 236.99 287.16 233.91C291.47 227.58 295.4 220.59 300.3 214.55C303.89 210.13 308.29 204.79 304.25 198.87ZM355.75 199.06C353.25 197.83 349.54 198.48 346.75 198.48C340.08 198.48 333.42 198.49 326.75 198.48C324.31 198.48 319.65 197.54 317.52 198.77C315.35 200.02 313.12 206.75 313.25 208.99C321.6 209.24 329.95 209.5 338.29 209.75C338.18 213.3 333.49 217.77 331.23 220.47C328.04 224.28 325.87 229.29 323.21 233.46C320.56 237.62 316.73 242.13 315 246.77C314.02 249.41 314.05 254.21 315.25 256.71C318.47 258.04 323.27 257.2 326.75 257.2C332.7 257.2 350.09 258.36 354.73 257.08C357.06 256.43 360.77 247.85 359.82 245.75C353.44 244.69 346.23 245.58 339.75 245.58C337.26 245.58 333.44 246.33 331.46 244.75C332.37 241.29 335.63 237.3 337.72 234.48C342.15 228.46 347.48 220.9 351.27 214.5C352.62 212.22 355.46 210.63 356.23 207.97C356.92 205.6 356.16 201.46 355.75 199.06ZM377.25 199.18C374.49 197.72 365.96 197.55 363.25 199.08C363.29 202.11 364.88 205.25 365.47 208.26C367.8 220.24 372.54 230.68 376.21 242.08C377.36 245.66 382.63 255.02 381.37 258.13C380.71 259.75 379.32 260.7 378.22 261.97C372.55 268.57 370.38 265.38 362.91 266.75C360.95 268.63 358.8 274.18 359.12 276.75C365.93 281.15 381.68 276.87 386.71 270.96C397.55 258.23 403.85 237.94 410.17 222.39C412.01 217.88 418.18 203.24 418.22 199.25C416.61 198.18 405.83 197.82 404.52 199.28C402.62 201.38 402.47 205.8 401.7 208.42C399.51 215.82 396.7 223.34 393.66 230.39C392.5 233.06 391.93 238.72 389.25 240C386.89 238.08 386.48 233.1 385.58 230.23C383.26 222.9 381.39 215.69 379.54 208.23C378.84 205.42 378.68 201.67 377.25 199.18ZM190.75 245.16C189.27 238.06 190.49 229.52 190.49 222.25C190.49 219.42 189.69 215.09 190.74 212.44C192.33 208.45 204.68 208.01 207.86 209.39C219.52 214.41 218.12 236.8 209.75 244.01C206.46 246.84 193.79 248.16 190.75 245.16Z" fill="#ffffff" fill-rule="evenodd" stroke="#ffffff" stroke-width="0.25" stroke-linejoin="round"/>
<path d="M118.25 212.85C124.08 212.85 129.92 212.85 135.75 212.85C138.37 217.8 140.99 222.87 143.23 228.06C144.18 230.26 146.34 232.22 146.55 234.75C146.81 237.94 143.41 242.45 142.21 245.42C139.85 251.25 136.85 256.76 134.22 262.45C131.91 267.46 130.34 273.2 127.22 277.75C122.74 279.48 113.25 278.23 108.25 278.23C93.92 278.23 79.58 278.23 65.25 278.23C61.62 278.24 47.24 279.21 44.83 277.94C42.99 276.96 42.34 274.61 41.24 273C38.49 268.98 34.09 261.39 32.62 256.75C33.47 255.1 33.59 253.3 34.36 251.62C38.7 242.25 43.2 232.84 47.83 223.61C49.28 220.73 49.78 215.21 52.61 213.36C54.07 212.41 56.57 212.82 58.25 212.81C62.72 212.8 69.05 211.69 73.25 213.09C74.05 216.05 70.99 219.01 70.15 221.85C69.25 224.93 67.54 227.52 66.07 230.34C63.31 235.65 61.18 241.6 58.83 247.13C57.66 249.92 55.2 252.58 55.25 255.69C58.98 257.49 68.34 256.3 72.75 256.3C82.08 256.29 91.42 256.3 100.75 256.3C105.67 256.3 110.89 256.75 115.75 255.97C117.12 254.21 117.24 252.31 118.13 250.36C119.83 246.63 125.13 238.9 124.25 234.97C111.42 234.97 98.58 234.97 85.75 234.97C85.38 230.84 88.39 226.91 90.18 223.41C93.99 215.96 96.49 207.82 100.16 200.38C101.28 198.09 103.73 194.55 103.75 191.95C100.12 190.29 93.78 191.43 89.75 191.43C78.75 191.43 67.75 191.43 56.75 191.43C53.45 191.43 43.13 192.42 40.93 190.75C44.19 183.75 47.45 176.75 50.71 169.75C64.61 168.3 81.52 169.62 95.75 169.6C100.16 169.59 110.4 168.11 114.09 169.69C116.47 170.71 116.99 173.74 117.96 175.76C119.45 178.84 126.51 188.75 126.85 191.32C127.06 192.99 125.13 195.64 124.33 197.08C122.65 200.1 117.55 209.99 118.25 212.85ZM189.78 169.75C192.92 175.33 188.04 194.4 191.21 199.75C201.21 197.9 207.77 194.74 217.92 200.34C235.14 209.85 233.88 243.18 218.46 253.71C206.48 261.9 190.36 258.3 177.15 255.75C177.15 232.03 177.15 208.31 177.15 184.59C175.11 184.31 173.08 184.03 171.04 183.75C171.28 181.43 175.45 171.26 177.33 170.05C179.03 168.96 187.62 169.36 189.78 169.75ZM260.99 179.94C259.28 183.76 257.57 187.58 255.86 191.4C251.66 191.4 247.45 191.4 243.25 191.4C242.82 189.24 246.5 182.3 247.59 179.94C252.06 179.94 256.52 179.94 260.99 179.94ZM253.01 199.11C253.01 218.45 253.01 237.8 253.01 257.15C248.64 257.15 244.28 257.15 239.91 257.15C239.57 241.35 239.22 225.55 238.88 209.75C237.67 209.45 236.46 209.16 235.25 208.86C235.23 207.34 238.02 199.71 239.24 198.97C241.09 197.87 251.03 198.23 253.01 199.11ZM304.25 198.87C308.29 204.79 303.89 210.13 300.3 214.55C295.4 220.59 291.47 227.58 287.16 233.91C285.07 236.99 280.74 241.44 280.75 245.2C290.25 245.47 299.75 245.73 309.25 245.99C309.63 248.12 306.37 256.18 304.19 256.97C301.03 258.11 296.1 257.22 292.75 257.22C285.92 257.22 270.29 258.51 264.51 256.75C263.58 254.64 262.85 251.05 263.37 248.76C263.97 246.12 266.18 244 267.38 241.63C270.97 234.54 275.45 226.92 280.38 220.62C282.15 218.35 287.29 212.23 287.6 209.75C279.19 209.42 270.78 209.08 262.37 208.75C262.21 206.42 264.65 199.74 266.97 198.75C269.72 197.58 274.29 198.48 277.25 198.48C283.32 198.48 299.36 197.27 304.25 198.87ZM355.75 199.06C356.16 201.46 356.92 205.6 356.23 207.97C355.46 210.63 352.62 212.22 351.27 214.5C347.48 220.9 342.15 228.46 337.72 234.48C335.63 237.3 332.37 241.29 331.46 244.75C333.44 246.33 337.26 245.58 339.75 245.58C346.23 245.58 353.44 244.69 359.82 245.75C360.77 247.85 357.06 256.43 354.73 257.08C350.09 258.36 332.7 257.2 326.75 257.2C323.27 257.2 318.47 258.04 315.25 256.71C314.05 254.21 314.02 249.41 315 246.77C316.73 242.13 320.56 237.62 323.21 233.46C325.87 229.29 328.04 224.28 331.23 220.47C333.49 217.77 338.18 213.3 338.29 209.75C329.95 209.5 321.6 209.24 313.25 208.99C313.12 206.75 315.35 200.02 317.52 198.77C319.65 197.54 324.31 198.48 326.75 198.48C333.42 198.49 340.08 198.48 346.75 198.48C349.54 198.48 353.25 197.83 355.75 199.06ZM377.25 199.18C378.68 201.67 378.84 205.42 379.54 208.23C381.39 215.69 383.26 222.9 385.58 230.23C386.48 233.1 386.89 238.08 389.25 240C391.93 238.72 392.5 233.06 393.66 230.39C396.7 223.34 399.51 215.82 401.7 208.42C402.47 205.8 402.62 201.38 404.52 199.28C405.83 197.82 416.61 198.18 418.22 199.25C418.18 203.24 412.01 217.88 410.17 222.39C403.85 237.94 397.55 258.23 386.71 270.96C381.68 276.87 365.93 281.15 359.12 276.75C358.8 274.18 360.95 268.63 362.91 266.75C370.38 265.38 372.55 268.57 378.22 261.97C379.32 260.7 380.71 259.75 381.37 258.13C382.63 255.02 377.36 245.66 376.21 242.08C372.54 230.68 367.8 220.24 365.47 208.26C364.88 205.25 363.29 202.11 363.25 199.08C365.96 197.55 374.49 197.72 377.25 199.18ZM190.75 245.16C193.79 248.16 206.46 246.84 209.75 244.01C218.12 236.8 219.52 214.41 207.86 209.39C204.68 208.01 192.33 208.45 190.74 212.44C189.69 215.09 190.49 219.42 190.49 222.25C190.49 229.52 189.27 238.06 190.75 245.16Z" fill="#0288fd" fill-rule="evenodd" stroke="#0288fd" stroke-width="0.25" stroke-linejoin="round"/>
</svg>