<?xml version="1.0" encoding="UTF-8"?>
<svg xmlns="http://www.w3.org/2000/svg" viewBox="0 0 447 447" width="447" height="447">
<path d="M0.13 0.13C149.04 0.13 297.96 0.13 446.88 0.13C446.88 149.04 446.88 297.96 446.88 446.88C297.96 446.88 149.04 446.88 0.13 446.88C0.13 297.96 0.13 149.04 0.13 0.13ZM197.39 180.75C190.24 179.8 189.69 168.29 180.73 170.39C174.51 171.85 171.69 177.78 170.99 183.75C169.79 193.91 172.43 204.51 177.35 213.39C197.46 249.73 251.39 249.39 270.6 212.35C284.05 186.38 273.84 153.84 247.86 140.39C232.1 132.24 212.7 132.86 197.38 141.63C193.87 143.64 189.13 146.24 187 149.75C189.42 151.93 191.83 154.11 194.25 156.29C197.12 154.47 199.58 152.03 202.58 150.33C211.91 145.06 223.31 143.78 233.71 146.13C260.49 152.2 274.59 184.82 260.74 208.51C246.61 232.68 211.48 237.85 192.22 216.53C185.9 209.53 182.4 200.57 181.56 191.25C181.32 188.59 180.18 183.28 182.75 181.64C184.86 182.58 186.18 186.1 187.93 187.82C190.5 190.33 193.69 191.67 196.86 193.25C197.78 195.79 198.16 198.44 199.35 200.89C205.19 212.85 218.61 218.76 231.47 215.73C236.18 214.62 244.55 210.83 245.98 205.75C243.9 203.88 241.83 202 239.75 200.13C236.48 201.52 233.71 203.89 230.17 204.86C223.22 206.75 210.52 204.42 210.75 194.93C214.06 193.83 219.15 195.16 222.75 195.05C233.28 194.76 245.32 190.12 244.87 177.75C244.78 175.17 244.1 172.64 242.82 170.4C235.26 157.2 215.59 159.12 205.63 168.39C201.74 172 200.47 176.78 197.39 180.75ZM210.1 184.75C210.2 178.17 216.91 173.26 223.04 172.76C226.09 172.5 230.32 172.88 231.54 176.25C234.97 185.74 215.11 186.58 210.1 184.75ZM65.13 298.25C69.74 298.43 73.27 300.54 78.75 300.09C89.64 299.18 97.71 289.82 94.81 278.88C90.83 263.91 66.98 266.78 59.16 276.39C50.48 287.06 51.41 304.84 63.47 312.76C71.42 317.98 90.17 318.71 96.06 309.75C94.46 307.37 92.85 304.99 91.25 302.62C88.63 303.03 86.15 304.9 83.63 305.83C77.74 307.98 64.61 307.06 65.13 298.25ZM160.25 299.32C164.52 298.77 169.19 300.46 173.71 299.83C184.75 298.27 194.7 287.93 188.77 276.44C183.12 265.49 165.05 266.59 156.68 273.44C153.14 276.33 151.79 281.7 149.25 283.88C144.66 279.68 144.06 274.61 142.75 268.84C138.59 268.84 134.42 268.84 130.26 268.84C128.98 276.42 125.76 283.8 123.27 291.01C122.11 294.36 121.39 298.96 119.25 301.68C116.89 298.98 116.2 294.04 115.2 290.61C113.07 283.31 110.6 276.13 108.48 268.84C104.25 268.84 100.02 268.84 95.79 268.84C96.88 276.36 101.05 284.33 103.77 291.44C106.05 297.39 107.36 304.27 110.36 309.88C112.72 314.29 118.47 317.26 123.24 314.5C128.55 311.43 133.29 295.21 135.62 289.33C136.24 287.76 136.62 285.73 137.75 284.61C139.7 286.48 140.94 288.95 142.96 290.78C144.39 292.08 146.67 292.93 147.87 294.39C148.87 295.6 149.75 302.38 151.29 304.97C157.5 315.42 169.77 318.63 181.08 315.29C184.67 314.23 188.36 312.54 190.95 309.75C189.22 307.3 187.48 304.85 185.75 302.4C179 304.87 169.15 310.78 162.64 304.1C161.31 302.74 160.27 301.24 160.25 299.32ZM223.69 270.25C222.36 269.19 221.11 269.05 219.44 268.76C211.65 267.39 211.15 272.13 205.67 272.8C202.36 273.2 198.99 271.09 195.65 271.25C195.65 285.91 195.65 300.57 195.65 315.23C199.51 315.23 203.38 315.23 207.25 315.23C208.47 307.79 207.59 299.3 207.43 291.75C207.35 288.4 206.64 284.29 209.94 282.21C214.66 279.25 219.04 282.61 223.69 281.75C223.69 277.92 223.69 274.08 223.69 270.25ZM266.75 274.84C263.44 273.19 261.55 270.16 257.66 269.16C253.67 268.15 248.64 268.03 244.76 269.5C242.29 270.44 240.47 272.7 237.86 273.19C234.69 273.78 231.66 271.53 228.56 271.71C228.56 286.18 228.56 300.65 228.56 315.12C232.5 315.12 236.45 315.12 240.39 315.12C241.42 308.38 240.68 301.07 240.68 294.25C240.68 290.94 240.28 286.88 242.25 283.99C244.04 281.38 248.36 280.81 251.25 280.95C257.53 281.24 259.17 286.39 259.17 291.75C259.17 299.29 258.13 307.71 259.44 315.13C263.64 315.13 267.85 315.13 272.05 315.13C274.12 304.42 266 279.19 284.25 280.91C289.54 281.41 290.24 285.83 290.43 290.25C290.79 298.46 289.53 307.12 290.78 315.23C294.77 315.23 298.76 315.23 302.75 315.23C303.49 310.03 302.88 304.49 302.83 299.25C302.69 285.57 303.5 271.45 286.25 269.08C283.61 268.72 280.9 268.67 278.25 268.99C273.37 269.59 270.9 273.09 266.75 274.84ZM392.79 272.25C384.46 266.25 364.93 266.16 361.19 277.88C357.91 288.11 365.26 294.32 374.43 296.77C377.41 297.56 384.42 298.24 384.89 302.26C385.25 305.38 382.26 306.28 379.75 306.45C374.47 306.8 371.85 304.29 368.25 301.07C365.5 302.8 362.76 304.52 360.01 306.25C360.41 309.91 364.64 312.5 367.64 314.12C376.1 318.68 390.39 317.91 394.82 308.11C395.66 306.26 396.02 304.27 396.07 302.25C396.28 292.54 387.74 289.79 380.02 287.26C376.91 286.24 372.66 286.07 371.23 282.75C372.82 274.55 385.23 280.94 389.75 282.04C390.76 278.78 391.78 275.51 392.79 272.25ZM326.88 269.21C300.87 273.63 300.74 311.46 326.75 315.98C330.71 316.67 334.95 316.68 338.87 315.68C353.88 311.84 362.25 294.09 353.81 280.41C348.15 271.24 337.26 267.44 326.88 269.21ZM65.75 288.5C66.12 282.64 71.58 278.28 77.25 278.19C80.16 278.13 83.83 278.73 84.73 282.01C87.3 291.37 70.76 293.19 65.75 288.5ZM160.19 289.75C161.58 283.11 167.07 277.35 174.25 278.1C176.06 278.29 178.04 279.15 179 280.76C184.91 290.65 165.28 294.46 160.19 289.75ZM328.87 279.21C343.48 276.3 351.69 301.4 336.6 305.78C320.59 310.43 311.93 282.58 328.87 279.21Z" fill="#004751" fill-rule="evenodd" stroke="#004751" stroke-width="0.25" stroke-linejoin="round"/>
<path d="M197.39 180.75C200.47 176.78 201.74 172 205.63 168.39C215.59 159.12 235.26 157.2 242.82 170.4C244.1 172.64 244.78 175.17 244.87 177.75C245.32 190.12 233.28 194.76 222.75 195.05C219.15 195.16 214.06 193.83 210.75 194.93C210.52 204.42 223.22 206.75 230.17 204.86C233.71 203.89 236.48 201.52 239.75 200.13C241.83 202 243.9 203.88 245.98 205.75C244.55 210.83 236.18 214.62 231.47 215.73C218.61 218.76 205.19 212.85 199.35 200.89C198.16 198.44 197.78 195.79 196.86 193.25C193.69 191.67 190.5 190.33 187.93 187.82C186.18 186.1 184.86 182.58 182.75 181.64C180.18 183.28 181.32 188.59 181.56 191.25C182.4 200.57 185.9 209.53 192.22 216.53C211.48 237.85 246.61 232.68 260.74 208.51C274.59 184.82 260.49 152.2 233.71 146.13C223.31 143.78 211.91 145.06 202.58 150.33C199.58 152.03 197.12 154.47 194.25 156.29C191.83 154.11 189.42 151.93 187 149.75C189.13 146.24 193.87 143.64 197.38 141.63C212.7 132.86 232.1 132.24 247.86 140.39C273.84 153.84 284.05 186.38 270.6 212.35C251.39 249.39 197.46 249.73 177.35 213.39C172.43 204.51 169.79 193.91 170.99 183.75C171.69 177.78 174.51 171.85 180.73 170.39C189.69 168.29 190.24 179.8 197.39 180.75ZM210.1 184.75C215.11 186.58 234.97 185.74 231.54 176.25C230.32 172.88 226.09 172.5 223.04 172.76C216.91 173.26 210.2 178.17 210.1 184.75ZM65.13 298.25C64.61 307.06 77.74 307.98 83.63 305.83C86.15 304.9 88.63 303.03 91.25 302.62C92.85 304.99 94.46 307.37 96.06 309.75C90.17 318.71 71.42 317.98 63.47 312.76C51.41 304.84 50.48 287.06 59.16 276.39C66.98 266.78 90.83 263.91 94.81 278.88C97.71 289.82 89.64 299.18 78.75 300.09C73.27 300.54 69.74 298.43 65.13 298.25ZM160.25 299.32C160.27 301.24 161.31 302.74 162.64 304.1C169.15 310.78 179 304.87 185.75 302.4C187.48 304.85 189.22 307.3 190.95 309.75C188.36 312.54 184.67 314.23 181.08 315.29C169.77 318.63 157.5 315.42 151.29 304.97C149.75 302.38 148.87 295.6 147.87 294.39C146.67 292.93 144.39 292.08 142.96 290.78C140.94 288.95 139.7 286.48 137.75 284.61C136.62 285.73 136.24 287.76 135.62 289.33C133.29 295.21 128.55 311.43 123.24 314.5C118.47 317.26 112.72 314.29 110.36 309.88C107.36 304.27 106.05 297.39 103.77 291.44C101.05 284.33 96.88 276.36 95.79 268.84C100.02 268.84 104.25 268.84 108.48 268.84C110.6 276.13 113.07 283.31 115.2 290.61C116.2 294.04 116.89 298.98 119.25 301.68C121.39 298.96 122.11 294.36 123.27 291.01C125.76 283.8 128.98 276.42 130.26 268.84C134.42 268.84 138.59 268.84 142.75 268.84C144.06 274.61 144.66 279.68 149.25 283.88C151.79 281.7 153.14 276.33 156.68 273.44C165.05 266.59 183.12 265.49 188.77 276.44C194.7 287.93 184.75 298.27 173.71 299.83C169.19 300.46 164.52 298.77 160.25 299.32ZM223.69 270.25C223.69 274.08 223.69 277.92 223.69 281.75C219.04 282.61 214.66 279.25 209.94 282.21C206.64 284.29 207.35 288.4 207.43 291.75C207.59 299.3 208.47 307.79 207.25 315.23C203.38 315.23 199.51 315.23 195.65 315.23C195.65 300.57 195.65 285.91 195.65 271.25C198.99 271.09 202.36 273.2 205.67 272.8C211.15 272.13 211.65 267.39 219.44 268.76C221.11 269.05 222.36 269.19 223.69 270.25ZM266.75 274.84C270.9 273.09 273.37 269.59 278.25 268.99C280.9 268.67 283.61 268.72 286.25 269.08C303.5 271.45 302.69 285.57 302.83 299.25C302.88 304.49 303.49 310.03 302.75 315.23C298.76 315.23 294.77 315.23 290.78 315.23C289.53 307.12 290.79 298.46 290.43 290.25C290.24 285.83 289.54 281.41 284.25 280.91C266 279.19 274.12 304.42 272.05 315.13C267.85 315.13 263.64 315.13 259.44 315.13C258.13 307.71 259.17 299.29 259.17 291.75C259.17 286.39 257.53 281.24 251.25 280.95C248.36 280.81 244.04 281.38 242.25 283.99C240.28 286.88 240.68 290.94 240.68 294.25C240.68 301.07 241.42 308.38 240.39 315.12C236.45 315.12 232.5 315.12 228.56 315.12C228.56 300.65 228.56 286.18 228.56 271.71C231.66 271.53 234.69 273.78 237.86 273.19C240.47 272.7 242.29 270.44 244.76 269.5C248.64 268.03 253.67 268.15 257.66 269.16C261.55 270.16 263.44 273.19 266.75 274.84ZM392.79 272.25C391.78 275.51 390.76 278.78 389.75 282.04C385.23 280.94 372.82 274.55 371.23 282.75C372.66 286.07 376.91 286.24 380.02 287.26C387.74 289.79 396.28 292.54 396.07 302.25C396.02 304.27 395.66 306.26 394.82 308.11C390.39 317.91 376.1 318.68 367.64 314.12C364.64 312.5 360.41 309.91 360.01 306.25C362.76 304.52 365.5 302.8 368.25 301.07C371.85 304.29 374.47 306.8 379.75 306.45C382.26 306.28 385.25 305.38 384.89 302.26C384.42 298.24 377.41 297.56 374.43 296.77C365.26 294.32 357.91 288.11 361.19 277.88C364.93 266.16 384.46 266.25 392.79 272.25ZM326.88 269.21C337.26 267.44 348.15 271.24 353.81 280.41C362.25 294.09 353.88 311.84 338.87 315.68C334.95 316.68 330.71 316.67 326.75 315.98C300.74 311.46 300.87 273.63 326.88 269.21ZM65.75 288.5C70.76 293.19 87.3 291.37 84.73 282.01C83.83 278.73 80.16 278.13 77.25 278.19C71.58 278.28 66.12 282.64 65.75 288.5ZM160.19 289.75C165.28 294.46 184.91 290.65 179 280.76C178.04 279.15 176.06 278.29 174.25 278.1C167.07 277.35 161.58 283.11 160.19 289.75ZM328.87 279.21C311.93 282.58 320.59 310.43 336.6 305.78C351.69 301.4 343.48 276.3 328.87 279.21Z" fill="#cdfa96" fill-rule="evenodd" stroke="#cdfa96" stroke-width="0.25" stroke-linejoin="round"/>
</svg>