<svg xmlns="http://www.w3.org/2000/svg" viewBox="0 0 23.999821 24.000046" width="23.999821" height="24.000046" fill="#1261e9"><path d="m 0.97288172,0.00594844 c 7.34657998,0 14.69315028,0 22.03924028,0 0.12898,0.07450516 0.25796,0.14947308 0.38693,0.22444099 0.0645,0.0615478 0.12898,0.12309549 0.19348,0.18464323 0.0693,0.12216995 0.16363,0.23230801 0.2286,0.35864284 0.0702,0.13651567 0.0929,0.287377 0.1516,0.4238927 0.007,6.3102629 0.014,12.6205258 0.0207,18.9307898 0,0.031 0,0.06155 4.9e-4,0.09255 0,0.246653 0,0.49377 0,0.740423 0,0.185106 0,0.370212 0,0.555319 -0.005,0.213796 -0.0106,0.427132 -0.0159,0.64093 -0.0654,0.262849 -0.10491,0.524311 -0.24641,0.764023 -0.71372,1.209205 -2.15079,1.067137 -3.38717,1.0676 -2.71099,0.001 -5.42246,5.02e-4 -8.13344,0.0023 -2.7591203,0.0019 -5.5187103,-0.0028 -8.2778303,-0.0042 -0.40089,-5.03e-4 -0.80228,-0.0018 -1.20317,0 -0.78592,0.0028 -1.51552,0.04165 -2.13105998,-0.512279 -0.61699,-0.554856 -0.59341,-1.322583 -0.58763,-2.074114 0.008,-1.064358 -0.001,-2.128718 -9.8e-4,-3.193078 0.002,-4.411538 -0.0100999985,-8.8235386 -0.001,-13.2350771 0.002,-0.9102585 -10e-4,-1.8200545 9.8e-4,-2.730313 0.001,-0.5446745 -0.0553,-1.1226678 0.25507,-1.60903379 0.18289,-0.28598876 0.44759,-0.42713207 0.70795,-0.62750929 z M 5.2672517,3.6044088 c -0.31764,0.016659 -0.61314,0.1374412 -0.87928,0.3021854 -1.14494,0.7098814 -1.37787,2.4008246 -0.38261,3.3337589 0.9635,0.9037799 2.52426,0.8251098 3.366,-0.1888081 0.27866,-0.3355047 0.38838,-0.7163604 0.46587,-1.1300721 9.8e-4,-0.1235583 0.002,-0.2466538 0.003,-0.3702121 -0.13042,-0.9713435 -0.86821,-1.903815 -1.9578,-1.9487031 -0.20069,-0.00555 -0.40089,-0.011107 -0.60158,-0.017122 -0.004,0.00648 -0.009,0.012494 -0.0135,0.018973 z M 12.988732,20.128358 c 0,-0.154102 0,-0.308665 0,-0.462767 0,-0.04628 0,-0.09255 0,-0.138829 0,-0.740425 0,-1.480847 4.9e-4,-2.221271 0,-0.03101 0,-0.06155 0,-0.09255 0,-0.246654 4.8e-4,-0.49377 4.8e-4,-0.740424 0.0173,-1.134699 -0.1925,-2.664137 0.45674,-3.670651 0.56404,-0.874163 2.14886,-1.090274 2.94054,-0.390111 0.43459,0.384095 0.42978,0.756158 0.60592,1.243449 0.0154,0.112452 0.0308,0.225367 0.0462,0.337819 0.002,0.02221 0.004,0.04442 0.006,0.06664 0.007,0.510892 0.0135,1.022248 0.0202,1.533603 0,0.09255 0,0.185106 -4.9e-4,0.277659 4.9e-4,0.6326 4.9e-4,1.264736 4.9e-4,1.897336 0,0.154101 0,0.308665 -4.9e-4,0.462765 0.002,0.616865 0.003,1.234194 0.005,1.851059 0.005,0.130964 0.0101,0.26239 0.0149,0.393351 1.18777,0 2.37554,0 3.56379,0 0.0394,-0.551153 0.01,-1.113412 0.0101,-1.665953 0.001,-1.125907 -0.004,-2.252278 -0.002,-3.378185 0.003,-1.514167 0.11502,-3.209737 -0.59436,-4.612841 -0.21321,-0.422041 -0.51833,-0.8288114 -0.90575,-1.1185022 -1.18056,-0.8834184 -3.28514,-1.0569553 -4.61971,-0.429446 -0.72286,0.3396695 -1.20943,0.8732372 -1.65219,1.5021342 -0.0159,-0.521998 -0.0322,-1.0439968 -0.0481,-1.5659957 -1.13916,-0.00278 -2.27784,-0.00509 -3.4170103,-0.00787 -0.007,3.7590387 -0.0135,7.5176167 -0.0207,11.2766557 1.1887303,0 2.3769803,0 3.5652303,0 0.008,-0.11569 0.0163,-0.231382 0.0245,-0.347072 z M 7.3501817,9.1927584 c -1.17766,0 -2.35581,0 -3.53347,0 0,3.7645926 0,7.5296476 0,11.2947036 1.18536,0 2.37121,0 3.55657,0 0.0548,-0.333191 0.0245,-0.692759 0.0226,-1.030113 -0.003,-0.55532 9.7e-4,-1.110638 -5e-4,-1.665955 -0.004,-1.727502 0.006,-3.455466 -0.004,-5.182968 -0.004,-0.755695 -0.003,-1.511853 9.8e-4,-2.267548 0.002,-0.361882 0.0732,-0.8089129 -0.0423,-1.1481196 z" fill-rule="evenodd" stroke="#1261e9" stroke-width="0.0117981" stroke-linejoin="round"/></svg>
