<?xml version="1.0" encoding="UTF-8"?>
<svg xmlns="http://www.w3.org/2000/svg" viewBox="0 0 447 447" width="447" height="447">
<path d="M0.13 0.13C149.04 0.13 297.96 0.13 446.88 0.13C446.88 149.04 446.88 297.96 446.88 446.88C297.96 446.88 149.04 446.88 0.13 446.88C0.13 297.96 0.13 149.04 0.13 0.13ZM71.29 149.68C54.43 152.12 40.33 157.44 28.12 169.87C22.99 175.1 18.61 181.75 15.69 188.44C-5.05 236.13 36.78 286.28 87.17 278.8C114.79 274.69 139.95 254.76 144.87 226.22C150.81 191.71 130.2 160.97 96.9 151.77C88.77 149.52 79.72 148.47 71.29 149.68ZM359.36 149.71C344.96 151.43 331.82 155.37 320.18 164.43C291.43 186.83 288.35 232.32 313.86 258.38C328.73 273.56 350.24 280.63 371.25 278.88C380.67 278.09 390.19 274.65 398.46 270.24C430.09 253.41 441.03 212.12 422.8 181.43C413.93 166.5 398.58 156.07 381.95 151.76C374.73 149.89 366.82 148.82 359.36 149.71ZM208.13 152.99C189.7 152.99 171.26 152.99 152.83 152.99C152.83 159.84 152.83 166.7 152.83 173.56C157.63 173.56 162.44 173.56 167.25 173.56C173.92 186.1 179.38 199.62 185.19 212.6C191.78 227.36 199.12 241.85 205.62 256.66C210.11 266.87 214.53 276.3 226.21 279.11C228.85 279.75 231.55 280.76 234.25 280.3C237.31 276.73 244 259.36 246.28 254C251.79 241.03 258.29 228.46 263.7 215.46C267.31 206.78 270.92 197.8 275.21 189.43C280.35 179.42 288.82 164.32 286 152.99C270.78 152.99 255.56 152.99 240.34 152.99C240.34 159.58 240.34 166.16 240.34 172.75C244.41 175.83 251.88 171.57 256.24 174.25C246.24 197.18 236.25 220.12 226.25 243.05C222.79 238.55 221.18 232.03 218.83 226.89C213.44 215.07 208.09 203.24 202.9 191.33C200.9 186.73 195.62 178.31 195.75 173.57C199.88 173.57 204 173.57 208.13 173.57C208.13 166.71 208.13 159.85 208.13 152.99ZM74.33 170.71C80.71 170.2 87.15 170.9 93.17 173.12C135.27 188.62 126.73 253.48 81.74 256.83C75.51 257.3 69.34 256.43 63.5 254.27C21.41 238.68 28.97 174.32 74.33 170.71ZM360.32 170.7C366.56 170.19 372.87 170.85 378.77 172.94C421.18 187.96 413.18 253.01 368.23 256.82C362.02 257.34 355.29 256.66 349.52 254.25C339.03 249.88 329.77 242.29 325.21 231.6C313.88 205.02 330.9 173.11 360.32 170.7Z" fill="#ffffff" fill-rule="evenodd" stroke="#ffffff" stroke-width="0.25" stroke-linejoin="round"/>
<path d="M71.29 149.68C79.72 148.47 88.77 149.52 96.9 151.77C130.2 160.97 150.81 191.71 144.87 226.22C139.95 254.76 114.79 274.69 87.17 278.8C36.78 286.28 -5.05 236.13 15.69 188.44C18.61 181.75 22.99 175.1 28.12 169.87C40.33 157.44 54.43 152.12 71.29 149.68ZM359.36 149.71C366.82 148.82 374.73 149.89 381.95 151.76C398.58 156.07 413.93 166.5 422.8 181.43C441.03 212.12 430.09 253.41 398.46 270.24C390.19 274.65 380.67 278.09 371.25 278.88C350.24 280.63 328.73 273.56 313.86 258.38C288.35 232.32 291.43 186.83 320.18 164.43C331.82 155.37 344.96 151.43 359.36 149.71ZM208.13 152.99C208.13 159.85 208.13 166.71 208.13 173.57C204 173.57 199.88 173.57 195.75 173.57C195.62 178.31 200.9 186.73 202.9 191.33C208.09 203.24 213.44 215.07 218.83 226.89C221.18 232.03 222.79 238.55 226.25 243.05C236.25 220.12 246.24 197.18 256.24 174.25C251.88 171.57 244.41 175.83 240.34 172.75C240.34 166.16 240.34 159.58 240.34 152.99C255.56 152.99 270.78 152.99 286 152.99C288.82 164.32 280.35 179.42 275.21 189.43C270.92 197.8 267.31 206.78 263.7 215.46C258.29 228.46 251.79 241.03 246.28 254C244 259.36 237.31 276.73 234.25 280.3C231.55 280.76 228.85 279.75 226.21 279.11C214.53 276.3 210.11 266.87 205.62 256.66C199.12 241.85 191.78 227.36 185.19 212.6C179.38 199.62 173.92 186.1 167.25 173.56C162.44 173.56 157.63 173.56 152.83 173.56C152.83 166.7 152.83 159.84 152.83 152.99C171.26 152.99 189.7 152.99 208.13 152.99ZM74.33 170.71C28.97 174.32 21.41 238.68 63.5 254.27C69.34 256.43 75.51 257.3 81.74 256.83C126.73 253.48 135.27 188.62 93.17 173.12C87.15 170.9 80.71 170.2 74.33 170.71ZM360.32 170.7C330.9 173.11 313.88 205.02 325.21 231.6C329.77 242.29 339.03 249.88 349.52 254.25C355.29 256.66 362.02 257.34 368.23 256.82C413.18 253.01 421.18 187.96 378.77 172.94C372.87 170.85 366.56 170.19 360.32 170.7Z" fill="#4a2489" fill-rule="evenodd" stroke="#4a2489" stroke-width="0.25" stroke-linejoin="round"/>
</svg>