<?xml version="1.0" encoding="UTF-8"?>
<svg xmlns="http://www.w3.org/2000/svg" viewBox="0 0 447 447" width="447" height="447">
<path d="M0.13 0.13C149.04 0.13 297.96 0.13 446.88 0.13C446.88 149.04 446.88 297.96 446.88 446.88C297.96 446.88 149.04 446.88 0.13 446.88C0.13 297.96 0.13 149.04 0.13 0.13ZM362.06 177.65C359.29 177.65 356.52 177.65 353.75 177.65C352.84 183.31 353.49 189.51 353.49 195.25C353.49 197.62 354.06 200.76 352.75 202.71C346.96 199.93 342.63 196.68 335.83 196.27C320.44 195.33 307.43 208.72 307.48 223.75C307.53 239.79 321.76 252.54 337.75 250.94C343.7 250.34 347.64 246.96 352.75 244.6C353.09 246.74 353.42 248.88 353.76 251.03C356.52 251.03 359.29 251.03 362.06 251.03C362.06 226.57 362.06 202.11 362.06 177.65ZM104.75 187.1C95.42 185.5 84.74 186.84 75.25 186.84C72.02 186.84 66.36 185.76 63.46 187.23C60.66 188.66 58.19 192.48 55.92 194.66C50.38 199.95 45.04 205.47 39.67 210.93C36.2 214.44 24.71 224.29 23.54 228.12C36.78 228.12 50.01 228.12 63.25 228.12C63.58 241.59 63.92 255.06 64.25 268.53C67.69 266.78 70.44 262.66 73.22 259.97C80.32 253.07 87.17 245.92 94.22 238.97C96.54 236.67 103.84 230.81 104.82 228.11C106.04 224.72 105.03 219.35 105.03 215.75C105.03 208.07 106.34 194.01 104.75 187.1ZM134 195.97C131.12 195.97 128.25 195.97 125.38 195.97C125.38 220.44 125.38 244.91 125.38 269.38C128.17 269.38 130.96 269.38 133.75 269.38C134.08 260.99 134.42 252.6 134.75 244.22C136.26 244.88 137.42 246.07 138.86 246.88C145.26 250.48 152.9 251.78 160.02 249.75C189.05 241.47 185.04 197.89 154.75 195.98C144.45 195.33 142.73 199.07 134.75 202.43C134.5 200.28 134.25 198.12 134 195.97ZM240.6 227.25C241.42 224.8 240.96 221.79 240.56 219.25C238.71 207.37 230.15 198.26 218.21 196.15C205.32 193.89 192.16 202.76 188.22 214.93C184.2 227.38 190.16 242.03 202.02 247.73C212.89 252.96 232.15 251.06 238.09 238.75C236.31 236.97 234.53 235.2 232.75 233.42C230.3 233.89 226.28 238.96 222.68 240.43C214.48 243.77 205.12 241.45 199.63 234.63C198.22 232.87 196.75 230.55 196.75 228.24C199.67 226.56 205.34 227.61 208.75 227.61C216.48 227.61 234.04 228.93 240.6 227.25ZM256.89 195.97C254.11 195.97 251.33 195.97 248.54 195.97C248.54 214.32 248.54 232.68 248.54 251.03C251.33 251.03 254.11 251.03 256.89 251.03C258.84 236.28 250.35 203.87 275.25 204.85C298.26 205.76 288.82 237.33 291.44 251.04C294.21 251.04 296.98 251.04 299.75 251.04C300.51 246.62 299.98 241.74 299.98 237.25C299.98 229.79 300.75 221.93 298.64 214.68C295.25 203.1 283.86 194.9 271.75 195.99C266.21 196.49 262.54 199.71 257.75 201.8C257.46 199.86 257.18 197.92 256.89 195.97ZM396.81 196.24C367.03 196.64 359.57 239.18 387.59 249.21C391.08 250.46 394.52 251.16 398.25 251.06C433.25 250.1 432.23 195.77 396.81 196.24ZM231.25 218.3C229.09 219.67 225.35 218.99 222.75 218.99C216.75 218.99 210.75 218.99 204.75 218.99C202.25 218.99 198.98 219.54 196.75 218.45C196.55 214.7 199.99 210.72 202.85 208.59C211.15 202.41 223.29 203.77 229.05 212.69C230.11 214.33 231.21 216.31 231.25 218.3ZM148.8 205.18C173.39 201.09 180.07 236.33 157.23 241.45C132.27 247.03 125.41 209.06 148.8 205.18ZM331.9 205.23C355.78 202.06 361.54 237.38 339.11 241.78C313.31 246.84 307.66 208.45 331.9 205.23ZM394.33 205.22C418.18 202.63 423.88 236.98 401.55 241.76C375.56 247.32 370.11 207.85 394.33 205.22Z" fill="#ffffff" fill-rule="evenodd" stroke="#ffffff" stroke-width="0.25" stroke-linejoin="round"/>
<path d="M362.06 177.65C362.06 202.11 362.06 226.57 362.06 251.03C359.29 251.03 356.52 251.03 353.76 251.03C353.42 248.88 353.09 246.74 352.75 244.6C347.64 246.96 343.7 250.34 337.75 250.94C321.76 252.54 307.53 239.79 307.48 223.75C307.43 208.72 320.44 195.33 335.83 196.27C342.63 196.68 346.96 199.93 352.75 202.71C354.06 200.76 353.49 197.62 353.49 195.25C353.49 189.51 352.84 183.31 353.75 177.65C356.52 177.65 359.29 177.65 362.06 177.65ZM134 195.97C134.25 198.12 134.5 200.28 134.75 202.43C142.73 199.07 144.45 195.33 154.75 195.98C185.04 197.89 189.05 241.47 160.02 249.75C152.9 251.78 145.26 250.48 138.86 246.88C137.42 246.07 136.26 244.88 134.75 244.22C134.42 252.6 134.08 260.99 133.75 269.38C130.96 269.38 128.17 269.38 125.38 269.38C125.38 244.91 125.38 220.44 125.38 195.97C128.25 195.97 131.12 195.97 134 195.97ZM240.6 227.25C234.04 228.93 216.48 227.61 208.75 227.61C205.34 227.61 199.67 226.56 196.75 228.24C196.75 230.55 198.22 232.87 199.63 234.63C205.12 241.45 214.48 243.77 222.68 240.43C226.28 238.96 230.3 233.89 232.75 233.42C234.53 235.2 236.31 236.97 238.09 238.75C232.15 251.06 212.89 252.96 202.02 247.73C190.16 242.03 184.2 227.38 188.22 214.93C192.16 202.76 205.32 193.89 218.21 196.15C230.15 198.26 238.71 207.37 240.56 219.25C240.96 221.79 241.42 224.8 240.6 227.25ZM256.89 195.97C257.18 197.92 257.46 199.86 257.75 201.8C262.54 199.71 266.21 196.49 271.75 195.99C283.86 194.9 295.25 203.1 298.64 214.68C300.75 221.93 299.98 229.79 299.98 237.25C299.98 241.74 300.51 246.62 299.75 251.04C296.98 251.04 294.21 251.04 291.44 251.04C288.82 237.33 298.26 205.76 275.25 204.85C250.35 203.87 258.84 236.28 256.89 251.03C254.11 251.03 251.33 251.03 248.54 251.03C248.54 232.68 248.54 214.32 248.54 195.97C251.33 195.97 254.11 195.97 256.89 195.97ZM396.81 196.24C432.23 195.77 433.25 250.1 398.25 251.06C394.52 251.16 391.08 250.46 387.59 249.21C359.57 239.18 367.03 196.64 396.81 196.24ZM231.25 218.3C231.21 216.31 230.11 214.33 229.05 212.69C223.29 203.77 211.15 202.41 202.85 208.59C199.99 210.72 196.55 214.7 196.75 218.45C198.98 219.54 202.25 218.99 204.75 218.99C210.75 218.99 216.75 218.99 222.75 218.99C225.35 218.99 229.09 219.67 231.25 218.3ZM148.8 205.18C125.41 209.06 132.27 247.03 157.23 241.45C180.07 236.33 173.39 201.09 148.8 205.18ZM331.9 205.23C307.66 208.45 313.31 246.84 339.11 241.78C361.54 237.38 355.78 202.06 331.9 205.23ZM394.33 205.22C370.11 207.85 375.56 247.32 401.55 241.76C423.88 236.98 418.18 202.63 394.33 205.22Z" fill="#050117" fill-rule="evenodd" stroke="#050117" stroke-width="0.25" stroke-linejoin="round"/>
<path d="M104.75 187.1C106.34 194.01 105.03 208.07 105.03 215.75C105.03 219.35 106.04 224.72 104.82 228.11C103.84 230.81 96.54 236.67 94.22 238.97C87.17 245.92 80.32 253.07 73.22 259.97C70.44 262.66 67.69 266.78 64.25 268.53C63.92 255.06 63.58 241.59 63.25 228.12C50.01 228.12 36.78 228.12 23.54 228.12C24.71 224.29 36.2 214.44 39.67 210.93C45.04 205.47 50.38 199.95 55.92 194.66C58.19 192.48 60.66 188.66 63.46 187.23C66.36 185.76 72.02 186.84 75.25 186.84C84.74 186.84 95.42 185.5 104.75 187.1Z" fill="#ff4976" fill-rule="evenodd" stroke="#ff4976" stroke-width="0.25" stroke-linejoin="round"/>
</svg>