<svg xmlns="http://www.w3.org/2000/svg" viewBox="0 0 728 397" width="728" height="397" style="width: 48px; height: 48px;"><path d="M367.5 3.43C370.31 3.65 373.13 3.87 375.94 4.09C378.29 4.53 380.65 4.97 383 5.41C396.46 9.37 409.99 14.35 420.46 24.25C418.14 25.97 415.82 27.7 413.5 29.42C412.46 29.45 411.42 29.48 410.38 29.51C406.96 27.36 403.54 25.2 400.12 23.05C399.87 22.86 399.62 22.66 399.37 22.47C395.4 21.04 391.59 18.97 387.75 17.38C377.03 12.93 355.62 12.98 344.5 16.14C343.65 16.41 342.81 16.67 341.96 16.94C340.64 17.33 339.32 17.72 338 18.11C336.67 18.57 335.34 19.03 334.01 19.48C331.21 21.09 328.02 21.88 325.15 23.4C314.47 29.01 304.1 38.08 297.38 48.13C294.3 52.74 292.45 58.37 289.5 62.68C289.42 62.7 289.33 62.73 289.25 62.75C288.87 64 288.49 65.25 288.11 66.5C287.31 69.12 286.3 71.7 285.36 74.25C284.85 75.66 285 77.3 284.74 78.75C282.83 89.68 282.45 100.84 285.11 111.72C286.32 116.72 288.53 121.16 290.11 126C290.41 126.67 290.7 127.34 291 128.01C294.03 132.45 295.8 137.69 299.35 141.97C302.38 145.63 305.53 149.5 309.07 152.68C311.41 154.77 314.21 156.4 316.47 158.47C318.35 159.66 320.23 160.86 322.12 162.05C324.36 163.23 326.3 164.98 328.68 165.98C343.48 172.2 359.46 175.21 375.55 172.74C379.9 172.07 384.96 171.24 389.02 169.52C391.99 168.25 394.78 166.57 397.87 165.53C398.8 165.01 399.72 164.5 400.65 163.99C401.43 163.74 402.22 163.5 403 163.25C404.15 162.35 405.29 161.45 406.44 160.54C406.78 160.36 407.13 160.19 407.47 160.01C411.85 156.29 416.69 153.14 420.72 148.98C434.68 134.57 442.43 115.2 442.81 95.25C442.92 89.45 442.96 83.59 441.79 77.88C441.23 75.16 439.93 72.52 439.8 69.75C441.83 67.83 443.86 65.92 445.89 64C447.4 63.36 447.63 63.12 449.03 64.13C453.25 79.17 455.55 95.97 451.94 111.5C451.68 112.5 451.42 113.5 451.16 114.5C449.75 118.98 448.34 123.46 446.93 127.94C446.62 128.6 446.3 129.26 445.98 129.92C445.25 134.15 439.77 141.76 437.17 145.39C426 160.91 411.04 172.56 392.98 178.89C390.28 179.84 387.81 181.08 384.92 181.42C382.28 181.98 379.64 182.54 377 183.1C354.38 185.99 329.06 181.71 310.57 167.48C310.05 167.13 309.54 166.77 309.02 166.42C290.46 153.52 273.55 125.22 273.13 102.5C273 95.97 271.43 87.72 273.52 81.43C273.6 81.37 273.68 81.31 273.76 81.25C273.79 80.33 273.82 79.42 273.85 78.5C274.86 67.67 282.25 50.39 288.94 41.95C289.15 41.62 289.36 41.29 289.57 40.96C292.19 37.8 294.82 34.64 297.44 31.48C297.8 31.13 298.15 30.78 298.5 30.42C299.64 29.29 300.79 28.15 301.93 27.02C302.56 26.51 303.19 26.01 303.82 25.5C308.33 20.12 315.91 16.55 322 13.34C322.81 12.9 323.61 12.45 324.42 12.01C325.14 11.68 325.86 11.36 326.58 11.04C327.92 10.55 329.25 10.06 330.58 9.57C336.58 7.91 342.58 6.24 348.58 4.58C354.89 4.2 361.19 3.81 367.5 3.43ZM389.81 27.6C390.25 27.74 390.69 27.88 391.13 28.02C395.24 30.14 400.85 32.04 403.83 35.75C401.78 37.82 399.74 39.88 397.69 41.95C396.8 42.02 395.9 42.09 395 42.17C391.33 40.43 387.65 38.7 383.98 36.97C382.99 36.67 381.99 36.36 381 36.06C356.49 28.8 329.89 36.93 314.48 57.72C311.63 61.56 308.5 65.91 306.91 70.48C303.98 78.91 301.36 88.92 302.42 98C302.85 101.76 304.02 105.34 304.42 109.08C304.78 110.21 305.14 111.33 305.49 112.46C306.62 114.68 306.87 117.32 307.95 119.52C312.99 129.8 321.04 139.29 331.02 145.02C333.03 146.2 335.03 147.39 337.04 148.57C339.62 149.59 342.2 150.61 344.78 151.62C348.47 152.88 353.03 154.18 357 153.9C362.58 154.09 368.46 154.91 374 153.56C376.57 152.93 378.94 151.87 381.58 151.53C382.41 151.2 383.23 150.86 384.05 150.52C385.66 149.6 387.62 149.28 389.26 148.44C402.26 141.76 415.47 129.07 420.09 115C421.89 109.53 423.18 103.33 423.76 97.6C424.31 92.18 422.87 87.74 427 83.52C428.86 81.85 430.12 78.6 432.75 78.17C432.99 79.26 433.23 80.36 433.47 81.45C434.96 86.03 434.2 91.98 434.06 96.75C433.47 116.96 423.35 137.65 407.03 149.94C406.19 150.46 405.35 150.98 404.51 151.5C399.38 154.33 394.26 157.16 389.13 160C388.25 160.32 387.37 160.65 386.49 160.97C382.16 162.03 377.83 163.1 373.5 164.16C370.66 164.42 367.83 164.67 364.99 164.92C355.81 165.69 345.31 163.1 336.84 159.86C334.72 159.05 332.71 157.65 330.54 157.08C327.69 155.4 324.85 153.71 322 152.03C313 145.74 301.23 133.07 297.9 122.5C297.3 120.97 296.7 119.45 296.1 117.92C295.03 112.49 293.15 107.22 292.15 101.75C290.29 91.62 292.73 79.01 296.06 69.5C296.33 68.83 296.6 68.17 296.88 67.5C298.21 64.68 299.54 61.87 300.87 59.05C301.27 58.35 301.66 57.65 302.06 56.96C305.81 50.65 310.61 44.49 316.42 40C316.82 39.65 317.22 39.29 317.62 38.94C319.41 37.71 321.21 36.48 323 35.25C323.17 35.02 323.33 34.78 323.5 34.55C325.5 33.38 327.49 32.21 329.49 31.05C329.99 30.95 330.5 30.85 331 30.75C332.67 29.8 334.33 28.86 336 27.91C338.69 26.97 341.37 26.03 344.06 25.08C347.55 24.68 350.93 23.58 354.44 23.24C366.77 22.03 378.18 23.42 389.81 27.6ZM31 231.98C31.5 231.96 32 231.95 32.5 231.93C47.99 231.49 66.88 238.89 67.11 257C66.02 259.48 62.58 258.64 60.25 258.54C60.17 258.71 60.08 258.89 60 259.06C56.52 258.79 53.03 258.52 49.55 258.25C48.37 255.2 47.98 252.73 45.9 250.05C41.74 244.69 30.82 245.36 25.51 247.96C21.61 249.87 18.81 256.15 21.94 259.81C24.22 262.49 28.2 263.4 31.49 264.08C32.5 264.36 33.5 264.65 34.5 264.93C41.64 266.98 48.79 269.02 55.93 271.06C56.29 271.3 56.64 271.54 57 271.78C71.51 277.49 72.96 295.66 64.79 307.05C59.74 314.08 48.88 318.21 40.5 318.2C37 318.16 33.5 318.13 30 318.09C19.69 317.15 9.59 312.88 3.94 303.81C2.14 300.92 1.58 297.54 0.08 294.56C0.08 292.7 0.08 290.84 0.08 288.98C5.06 288.47 13.29 287.63 17.83 289.75C18.83 300.92 28.77 304.57 38.75 304.12C45.51 303.82 52.9 299.96 51.96 292.25C51.3 286.82 43.69 284.81 39.46 283.5C28.86 280.22 17.27 279.63 8.66 271.58C-1.34 262.24 2.36 242.44 14.92 236.75C20.27 234.33 25.32 233.2 31 231.98ZM144.01 241.93C144.51 242.47 145.01 243.01 145.51 243.55C149.6 247.74 152.54 254.73 153.11 260.5C152.73 261.01 152.36 261.51 151.98 262.02C146.5 261.76 141.01 261.51 135.53 261.25C133 257.11 131.96 253 127.55 250.1C118.96 244.45 105.14 247.95 100.02 256.54C95.96 263.35 94.46 271.81 95.2 279.69C95.37 281.5 96.06 283.19 96.19 285C96.47 285.84 96.76 286.68 97.05 287.52C104.35 308.63 132.79 308.84 136.11 285.25C140.9 285.04 145.7 284.83 150.5 284.63C151.49 284.83 152.48 285.04 153.47 285.25C153.6 285.67 153.74 286.08 153.87 286.5C152.57 295.16 149.03 304.23 142.05 309.96C141.19 310.63 140.33 311.3 139.47 311.96C138.4 312.54 137.32 313.11 136.25 313.68C136.23 313.77 136.21 313.86 136.19 313.94C134.8 314.62 133.41 315.3 132.01 315.97C129.34 316.68 126.67 317.39 124 318.1C122.58 318.11 121.17 318.11 119.75 318.12C119.67 318.27 119.58 318.42 119.5 318.56C116.69 317.94 113.65 318.27 110.77 317.96C103.77 317.23 95.89 314.33 90.96 309.06C90.28 308.54 89.6 308.03 88.92 307.52C79.31 300.02 75.68 281.22 76.95 269.77C77.61 263.84 79.67 257.97 82.05 252.52C82.54 251.63 83.03 250.75 83.52 249.87C86.62 243.13 93.38 240.61 98.39 236.06C99.27 235.72 100.15 235.38 101.03 235.03C113.6 229.64 134.51 230.92 144.01 241.93ZM211.5 233.88C214.83 234.57 218.17 235.25 221.5 235.93C224.72 237.17 228.07 239.49 229.98 242.43C230.64 243.3 231.3 244.17 231.95 245.05C235.86 252 236.43 266.1 230 271.98C229.33 272.65 228.66 273.33 227.99 274C226.19 275.09 224.4 276.17 222.61 277.25C224.47 279.31 227.81 279.6 229.45 282.3C235.55 292.36 233.44 304.8 236.5 315.75C233.55 316.98 224.54 316.95 221 316.64C220.18 316.23 219.35 315.83 218.53 315.42C216.62 310.34 217.78 304.48 216.62 299.25C215.97 296.32 215.53 293.31 214.48 290.5C214.07 289.39 213.32 288.92 213 287.75C211.44 287.77 210.21 285.42 208.5 284.91C204.01 283.56 189.13 283.48 184.69 284.75C184.53 294.17 184.36 303.58 184.2 313C184.05 314.04 183.9 315.08 183.75 316.12C183.33 316.28 182.92 316.43 182.5 316.59C177.25 316.49 172 316.38 166.75 316.28C164.37 310.92 166.01 299.43 166.05 293.25C166.12 280.43 166.23 267.57 166.04 254.75C165.94 248.45 164.54 240.3 166.44 234.25C181.46 234.13 196.48 234.01 211.5 233.88ZM251 233.86C256.25 233.94 261.5 234.03 266.75 234.12C268.8 237.92 267.89 248.79 267.37 253.25C266.28 262.57 268.45 272.07 267.74 281.41C267.03 290.68 268.69 301.3 279.76 302.88C282.16 303.23 284.36 302.98 286.75 302.82C291.33 302.51 296.22 301.12 299.02 297.18C301.46 293.76 300.79 288.68 301.17 284.75C301.93 276.81 301.15 268.76 301.15 260.75C301.15 253.8 303.18 242.94 300.94 236.5C301.14 236.42 301.34 236.33 301.54 236.25C301.77 233.41 303.65 234.22 306 233.89C310.5 234.01 315.01 234.13 319.51 234.25C321.32 238.31 319.81 253.45 319.81 258.75C319.81 270.65 322.17 293.95 315.65 304.02C312.15 309.43 307.25 312.55 301.94 315.73C301.82 315.76 301.7 315.79 301.58 315.82C298.73 316.2 296.03 317.36 293.19 317.82C290.66 318.24 288.04 318.11 285.5 318.35C285.42 318.27 285.33 318.19 285.25 318.12C283.5 318.2 281.75 318.28 280 318.36C272.87 317.6 264.53 316.13 259.08 310.97C258.55 310.49 258.03 310.01 257.5 309.53C249.76 302.74 249.08 290.66 249.15 281.25C249.23 270.42 249.17 259.58 249.14 248.75C249.13 244.12 248.59 239.15 249.06 234.58C249.71 234.34 250.35 234.1 251 233.86ZM337 233.88C344.5 233.92 352 233.95 359.5 233.99C360.02 234.15 360.53 234.3 361.05 234.46C363.35 241.17 365.66 247.88 367.96 254.58C368.29 255.4 368.61 256.21 368.94 257.03C372.71 267.93 376.48 278.83 380.25 289.73C381.19 287 382.12 284.27 383.06 281.53C383.22 281.22 383.39 280.9 383.56 280.58C388.39 265.41 393.22 250.24 398.06 235.06C398.87 234.67 399.69 234.28 400.5 233.88C408 233.88 415.5 233.89 423 233.89C423.27 234.01 423.54 234.13 423.81 234.25C424 234.67 424.19 235.08 424.38 235.5C424.37 261.5 424.35 287.5 424.34 313.5C423.85 315.03 424.16 315.9 422.5 316.59C417.58 316.47 412.67 316.35 407.75 316.23C405.51 311.17 406.79 302.78 407.08 297.25C407.55 288.26 406.85 279.24 406.84 270.25C406.83 266.73 407.55 263 406.75 259.53C403.82 267.87 400.88 276.22 397.95 284.56C397.78 285.01 397.61 285.46 397.43 285.92C393.93 295.86 390.42 305.81 386.91 315.75C383.62 317.11 379.1 316.42 375.5 316.38C375.42 316.3 375.33 316.23 375.25 316.15C373.67 316.36 373.11 316.16 372.04 315.01C368.55 305.03 365.06 295.05 361.57 285.07C361.33 284.57 361.09 284.07 360.85 283.56C358.07 275.63 355.28 267.69 352.5 259.75C352.45 262.5 352.4 265.25 352.35 268C352.3 273 352.25 278 352.2 283C352.21 288 352.21 293 352.22 298C352.21 303 352.21 308 352.2 313C352.05 314.06 351.9 315.12 351.75 316.18C349.33 316.31 346.92 316.43 344.5 316.56C341.58 316.39 338.67 316.22 335.75 316.04C335.52 315.39 335.3 314.73 335.07 314.07C335.02 293.74 334.96 273.41 334.9 253.07C335.1 246.97 335.3 240.86 335.51 234.75C336.01 234.46 336.5 234.17 337 233.88ZM185.5 271.03C189.84 271.05 194.18 271.06 198.51 271.08C202.88 271.08 209.95 272.09 213.36 268.59C218.67 263.13 217.56 250.93 209.52 248.94C205.99 247.05 199.46 247.85 195.5 248.18C191.87 248.2 188.24 248.23 184.61 248.25C184.51 255.75 184.41 263.25 184.3 270.75C184.7 270.84 185.1 270.94 185.5 271.03ZM300 352.16C300.75 352.35 301.5 352.55 302.25 352.75C302.25 354.27 302.25 355.78 302.25 357.3C300.92 357.26 299.58 357.23 298.25 357.2C298.12 356.8 297.98 356.4 297.85 356C297.92 354.92 298 353.83 298.07 352.75C298.71 352.55 299.36 352.35 300 352.16ZM135 352.62C144.03 352.61 153.06 352.59 162.08 352.58C162.71 352.72 163.34 352.86 163.96 353C163.89 354.37 163.82 355.73 163.75 357.1C159.58 357.31 155.42 357.51 151.25 357.72C151.2 362.98 151.15 368.24 151.1 373.5C151.11 376.83 151.12 380.17 151.13 383.5C151.16 384.58 151.19 385.67 151.22 386.75C149.56 386.8 147.91 386.85 146.25 386.89C146.1 382.1 145.96 377.3 145.81 372.5C145.84 369.42 145.86 366.33 145.88 363.25C145.79 363.17 145.71 363.08 145.62 363C145.49 361.07 145.37 359.15 145.25 357.22C141.5 357.18 137.75 357.15 134 357.12C133.69 356.99 133.37 356.87 133.06 356.75C133.12 355.48 133.19 354.21 133.25 352.93C133.83 352.83 134.42 352.73 135 352.62ZM283.5 353.91C284.58 354.19 285.65 354.47 286.73 354.75C286.9 356.84 287.08 358.94 287.25 361.03C287.83 361.22 288.42 361.42 289 361.61C289.08 361.71 289.17 361.81 289.25 361.91C290.83 361.95 292.41 362 293.99 362.04C294 363.14 294.02 364.25 294.03 365.35C293.35 365.53 292.68 365.71 292 365.89C290.39 366.01 288.77 366.13 287.16 366.25C287.02 371.5 286.89 376.75 286.75 382C288.77 384.49 290.88 383.62 293.75 384.02C293.87 385.03 293.99 386.03 294.11 387.03C293.74 387.37 293.37 387.71 293 388.05C291.13 388.17 289.14 388.33 287.27 388.13C278.08 387.15 282.99 372.24 281.75 366.04C280.25 365.86 278.75 365.69 277.25 365.51C277.16 364.42 277.07 363.34 276.97 362.25C278.57 362.03 280.16 361.81 281.75 361.6C281.77 359.56 281.8 357.53 281.82 355.5C281.97 355.08 282.11 354.67 282.25 354.25C282.67 354.14 283.08 354.03 283.5 353.91ZM187.57 372.5C187.68 374.83 187.79 377.17 187.89 379.5C188.12 380.8 188.35 382.1 188.57 383.4C189.48 383.68 190.39 383.97 191.29 384.25C191.28 385.06 191.26 385.88 191.25 386.69C190 386.97 188.75 387.25 187.5 387.53C185.18 387.26 184.61 386.87 183.25 385.14C180.5 386.12 177.75 387.1 175 388.08C173.5 388.09 172 388.11 170.5 388.12C165.09 386.93 158.07 381.96 163.53 375.77C165.57 373.47 169.66 372.88 172.5 372.39C173.53 372.26 174.56 372.12 175.59 371.99C178.18 371.81 181.4 372.15 182.92 369.75C182.93 362.75 169.64 363.41 168.05 369.42C167.81 369.61 167.58 369.81 167.34 370C166.11 369.75 164.88 369.5 163.64 369.25C163.91 366.53 165.01 363.99 167.44 362.56C168.96 362.06 170.49 361.56 172.02 361.06C181.43 359.39 188.22 362.24 187.57 372.5ZM334.11 386C333.98 386.25 333.86 386.5 333.73 386.75C332.32 386.82 330.9 386.89 329.49 386.95C327.06 380.54 333.41 365.8 322.66 365.24C308.56 364.51 315.55 379.19 313.25 386.94C311.58 386.88 309.91 386.81 308.24 386.75C308.39 378.58 308.54 370.42 308.68 362.25C312.65 361.38 312.11 361.75 313.75 364.59C315.75 363.36 316.84 361.89 319.25 361.2C336.58 356.21 334.54 375.26 334.11 386ZM211.03 365.93C208.3 366.15 205.07 365.5 202.94 367.48C202.04 368.32 201.15 369.16 200.25 370C200.01 375.58 199.78 381.17 199.54 386.75C198.05 386.81 196.56 386.87 195.07 386.93C194.91 386.12 194.75 385.31 194.58 384.5C194.74 377.15 194.89 369.8 195.04 362.45C196.67 362.49 198.29 362.52 199.92 362.56C199.94 363.29 199.97 364.02 200 364.75C200.92 364 201.83 363.25 202.75 362.5C202.79 362.51 202.83 362.52 202.87 362.53C203.56 362.18 204.25 361.84 204.93 361.49C206.89 360.72 208.76 360.5 210.75 361.34C210.84 362.87 210.94 364.4 211.03 365.93ZM258.08 361.06C259.22 361 260.36 360.94 261.5 360.88C263.51 361.27 265.51 361.65 267.52 362.03C268.05 362.35 268.58 362.67 269.11 362.99C273.02 365.63 274.18 369.63 275.09 374C274.73 374.7 274.36 375.39 274 376.09C267.67 376.08 261.33 376.08 255 376.07C254.08 376.08 253.17 376.1 252.25 376.11C251.94 377.94 252.12 378.73 253.23 380.25C253.32 380.26 253.41 380.26 253.5 380.27C259.23 385.24 263.39 385.23 269 380.01C270.42 379.86 271.83 379.71 273.25 379.56C274.06 380.89 272.88 381.71 272.45 383.09C267.95 390.45 253.7 389.52 249.05 383.04C248.21 380.85 247.37 378.67 246.53 376.48C244.37 370.01 251.48 361.16 258.08 361.06ZM354.07 361.07C355.88 361.64 357.69 362.2 359.5 362.76C360.5 363.42 361.5 364.09 362.5 364.75C362.75 363.83 363 362.91 363.25 362C364.55 362.08 365.85 362.17 367.15 362.25C367.25 369.34 367.35 376.43 367.45 383.52C367.43 384.68 367.41 385.84 367.4 387C366.5 393.19 364.48 392.94 361.03 396.92C355.52 396.92 350.02 396.92 344.51 396.92C343 394.59 339.93 393.64 340.23 390.25C345.28 388.75 344.66 391.82 348.23 393.06C355.65 395.65 362.43 393.03 362.22 384.75C360.34 384.83 358.7 386.4 356.72 386.9C352.72 387.9 348.18 387.17 344.51 385.47C343.67 384.85 342.84 384.23 342 383.62C332.5 375.11 341.75 360.15 354.07 361.07ZM411.96 366.58C411.94 367.47 411.91 368.36 411.89 369.25C409.66 369.59 408.61 369.32 407.04 367.94C404.08 364.17 392.81 362.75 393.78 369.75C397.66 374.72 418.88 369.62 412.56 383.22C409.03 390.83 387.15 390.11 388.25 379.38C389.33 379.23 390.42 379.08 391.5 378.93C391.98 379.31 392.47 379.69 392.95 380.07C393.77 381.06 394.6 382.06 395.42 383.05C396.03 383.32 396.64 383.59 397.25 383.87C397.36 383.77 397.47 383.67 397.58 383.57C401.43 384.86 409.96 384.15 407.53 378.25C407.04 378.05 406.55 377.85 406.06 377.65C405.96 377.45 405.85 377.25 405.75 377.05C404.83 377.05 403.92 377.05 403 377.05C401.82 376.86 400.65 376.67 399.47 376.48C398.32 376.36 397.16 376.24 396 376.12C394.19 375.41 392.39 374.7 390.58 373.98C389.9 372.65 389.22 371.32 388.54 369.99C386.7 359.1 409.58 357.8 411.96 366.58ZM474.48 368.08C474.51 368.64 474.55 369.19 474.59 369.75C471.09 370.8 470.75 369.46 468.5 367.62C463.27 363.52 454.68 364.42 453.66 372.01C453.51 372.09 453.35 372.17 453.2 372.25C453.28 373.67 453.37 375.09 453.46 376.51C453.56 377.17 453.65 377.84 453.75 378.5C454.57 379.67 455.39 380.83 456.2 382C456.22 382.1 456.23 382.19 456.25 382.29C457.92 382.83 459.58 383.37 461.25 383.92C461.36 383.8 461.47 383.68 461.58 383.56C465.69 384.29 468.65 382.01 469.94 378.25C471.54 378.25 473.14 378.25 474.74 378.25C472.86 386.66 462.04 391.39 454.43 386.54C453.61 386.01 452.78 385.47 451.95 384.94C447.44 381.39 447.47 373.34 449.05 368.48C449.22 368.15 449.39 367.82 449.56 367.49C455.03 359.22 472.84 358.15 474.48 368.08ZM499.98 362.5C502.29 364.74 505.64 366.43 504.75 370.15C503.3 370.02 501.86 369.88 500.41 369.75C499.28 368.53 498.14 367.31 497 366.08C493.76 365.13 490.73 364.41 487.58 366.33C481.46 370.07 483.32 379.57 488.51 383.03C490.25 384.2 493.02 384.27 495 383.65C497.88 382.81 499.33 381.04 500.26 378.25C501.83 378.25 503.4 378.25 504.97 378.25C505.66 387.55 492.22 389.45 485.93 387.03C484.78 386.26 483.64 385.5 482.5 384.73C478.34 382.05 477.86 373.91 479.07 369.58C479.4 368.88 479.72 368.18 480.05 367.48C484.86 362.06 492.81 358 499.98 362.5ZM521.5 376.12C520 376.12 518.5 376.13 517 376.14C516.08 376.26 515.17 376.38 514.25 376.5C515.56 379.36 516.91 381.71 519.99 383.06C521.33 383.31 522.66 383.56 524 383.81C527.52 383.7 529.43 382.26 531.75 379.83C533.08 379.72 534.42 379.61 535.75 379.5C536.89 388.39 520.5 389.36 515.02 385.98C514.68 385.73 514.34 385.48 514 385.23C511.33 383.71 510.57 381.39 509.67 378.61C502.58 356.73 541.68 354.73 537.1 375.75C531.9 375.87 526.7 375.99 521.5 376.12ZM563.96 364.44C564.68 366.25 565.53 367.16 565.25 369.21C562.83 369.72 561.8 369.21 560.11 367.81C557.49 363.34 545.5 363.35 547.17 370.25C551.27 373.76 568.12 370.4 566.74 380.01C565.4 389.39 550.91 390.04 544.48 385.98C543.67 385.14 542.86 384.31 542.05 383.47C541.68 382.48 541.31 381.49 540.95 380.5C542 378.03 545.12 379.04 546.41 380.67C546.84 381.28 547.27 381.89 547.7 382.5C547.71 382.59 547.73 382.68 547.75 382.77C549 383.15 550.25 383.53 551.5 383.91C553.87 383.94 557.13 384.57 559.29 383.38C563.8 380.9 560.2 377.18 556.55 377.06C553.16 376.52 549.77 375.97 546.39 375.43C542.1 373.24 539.74 367.31 544.28 363.57C548.98 359.7 560.02 359.4 563.96 364.44ZM586.01 361.06C587.09 361.47 588.17 361.87 589.25 362.27C589.36 362.2 589.47 362.13 589.58 362.06C591.7 363.33 593.3 364.55 594.11 367C593.99 370.18 591.24 369.83 589.03 368.44C588.94 367.96 588.84 367.48 588.75 367C587.49 366.4 586.14 365.42 584.73 365.09C580.65 364.12 573.81 365.25 576.25 370.7C579.17 371.18 582.08 371.67 585 372.15C586.71 372.6 588.42 373.05 590.13 373.5C595.6 375.59 597.28 382.06 592.03 385.78C586.1 389.99 568.37 389.49 570.25 379.04C571 379 571.75 378.96 572.5 378.92C575.26 379.8 575.35 382.86 578.42 383.57C582.72 384.43 590.75 385.13 589.75 378.77C585.98 375.11 578.62 377.44 574.01 374.98C573.18 374.15 572.35 373.32 571.52 372.49C566.11 362.52 579.79 360.68 586.01 361.06ZM224.5 361.43C227.38 361.64 230.26 361.85 233.13 362.06C234.33 362.63 235.52 363.19 236.71 363.75C236.82 363.31 236.92 362.87 237.02 362.43C238.18 362.27 239.34 362.1 240.5 361.93C240.92 362.01 241.33 362.09 241.75 362.18C241.88 366.45 242 370.73 242.13 375C242.13 375.17 242.13 375.33 242.14 375.5C242.34 380.64 242.89 386.35 240.97 391.23C240.24 393.09 236.46 396.89 236.46 396.92C230.79 396.92 225.11 396.92 219.44 396.92C217.31 394.53 214.85 393.94 214.9 390.25C216.34 390.25 217.78 390.25 219.22 390.25C221.06 392.32 222.14 393.44 225 393.84C225.67 393.83 226.33 393.83 227 393.82C233.76 393.49 237.21 390.78 237 383.75C235.09 384.14 233.64 386.16 231.66 386.81C226.55 388.48 218.7 387.23 215.57 382.52C215.22 381.85 214.86 381.18 214.5 380.51C212.91 377.89 212.89 374.88 213.61 372.02C215.19 365.72 218.29 363.1 224.5 361.43ZM300 361.88C300.76 362 301.53 362.13 302.29 362.25C302.4 365.83 302.51 369.42 302.62 373C302.6 377.42 302.57 381.83 302.55 386.25C302.2 386.7 301.85 387.14 301.5 387.59C300.42 387.4 299.33 387.2 298.25 387.01C298.05 382.17 297.85 377.34 297.65 372.5C297.81 369.08 297.96 365.67 298.11 362.25C298.74 362.13 299.37 362 300 361.88ZM419.5 361.82C420.42 361.92 421.33 362.03 422.25 362.13C424 367.63 421.98 374.07 423.14 379.75C423.36 380.82 424.16 381.71 424.5 382.75C426.83 382.93 429.11 383.86 431.66 383.69C437.32 383.33 439.39 377.36 438.36 372.5C438.28 370.67 438.2 368.83 438.12 367C438.13 366.17 438.14 365.33 438.15 364.5C438.35 363.75 438.55 363 438.74 362.25C440.14 362.25 441.53 362.25 442.93 362.25C443.1 363.51 443.28 364.77 443.45 366.03C443.34 372.94 443.22 379.84 443.11 386.75C440.26 387.49 438.59 387.4 438.5 384.25C436.21 385 434.74 387.13 432.25 387.72C430.81 388.07 429.22 388.02 427.75 388C416.33 387.85 418.46 379.88 417.62 371.5C417.79 368.42 417.96 365.33 418.12 362.25C418.58 362.11 419.04 361.96 419.5 361.82ZM269.23 371.25C267.99 362.99 252.74 363.55 252.15 371.75C254.62 372.46 267.29 372.44 269.23 371.25ZM531.75 371.97C531.42 362.97 515.12 362.87 514.75 371.97C520.42 371.97 526.09 371.97 531.75 371.97ZM226.42 365.73C225.95 365.79 225.47 365.84 225 365.9C216.32 367.06 216.93 381.07 225 383.06C231.1 384.57 237.22 380.71 237.01 374.25C236.92 371.6 235.36 370.13 235 367.75C233.01 367.74 230.6 365.55 226.42 365.73ZM351.42 365.73C351.31 365.76 351.2 365.78 351.08 365.81C339.39 367.16 343.01 387.57 357.02 382.74C361.68 381.13 364.09 373.73 361.51 369.52C359.55 366.32 354.78 365.38 351.42 365.73ZM180 382.35C180.86 381.26 181.72 380.17 182.58 379.08C182.61 377.81 182.65 376.53 182.68 375.25C179.27 374.92 167.64 375.54 167.15 379.78C166.42 386.1 176.99 384.04 180 382.35Z" fill="#0772b7" fill-rule="evenodd" stroke="#0772b7" stroke-width="0.25" stroke-linejoin="round"></path><path d="M505.5 0.08C512.18 0.08 518.85 0.08 525.53 0.08C525.1 0.22 524.68 0.36 524.25 0.5C524.16 0.73 524.07 0.96 523.97 1.18C519.15 3.16 514.32 5.14 509.5 7.11C508.67 7.49 507.83 7.87 507 8.25C506.33 8.42 505.66 8.58 504.99 8.75C504.97 8.98 504.94 9.22 504.92 9.45C504.19 9.42 497.21 12.44 496.06 12.99C494.16 13.9 493.87 15.75 491.42 15.92C490.26 16.62 489.09 17.32 487.93 18.03C487.62 18.1 487.31 18.18 487 18.25C486.17 18.75 485.33 19.25 484.5 19.75C484.08 20.19 483.67 20.63 483.25 21.07C483.14 21.03 483.03 20.98 482.92 20.93C482.03 21.32 481.14 21.72 480.25 22.11C480.2 22.24 480.16 22.37 480.11 22.5C475.89 25.39 471.2 28.04 467.92 31.92C467.7 31.73 467.47 31.54 467.25 31.35C466.25 31.93 465.25 32.5 464.25 33.08C464.21 33.22 464.17 33.36 464.13 33.5C460.67 36.17 457.21 38.83 453.75 41.5C453.67 41.81 453.58 42.11 453.5 42.42C453 42.99 452.51 43.56 452.01 44.13C451.41 45.24 451.12 45.39 450 45.25C447.09 49.48 441.87 52.67 438.51 56.77C437.36 58.18 436.69 60.9 434.5 60.75C431 67.24 423.85 71.55 420.94 78.44C416.46 80.47 413.6 87.61 411.08 91.52C410.97 91.42 410.86 91.31 410.75 91.21C410.01 92.22 409.27 93.24 408.53 94.25C408.69 94.36 408.85 94.47 409.01 94.58C406.5 98.37 404 102.15 401.5 105.93C400.67 107.7 399.83 109.48 399 111.25C398.25 111.99 397.5 112.73 396.75 113.47C396.82 113.67 396.9 113.88 396.97 114.08C394.31 118.79 391.66 123.5 389 128.21C388.91 128.22 388.82 128.24 388.73 128.25C388.55 128.83 388.37 129.42 388.19 130C386.38 133.27 384.56 136.54 382.75 139.82C381.23 138.18 380.99 135.98 380.07 134C379.37 132.48 378.15 131.2 377.54 129.65C375.13 123.45 373.58 116.62 370.14 111C370.24 110.75 370.35 110.5 370.45 110.25C369.27 107.49 368.08 104.73 366.9 101.96C365.38 96.53 357.84 88.14 364.5 83.91C365.64 83.27 366.45 82.39 366.25 81C366.87 80.79 374.02 73.53 374.5 72.78C374.75 72.69 375 72.59 375.25 72.5C375.42 72.17 375.58 71.83 375.75 71.5C376.7 70.17 377.65 68.83 378.6 67.5C379.84 67.31 380.39 66.94 380 65.75C382.25 64.28 386.44 61.93 387.08 59.03C388.22 58.3 389.36 57.57 390.5 56.85C393.14 54.82 394.89 52.54 397 50.25C398.9 50.54 403.35 46.49 404.5 45C405.51 44.03 406.51 43.06 407.52 42.08C407.83 42.14 408.13 42.19 408.43 42.25C409.29 41.42 410.14 40.58 411 39.75C412.77 38.67 414.54 37.58 416.3 36.5C420.85 33.86 425.39 31.21 429.93 28.57C430.64 28.13 431.34 27.69 432.04 27.25C432.06 27.02 432.07 26.79 432.08 26.56C438.58 23.55 445.08 20.53 451.58 17.52C453.39 16.66 455.21 15.8 457.02 14.95C460.01 13.76 463.01 12.56 466 11.37C467.84 10.83 469.67 10.29 471.51 9.75C471.34 9.54 471.17 9.34 471 9.13C471.5 9.17 472 9.21 472.5 9.25C473.81 8.67 475.11 8.1 476.42 7.52C476.53 7.68 476.64 7.84 476.75 8C477.7 7.64 478.64 7.28 479.59 6.93C485.03 5.45 490.47 3.98 495.92 2.5C496.03 2.58 496.14 2.67 496.25 2.75C499.08 2.14 501.92 1.53 504.75 0.93C505 0.65 505.25 0.36 505.5 0.08ZM342 55.86C342.92 58.41 343.83 60.95 344.75 63.5C344.92 63.83 345.08 64.17 345.25 64.5C345.64 64.86 346.03 65.22 346.42 65.58C346.26 65.8 346.1 66.03 345.94 66.25C346.38 67 346.81 67.75 347.25 68.5C347.42 69.25 347.58 70.01 347.75 70.76C347.98 70.7 348.2 70.64 348.43 70.58C348.26 74.16 353.05 85.35 355.17 88.5C355.36 88.83 355.56 89.17 355.75 89.5C355.75 89.92 355.74 90.33 355.74 90.75C355.8 90.92 355.86 91.08 355.91 91.25C356.25 91.36 356.58 91.47 356.92 91.58C358.32 96.25 360.04 100.39 362.11 104.72C363.47 107.55 363.87 110.8 365.38 113.5C365.25 113.58 365.13 113.67 365 113.75C365.34 114.34 365.67 114.92 366.01 115.51C368.25 120.61 369.69 126.28 371.96 131.49C372.43 132.57 373.41 133.32 373.97 134.32C375.14 136.37 375.97 140.44 376.09 142.75C375.39 143.16 374.7 143.56 374 143.97C369.36 144.13 364.72 144.3 360.08 144.47C354.51 143.48 348.78 143.25 343.55 141.02C341.64 139.29 338.49 138.95 336.54 137.22C335.86 136.61 335.53 135.64 334.91 135.01C334.68 134.75 334.46 134.5 334.23 134.25C333.73 130.65 332.06 126.13 330 123.08C330.09 122.97 330.18 122.86 330.28 122.75C329.85 122.15 329.43 121.55 329.01 120.95C327.39 118.95 327.61 116.34 326.52 113.98C325.1 110.91 324 107.53 322.51 104.54C321.58 102.69 320.31 101.56 319.66 99.5C319.79 99.42 319.91 99.33 320.04 99.25C319.61 98.23 319.18 97.21 318.75 96.19C318.55 96.3 318.35 96.4 318.15 96.5C318.02 95.34 317.13 94.64 316.74 93.53C315.29 89.39 312.31 84.32 312.58 80.08C312.81 80.1 313.03 80.11 313.25 80.13C313.36 79.78 313.46 79.43 313.57 79.08C313.79 78.22 314.02 77.36 314.25 76.5C314.42 76 314.58 75.5 314.75 75C314.82 74.69 314.88 74.38 314.95 74.07C316.63 70.63 318.32 67.19 320 63.75C321.37 62.89 323.58 61.25 323.08 59.5C325.72 57.15 328.36 54.8 331 52.44C332.92 50.96 334.83 49.48 336.75 48C340.55 49.49 339.59 53.09 342 55.86ZM660.08 234.07C660.54 234.3 660.99 234.52 661.45 234.75C661.59 235.83 661.73 236.92 661.87 238C661.86 263 661.85 288 661.84 313C661.73 313.08 661.62 313.17 661.51 313.25C661.57 314.88 661.44 315.13 660 315.84C655.58 315.69 651.17 315.54 646.75 315.4C646.08 313.78 645.42 312.16 644.75 310.54C644 311.24 643.25 311.94 642.5 312.64C641.57 313.34 640.64 314.05 639.71 314.75C639.78 314.98 639.85 315.21 639.92 315.44C633.41 316.92 629.23 317.94 622.31 316.82C619.52 316.36 616.8 314.54 614.25 314.15C612.72 312.43 610.89 311.09 609.34 309.42C604.88 304.62 601.35 295.24 600.92 288.77C600.73 285.93 601.6 283.49 601.86 280.75C602.21 277.16 603.85 268.81 606.37 266.48C607.32 265.47 607.44 263.74 608.52 262.78C610.14 261.33 612.62 260.84 613.25 258.5C613.89 258.36 614.53 258.22 615.17 258.08C617.95 257.19 620.72 256.3 623.5 255.41C629.17 255.53 634.07 255.61 639.5 257.25C639.09 258.61 641.19 259.66 642.5 259.93C643.25 260.52 644 261.1 644.75 261.69C645.01 260.55 644.66 258.31 646 258.25C645.67 255.17 645.34 252.08 645 249C646.12 247.32 646.15 240.13 644.99 238.5C645.08 237.18 645.16 235.86 645.25 234.55C650.19 234.39 655.14 234.23 660.08 234.07ZM511 234.59C511.08 234.69 511.17 234.79 511.25 234.89C512.82 235.01 514.4 235.13 515.97 235.25C516.06 235.65 516.16 236.05 516.25 236.46C516.46 236.47 516.68 236.49 516.89 236.5C516.51 241.12 516.13 245.74 515.75 250.36C514 250.59 512.25 250.81 510.5 251.04C507.42 250.85 504.33 250.66 501.25 250.47C500.84 249.98 500.44 249.49 500.03 249C500.05 247.83 500.06 246.67 500.08 245.5C500.24 245.42 500.41 245.33 500.58 245.25C500.58 244.25 500.58 243.25 500.58 242.25C500.41 242.17 500.23 242.08 500.06 242C500.21 239.92 500.35 237.83 500.49 235.75C503.25 233.91 507.7 234.95 511 234.59ZM461.5 254.65C468.81 255.14 474.94 258.28 480.96 262.25C483 265.85 484.08 268.94 484.58 273.25C482.55 273.62 480.53 273.99 478.5 274.36C475.58 274.15 472.67 273.93 469.75 273.72C469.17 272.5 468.58 271.27 468 270.05C463.2 266.53 461.03 266.18 454.92 266.42C454.19 266.51 453.47 266.6 452.75 266.68C452.7 266.79 452.66 266.89 452.61 267C451.66 267.33 450.7 267.67 449.75 268C449.58 269.67 449.42 271.33 449.25 273C452.36 276.14 460.77 280.32 465.45 279.44C469.11 280.49 472.76 281.53 476.42 282.58C477.64 282.67 480.77 284.36 480.75 285.5C482.98 285.61 484.93 288.34 485.56 290.42C485.45 290.53 485.35 290.64 485.24 290.75C485.63 292.81 486.03 294.86 486.43 296.92C486.33 299.86 484.2 310.27 480.5 310.25C479.14 314.63 468.27 316.42 464.19 317.42C462.92 317.73 458.23 318.7 458.25 317C455.41 318.23 452.13 317.36 449.28 316.36C439.56 312.94 432.36 309.91 431.83 298C431.96 297.58 432.09 297.17 432.22 296.75C432.73 296.63 433.24 296.52 433.75 296.4C433.83 296.29 433.92 296.18 434 296.06C438.08 296.2 442.17 296.33 446.25 296.47C447 297.35 447.75 298.23 448.5 299.12C448.28 299.33 448.07 299.54 447.85 299.75C448.48 301.11 449.12 302.48 449.75 303.84C449.86 303.75 449.97 303.66 450.08 303.57C453.85 306.21 458.73 307.05 463.25 306.04C464.96 305.66 465.69 303.92 467.5 304.25C470.29 299.54 470.6 295.7 465.02 293.48C462.68 292.91 460.34 292.33 458 291.75C457.26 290.86 456.76 290.98 455.52 291.42C455.55 291.36 455.87 290.84 455.8 290.81C455.28 290.53 453.14 290.64 452.34 290.47C449.21 289.8 444.85 288.25 441.94 286.79C434.07 282.86 431.61 276.55 433.62 268C433.75 267.92 433.89 267.83 434.02 267.75C434.51 266.5 435 265.25 435.48 264C438.85 258.76 445.18 256.48 451.08 255.52C454.56 255.23 458.03 254.94 461.5 254.65ZM492.58 256.04C497.63 256.34 502.61 256.82 507.75 256.65C509.38 256.6 510.88 256.07 512.5 256.14C515.17 257.04 521.26 257.5 523.84 256C525.14 256.29 526.45 256.58 527.75 256.87C528.81 259.62 528.86 264.57 527.75 267.33C524.09 267.63 520.44 267.94 516.78 268.25C516.73 273.33 516.68 278.42 516.63 283.5C516.7 288.17 516.77 292.83 516.84 297.5C516.01 303.62 521.42 303.54 526 303.33C526.58 303.45 527.17 303.58 527.75 303.7C527.97 306.61 528.19 309.51 528.42 312.42C528.47 312.53 528.53 312.64 528.58 312.75C528.31 313.81 528.03 314.88 527.75 315.94C526.67 316.09 525.58 316.23 524.5 316.37C519.81 316.22 515.12 316.07 510.43 315.92C507.63 314.36 504.83 312.81 502.04 311.25C501.61 310.35 501.18 309.46 500.75 308.56C498.8 300.5 499.88 288.01 499.68 279.25C499.6 275.69 500.58 271.04 499.1 267.75C496.9 267.83 494.7 267.9 492.5 267.98C492.42 267.78 492.33 267.58 492.25 267.38C489.87 266.71 490.34 264.39 490.37 262.25C490.26 262.17 490.15 262.08 490.04 262C490.04 261.67 490.04 261.33 490.04 261C490.15 260.92 490.25 260.83 490.35 260.75C490.32 258.67 489.87 256.99 492.25 256.63C492.36 256.43 492.47 256.23 492.58 256.04ZM550.92 256.01C551.33 256.42 551.74 256.84 552.15 257.25C552.25 260.64 552.35 264.03 552.45 267.42C552.61 272.75 552.78 278.08 552.94 283.42C552.73 283.69 552.53 283.97 552.33 284.25C552.55 287.66 552.78 291.07 553 294.48C553.71 296.06 553.47 298.06 554.19 299.62C554.62 300.52 555.84 300.99 556.43 301.92C556.54 302.27 556.64 302.62 556.75 302.97C560.25 304.65 567.42 305.42 570.48 302.47C570.82 302.4 571.16 302.32 571.5 302.25C572.21 300.06 573.56 298.74 573.57 296.25C573.85 296 574.13 295.76 574.41 295.51C574.54 295.42 574.68 295.34 574.81 295.25C574.89 293.98 574.97 292.72 575.05 291.45C575.16 288.64 575.27 285.82 575.38 283C575.36 278 575.34 273 575.33 268C575.42 264.16 574.24 258.74 577.08 256.02C581.96 256.43 586.83 256.84 591.71 257.25C591.76 260.83 591.82 264.42 591.88 268C591.8 268.08 591.73 268.17 591.65 268.25C591.79 269.33 591.93 270.42 592.06 271.5C592.05 280.47 592.04 289.44 592.03 298.42C591.93 298.69 591.84 298.97 591.75 299.25C591.82 299.32 591.89 299.39 591.97 299.46C591.86 304.72 591.76 309.99 591.65 315.25C588.93 315.52 586.22 315.79 583.5 316.06C580.59 315.45 576.8 317.08 575.94 313.5C575.88 311.99 575.81 310.48 575.75 308.97C574.19 310.31 572.63 311.65 571.07 312.99C570.71 313.29 570.36 313.6 570 313.9C568.56 313.95 567.48 315.3 566.08 315.79C562.01 317.22 555.15 318.56 551.05 317C550.12 316.66 549.18 316.32 548.25 315.99C548.17 316.11 548.08 316.23 548 316.36C547.83 316.15 547.67 315.95 547.5 315.75C545.86 316.06 544.63 315.16 543.51 314C543.15 313.52 542.8 313.04 542.44 312.56C542.38 312.59 542.31 312.61 542.25 312.64C541.61 311.93 540.97 311.21 540.34 310.5C539.7 309.65 539.07 308.79 538.44 307.94C538.38 307.46 538.31 306.98 538.25 306.5C537.85 306.08 537.46 305.67 537.06 305.25C536.74 303.67 536.42 302.08 536.09 300.5C536.25 300.42 536.4 300.33 536.55 300.25C536.51 299.42 536.47 298.58 536.43 297.75C536.26 297.67 536.09 297.58 535.91 297.5C535.84 292.54 535.76 287.58 535.69 282.61C535.68 279.08 535.68 275.54 535.68 272C536 266.92 536.33 261.83 536.65 256.75C541.41 256.5 546.16 256.26 550.92 256.01ZM669.5 256.07C672.33 255.78 682.57 255.91 684.65 257.25C687.88 266.5 691.12 275.75 694.36 285C694.24 285.08 694.12 285.17 694 285.25C694.25 286.08 694.5 286.92 694.75 287.75C694.83 287.76 694.92 287.77 695 287.78C695.08 288.19 695.17 288.59 695.25 289C695.42 289.5 695.58 290 695.75 290.5C695.83 291.08 695.92 291.67 696 292.25C697.09 292.2 697.17 293.62 697.75 294.57C698.17 294.05 698.58 293.53 699 293.01C699.36 292.03 699.71 291.06 700.07 290.08C699.86 286.6 702.37 283.31 703.62 280.25C706.35 273.57 707.15 262.75 711.25 256.89C715.97 256.59 720.69 256.29 725.42 255.99C725.86 256.19 726.31 256.38 726.75 256.58C727.14 256.39 727.53 256.19 727.92 256C727.92 257.01 727.92 258.02 727.92 259.03C726.93 260.03 727.14 262.31 725.75 262C725.75 262.58 725.75 263.17 725.75 263.75C725.67 263.77 725.58 263.79 725.5 263.81C724.97 265.07 724.45 266.33 723.92 267.58C720.14 277.72 716.36 287.86 712.57 298C712.38 299.25 712.19 300.5 712 301.75C710.32 303.33 709.36 305.61 708.94 307.92C708.56 309.98 708.02 312.27 706.25 313.5C705.48 316.64 704.72 319.78 703.95 322.92C703.66 323.03 703.37 323.14 703.08 323.25C702.38 324.91 701.68 326.56 700.97 328.22C699.96 329.05 699.4 330.29 698.49 331.25C696.16 333.7 692.33 335.42 689 336.19C684.33 336.17 679.67 336.15 675 336.14C674.36 336.01 673.72 335.88 673.07 335.75C672.78 332.67 672.49 329.58 672.2 326.5C672.22 326 672.23 325.5 672.25 325C672.5 324.42 672.75 323.83 672.99 323.25C673.66 323.13 674.33 323 675 322.88C682.64 323.21 690.79 323.03 687.81 312.5C687.29 310.86 686.77 309.21 686.25 307.57C686.14 307.71 686.03 307.85 685.92 307.99C682.52 302.87 681.89 295.53 679.6 289.76C675.86 280.31 672.01 270.62 668.47 261.58C668.58 261.47 668.69 261.36 668.79 261.25C667.7 258.7 667.32 257.68 669.5 256.07ZM624.42 269.46C623.25 270.85 622.09 272.24 620.93 273.63C619.86 274.94 619.75 280.2 618 280.25C619 283.27 617.36 289.43 619.14 294.68C620.06 297.38 623.66 299.46 623.95 302.08C624.97 302.68 625.98 303.27 627 303.86C629.54 304.26 631.54 305.17 634.25 304.9C635.89 304.74 637.4 303.69 639 303.75C640.04 302.23 641.89 301.22 642.76 299.54C646.78 291.71 648.4 270.63 636.73 268.05C632.15 267.03 628.66 268.3 624.42 269.46Z" fill="#5db756" fill-rule="evenodd" stroke="#5db756" stroke-width="0.25" stroke-linejoin="round"></path></svg>