<?xml version="1.0" encoding="UTF-8"?>
<svg xmlns="http://www.w3.org/2000/svg" viewBox="0 0 447 447" width="447" height="447">
<path d="M0.13 0.13C149.04 0.13 297.96 0.13 446.88 0.13C446.88 149.04 446.88 297.96 446.88 446.88C297.96 446.88 149.04 446.88 0.13 446.88C0.13 297.96 0.13 149.04 0.13 0.13ZM214.72 175.24C212.56 175.24 210.41 175.24 208.25 175.24C206.17 178.38 207.37 189.1 207.37 193.25C207.37 204.42 207.37 215.58 207.37 226.75C207.37 232.16 206.46 238.54 207.75 243.79C210.07 243.79 212.4 243.79 214.72 243.79C214.72 220.94 214.72 198.09 214.72 175.24ZM248.73 175.36C246.49 175.36 244.24 175.36 242 175.36C240.62 180.34 241.56 186.58 241.56 191.75C241.56 202.92 241.56 214.08 241.56 225.25C241.56 229.83 240.32 239.96 242.25 243.74C244.41 243.74 246.57 243.74 248.73 243.74C248.73 220.95 248.73 198.16 248.73 175.36ZM80.25 182.11C77.98 182.11 75.72 182.11 73.45 182.11C73.45 184.74 73.45 187.38 73.45 190.01C75.8 190.01 78.14 190.01 80.48 190.01C81.17 187.59 81.32 184.4 80.25 182.11ZM65.49 204.25C67.92 198.75 62.73 197.48 58.44 196.77C51.77 195.66 42.05 196.38 38.06 202.82C36.95 204.6 36.3 206.67 36.16 208.75C35.45 219.21 42.34 220.22 50.49 222.74C54.75 224.07 60.38 224.55 60.4 230.25C60.43 242.63 41.29 235.53 36.25 236.09C34.7 242.83 40.84 243.58 46.25 243.85C54.6 244.27 65.19 242.23 67.74 233.01C70.82 221.88 61.15 218.54 52.86 216.33C49.35 215.4 43.8 214.88 43.32 210.25C43.1 208.09 44.03 206.23 45.62 204.84C52.42 198.88 60.03 205.17 65.49 204.25ZM80.75 196.6C78.29 196.6 75.82 196.6 73.36 196.6C73.36 212.34 73.36 228.08 73.36 243.82C75.66 243.82 77.95 243.82 80.25 243.82C82.08 240.16 80.9 233.84 80.9 229.75C80.9 218.87 81.92 207.41 80.75 196.6ZM93.81 197.25C91.65 196.15 88.31 195.92 86.27 197.25C85.28 207.89 86.18 219.05 86.18 229.75C86.18 233.84 85.02 240.1 86.75 243.79C88.92 243.79 91.08 243.79 93.25 243.79C95.85 232.58 86.71 202.97 105.75 203.16C111.53 203.22 116.33 207.46 116.97 213.25C118.08 223.23 115.39 233.92 117.3 243.78C119.45 243.78 121.6 243.78 123.75 243.78C124.93 241.35 124.33 237.94 124.33 235.25C124.33 225.53 120.45 203.64 135.25 203.16C151.76 202.64 147.66 224.65 147.66 235.25C147.66 237.97 147.09 241.32 148.25 243.8C150.4 243.8 152.54 243.8 154.69 243.8C155.66 239.1 154.93 233.58 154.93 228.75C154.93 215.46 156.9 198.73 139.24 196.6C136.6 196.28 133.86 196.43 131.26 197.02C126.98 197.99 124.38 200.65 120.75 202.68C115.24 198.22 109.82 194.83 102.24 196.96C99.29 197.78 96.69 200.03 93.81 200.45C93.81 199.39 93.81 198.32 93.81 197.25ZM167.8 197.25C165.81 196.09 162.71 196.01 160.75 197.21C159.78 202.25 160.54 208.11 160.54 213.25C160.54 223.92 160.54 234.58 160.54 245.25C160.54 250.69 159.23 260.68 161.21 265.48C163.17 265.48 165.12 265.48 167.07 265.48C167.42 257.07 167.77 248.66 168.11 240.25C170.52 240.24 173.31 242.74 175.82 243.39C181.14 244.76 187.93 243.8 192.61 240.85C205.51 232.74 205.05 204.47 190.51 198.26C186.24 196.44 180.83 195.66 176.27 197C173.32 197.87 170.78 200.14 167.8 200.48C167.8 199.4 167.8 198.33 167.8 197.25ZM293.91 221.25C295 219.03 294.53 216.38 294.26 213.97C293.39 205.96 288.71 199.2 280.73 197.01C270.49 194.2 260.43 200.36 256.34 209.6C251.88 219.69 254.14 234.64 263.99 240.75C268.9 243.79 274.64 244.04 280.25 243.83C284.08 243.69 289.14 243.11 292.29 240.75C292.67 238.78 292.89 237.02 291.93 235.25C289.83 235.34 287.75 236.43 285.66 236.8C277.11 238.32 266.84 237.71 263.43 228.29C262.72 226.32 262.31 224.26 262.75 222.25C273.14 221.92 283.52 221.58 293.91 221.25ZM336.75 243.77C338.5 240.33 337.43 234.58 337.43 230.75C337.43 220.54 340.86 203.41 329.04 198.24C323.17 195.68 301.75 194.01 304.44 204.75C307.66 205.41 311.85 202.96 315.26 202.6C323.86 201.72 331.23 207.2 329.25 216.25C326.3 216.9 322.37 215.1 319.25 214.95C309.6 214.47 300.21 219.57 300.3 230.25C300.39 241.54 310.87 245.51 320.75 243.49C323.12 243 327.58 240.31 329.25 240.31C329.58 241.46 329.92 242.62 330.25 243.77C332.42 243.77 334.58 243.77 336.75 243.77ZM350.25 196.65C347.79 196.65 345.32 196.65 342.86 196.65C342.86 212.37 342.86 228.08 342.86 243.8C345.15 243.8 347.45 243.8 349.75 243.8C351.18 241.43 350.55 237.98 350.55 235.25C350.55 227.1 347.66 209.42 356.45 205.23C360.4 203.35 364.34 203.48 368.51 202.75C368.51 200.83 368.51 198.91 368.51 196.98C362.26 195.11 356.69 198.78 351.25 201.12C350.92 199.63 350.58 198.14 350.25 196.65ZM381.98 196.67C379.42 196.67 376.86 196.67 374.3 196.67C374.3 212.36 374.3 228.04 374.3 243.73C376.78 243.73 379.26 243.73 381.74 243.73C383.33 233.79 380.32 223.18 382.01 213.25C382.98 207.52 388.47 203.13 394.25 203.44C409.36 204.25 405.13 224.75 405.13 235.25C405.13 237.95 404.54 241.32 405.75 243.75C408.08 243.75 410.42 243.75 412.75 243.75C413.54 238.9 413.02 233.66 413.02 228.75C413.02 216.91 414.9 200.68 400.27 196.9C396.02 195.8 390.88 196.39 386.94 198.22C385.08 199.08 384.05 200.26 381.98 200.41C381.98 199.16 381.98 197.92 381.98 196.67ZM285.95 215.98C278.38 215.98 270.82 215.98 263.25 215.98C262.29 213.36 263.36 210.87 264.88 208.63C267.46 204.82 271.32 201.81 276.25 202.41C282.35 203.14 288.25 209.65 285.95 215.98ZM178.86 203.22C198.36 200.77 199.06 234.96 182.25 236.68C177.57 237.15 170.04 234.36 168.09 229.66C167.02 227.09 167.69 223 167.69 220.25C167.69 217.29 167.18 213.65 168.02 210.78C169.19 206.77 175.08 203.69 178.86 203.22ZM231.64 209.5C229.28 209.5 226.92 209.5 224.56 209.5C224.56 212.18 224.56 214.86 224.56 217.55C226.92 217.55 229.28 217.55 231.64 217.55C231.64 214.86 231.64 212.18 231.64 209.5ZM329.25 223.36C334.71 234.14 314.4 244.1 308.98 233.74C302.5 221.35 322.04 220.22 329.25 223.36ZM231.71 227.08C229.31 226.41 226.82 226.24 224.48 227.18C224.48 243.03 224.48 258.89 224.48 274.75C226.83 275.62 229.32 275.57 231.71 274.86C231.71 258.94 231.71 243.01 231.71 227.08Z" fill="#ffffff" fill-rule="evenodd" stroke="#ffffff" stroke-width="0.25" stroke-linejoin="round"/>
<path d="M214.72 175.24C214.72 198.09 214.72 220.94 214.72 243.79C212.4 243.79 210.07 243.79 207.75 243.79C206.46 238.54 207.37 232.16 207.37 226.75C207.37 215.58 207.37 204.42 207.37 193.25C207.37 189.1 206.17 178.38 208.25 175.24C210.41 175.24 212.56 175.24 214.72 175.24ZM80.25 182.11C81.32 184.4 81.17 187.59 80.48 190.01C78.14 190.01 75.8 190.01 73.45 190.01C73.45 187.38 73.45 184.74 73.45 182.11C75.72 182.11 77.98 182.11 80.25 182.11ZM65.49 204.25C60.03 205.17 52.42 198.88 45.62 204.84C44.03 206.23 43.1 208.09 43.32 210.25C43.8 214.88 49.35 215.4 52.86 216.33C61.15 218.54 70.82 221.88 67.74 233.01C65.19 242.23 54.6 244.27 46.25 243.85C40.84 243.58 34.7 242.83 36.25 236.09C41.29 235.53 60.43 242.63 60.4 230.25C60.38 224.55 54.75 224.07 50.49 222.74C42.34 220.22 35.45 219.21 36.16 208.75C36.3 206.67 36.95 204.6 38.06 202.82C42.05 196.38 51.77 195.66 58.44 196.77C62.73 197.48 67.92 198.75 65.49 204.25ZM80.75 196.6C81.92 207.41 80.9 218.87 80.9 229.75C80.9 233.84 82.08 240.16 80.25 243.82C77.95 243.82 75.66 243.82 73.36 243.82C73.36 228.08 73.36 212.34 73.36 196.6C75.82 196.6 78.29 196.6 80.75 196.6ZM93.81 197.25C93.81 198.32 93.81 199.39 93.81 200.45C96.69 200.03 99.29 197.78 102.24 196.96C109.82 194.83 115.24 198.22 120.75 202.68C124.38 200.65 126.98 197.99 131.26 197.02C133.86 196.43 136.6 196.28 139.24 196.6C156.9 198.73 154.93 215.46 154.93 228.75C154.93 233.58 155.66 239.1 154.69 243.8C152.54 243.8 150.4 243.8 148.25 243.8C147.09 241.32 147.66 237.97 147.66 235.25C147.66 224.65 151.76 202.64 135.25 203.16C120.45 203.64 124.33 225.53 124.33 235.25C124.33 237.94 124.93 241.35 123.75 243.78C121.6 243.78 119.45 243.78 117.3 243.78C115.39 233.92 118.08 223.23 116.97 213.25C116.33 207.46 111.53 203.22 105.75 203.16C86.71 202.97 95.85 232.58 93.25 243.79C91.08 243.79 88.92 243.79 86.75 243.79C85.02 240.1 86.18 233.84 86.18 229.75C86.18 219.05 85.28 207.89 86.27 197.25C88.31 195.92 91.65 196.15 93.81 197.25ZM167.8 197.25C167.8 198.33 167.8 199.4 167.8 200.48C170.78 200.14 173.32 197.87 176.27 197C180.83 195.66 186.24 196.44 190.51 198.26C205.05 204.47 205.51 232.74 192.61 240.85C187.93 243.8 181.14 244.76 175.82 243.39C173.31 242.74 170.52 240.24 168.11 240.25C167.77 248.66 167.42 257.07 167.07 265.48C165.12 265.48 163.17 265.48 161.21 265.48C159.23 260.68 160.54 250.69 160.54 245.25C160.54 234.58 160.54 223.92 160.54 213.25C160.54 208.11 159.78 202.25 160.75 197.21C162.71 196.01 165.81 196.09 167.8 197.25ZM178.86 203.22C175.08 203.69 169.19 206.77 168.02 210.78C167.18 213.65 167.69 217.29 167.69 220.25C167.69 223 167.02 227.09 168.09 229.66C170.04 234.36 177.57 237.15 182.25 236.68C199.06 234.96 198.36 200.77 178.86 203.22ZM231.64 209.5C231.64 212.18 231.64 214.86 231.64 217.55C229.28 217.55 226.92 217.55 224.56 217.55C224.56 214.86 224.56 212.18 224.56 209.5C226.92 209.5 229.28 209.5 231.64 209.5ZM231.71 227.08C231.71 243.01 231.71 258.94 231.71 274.86C229.32 275.57 226.83 275.62 224.48 274.75C224.48 258.89 224.48 243.03 224.48 227.18C226.82 226.24 229.31 226.41 231.71 227.08Z" fill="#f69a21" fill-rule="evenodd" stroke="#f69a21" stroke-width="0.25" stroke-linejoin="round"/>
<path d="M248.73 175.36C248.73 198.16 248.73 220.95 248.73 243.74C246.57 243.74 244.41 243.74 242.25 243.74C240.32 239.96 241.56 229.83 241.56 225.25C241.56 214.08 241.56 202.92 241.56 191.75C241.56 186.58 240.62 180.34 242 175.36C244.24 175.36 246.49 175.36 248.73 175.36ZM293.91 221.25C283.52 221.58 273.14 221.92 262.75 222.25C262.31 224.26 262.72 226.32 263.43 228.29C266.84 237.71 277.11 238.32 285.66 236.8C287.75 236.43 289.83 235.34 291.93 235.25C292.89 237.02 292.67 238.78 292.29 240.75C289.14 243.11 284.08 243.69 280.25 243.83C274.64 244.04 268.9 243.79 263.99 240.75C254.14 234.64 251.88 219.69 256.34 209.6C260.43 200.36 270.49 194.2 280.73 197.01C288.71 199.2 293.39 205.96 294.26 213.97C294.53 216.38 295 219.03 293.91 221.25ZM336.75 243.77C334.58 243.77 332.42 243.77 330.25 243.77C329.92 242.62 329.58 241.46 329.25 240.31C327.58 240.31 323.12 243 320.75 243.49C310.87 245.51 300.39 241.54 300.3 230.25C300.21 219.57 309.6 214.47 319.25 214.95C322.37 215.1 326.3 216.9 329.25 216.25C331.23 207.2 323.86 201.72 315.26 202.6C311.85 202.96 307.66 205.41 304.44 204.75C301.75 194.01 323.17 195.68 329.04 198.24C340.86 203.41 337.43 220.54 337.43 230.75C337.43 234.58 338.5 240.33 336.75 243.77ZM350.25 196.65C350.58 198.14 350.92 199.63 351.25 201.12C356.69 198.78 362.26 195.11 368.51 196.98C368.51 198.91 368.51 200.83 368.51 202.75C364.34 203.48 360.4 203.35 356.45 205.23C347.66 209.42 350.55 227.1 350.55 235.25C350.55 237.98 351.18 241.43 349.75 243.8C347.45 243.8 345.15 243.8 342.86 243.8C342.86 228.08 342.86 212.37 342.86 196.65C345.32 196.65 347.79 196.65 350.25 196.65ZM381.98 196.67C381.98 197.92 381.98 199.16 381.98 200.41C384.05 200.26 385.08 199.08 386.94 198.22C390.88 196.39 396.02 195.8 400.27 196.9C414.9 200.68 413.02 216.91 413.02 228.75C413.02 233.66 413.54 238.9 412.75 243.75C410.42 243.75 408.08 243.75 405.75 243.75C404.54 241.32 405.13 237.95 405.13 235.25C405.13 224.75 409.36 204.25 394.25 203.44C388.47 203.13 382.98 207.52 382.01 213.25C380.32 223.18 383.33 233.79 381.74 243.73C379.26 243.73 376.78 243.73 374.3 243.73C374.3 228.04 374.3 212.36 374.3 196.67C376.86 196.67 379.42 196.67 381.98 196.67ZM285.95 215.98C288.25 209.65 282.35 203.14 276.25 202.41C271.32 201.81 267.46 204.82 264.88 208.63C263.36 210.87 262.29 213.36 263.25 215.98C270.82 215.98 278.38 215.98 285.95 215.98ZM329.25 223.36C322.04 220.22 302.5 221.35 308.98 233.74C314.4 244.1 334.71 234.14 329.25 223.36Z" fill="#0b99d6" fill-rule="evenodd" stroke="#0b99d6" stroke-width="0.25" stroke-linejoin="round"/>
</svg>