<?xml version="1.0" encoding="UTF-8"?>
<svg xmlns="http://www.w3.org/2000/svg" viewBox="0 0 620 350" width="620" height="350">
<path d="M0.13 0.13C206.71 0.13 413.29 0.13 619.88 0.13C619.88 116.71 619.88 233.29 619.88 349.88C413.29 349.88 206.71 349.88 0.13 349.88C0.13 233.29 0.13 116.71 0.13 0.13ZM128.8 79.23C124.13 79.48 119.37 80.29 114.78 81.15C95.42 84.76 66.43 102.14 73.55 125.74C74.46 128.75 75.47 131.88 77.22 134.53C97.68 165.4 154.11 165.32 181.5 144.73C200.39 130.53 199.49 107.66 181.35 93.42C167.02 82.18 146.69 78.25 128.8 79.23ZM148.39 108.25C146.99 104.04 146.66 99.5 144.82 95.39C143.96 93.48 142.96 91.26 141.65 89.6C140.75 88.46 139.56 87.2 138.34 86.43C126.16 78.63 122.01 101.53 119.75 108.34C113.9 108.87 93.52 102.4 99.47 93.72C102.82 88.84 109.92 87.3 115.23 85.92C128.9 82.36 154.69 82.36 166.48 91.28C178.54 100.39 155.5 109.34 148.39 108.25ZM289.87 89.21C271.11 92.54 261.24 114.23 268.13 131.15C273.89 145.32 290.08 152.28 304.63 148.8C323.65 144.25 332.96 119.81 322.76 103.48C315.77 92.31 302.81 86.91 289.87 89.21ZM410.39 89.21C377.99 95.93 378.77 144.68 411.68 149.2C416.1 149.8 420.28 149.87 424.67 148.83C441.55 144.84 451.3 125.49 445.85 109.36C442.52 99.52 434.55 92.93 424.96 89.76C420.63 88.33 414.87 88.29 410.39 89.21ZM262.44 90.84C246.19 90.84 229.93 90.84 213.67 90.84C213.67 94.14 213.67 97.45 213.67 100.75C219.53 101.09 225.39 101.43 231.25 101.77C233.07 108.95 231.62 127.34 231.66 135.75C231.68 139.64 230.69 144.84 232.25 148.42C236.09 148.42 239.94 148.42 243.78 148.42C245.36 145.34 244.46 140.68 244.47 137.25C244.51 129.08 244.49 120.92 244.49 112.75C244.49 109.42 243.68 104.8 244.99 101.75C250.81 101.44 256.62 101.13 262.44 100.81C262.44 97.49 262.44 94.16 262.44 90.84ZM342.75 90.86C337.86 90.86 332.97 90.86 328.08 90.86C328.92 93.86 331.4 96.94 333.2 99.57C336.46 104.33 339.34 109.48 342.33 114.42C344.58 118.15 348.17 121.91 349.76 125.95C351.36 130.03 349.54 142.97 350.25 148.4C354.42 148.4 358.58 148.4 362.75 148.4C364.31 141.63 361.4 132.9 363.27 126.48C364.02 123.9 366.48 120.92 368.01 118.74C372.37 112.54 376.12 105.8 380.12 99.36C381.82 96.62 384.2 93.95 385.03 90.86C380.12 90.86 375.2 90.86 370.29 90.86C365.78 98.63 361.26 106.41 356.75 114.18C352.08 106.41 347.42 98.64 342.75 90.86ZM500.05 90.84C483.76 90.84 467.48 90.84 451.2 90.84C451.2 94.14 451.2 97.45 451.2 100.75C457.11 101.08 463.03 101.42 468.94 101.75C470.5 111.94 469.15 124.31 469.17 134.75C469.18 138.86 468.11 144.63 469.75 148.41C473.87 148.41 477.98 148.41 482.1 148.41C482.1 132.7 482.1 116.99 482.1 101.29C488.08 101.29 494.06 101.29 500.05 101.29C500.05 97.8 500.05 94.32 500.05 90.84ZM519.25 90.87C518.07 95.18 515.74 99.18 514.11 103.33C510.47 112.61 506.67 121.89 502.8 131.07C501 135.33 495.99 144.22 496.25 148.43C500.92 148.43 505.58 148.43 510.25 148.43C512.08 144.24 513.92 140.05 515.75 135.86C518.72 134.53 536.28 134.55 539.25 135.88C541.08 140.06 542.92 144.24 544.75 148.42C549.42 148.42 554.08 148.42 558.75 148.42C551.06 129.24 543.38 110.05 535.69 90.87C530.21 90.87 524.73 90.87 519.25 90.87ZM142.25 108.79C138.72 110.87 130.18 110.19 126.25 109.16C125.49 105.36 129.17 94.08 134.24 94.25C139.04 94.42 142.44 105 142.25 108.79ZM87.75 100.24C90.87 109.44 100.18 114.18 109.05 116.72C112.29 117.64 115.75 117.91 118.88 119.25C119.78 127.15 119.64 134.96 122.18 142.62C123.07 145.29 124.32 148.45 125.98 150.75C126.98 152.12 128.35 153.18 128.88 154.75C125.13 155.32 121.24 154.01 117.6 153.22C103.22 150.08 88.89 141.83 83.01 127.76C80.34 121.35 80.53 103.56 87.75 100.24ZM180.75 100.15C187.82 105.76 188.43 120.26 185.21 127.9C179.41 141.68 165.04 150.26 150.84 153.18C147.12 153.95 143.07 155.39 139.25 154.75C139.97 153.06 141.6 151.93 142.58 150.34C143.85 148.29 144.94 145.83 145.77 143.57C148.71 135.61 148.09 127.44 149.34 119.25C157.38 116.11 166.73 115.74 173.63 109.88C175.45 108.33 177.58 106.66 178.77 104.55C179.56 103.14 179.72 101.26 180.75 100.15ZM293.33 100.16C315.38 94.72 322.28 136.15 297.25 138.54C276.5 140.52 272.61 105.26 293.33 100.16ZM413.4 100.21C436.42 94.59 441.93 136.07 418.25 138.55C397.06 140.77 392.89 105.23 413.4 100.21ZM527.25 105.47C529.68 107.87 534.84 122.07 534.87 125.62C530 125.62 525.12 125.62 520.25 125.62C519.52 121.89 525.4 109.4 527.25 105.47ZM142.77 119.9C143.63 121.32 143.07 123.53 142.91 125.25C142.52 129.48 139.98 142.53 134.25 142.65C127.34 142.8 124.43 124.73 125.25 119.9C131.09 119.9 136.93 119.9 142.77 119.9ZM249.3 167.2C218.57 171.07 215.46 220.69 244.4 229.79C249.22 231.31 254.7 231.64 259.69 230.82C283.72 226.89 291.58 194.55 276.8 176.94C270.1 168.96 259.44 165.92 249.3 167.2ZM466.25 185.86C467.42 178.97 462.03 172.39 456.14 169.61C445.51 164.58 427.09 165.75 422.21 178.41C421.02 181.52 420.86 184.78 421.76 187.96C425.19 200.15 439.84 200.19 449.74 203.53C454.48 205.12 460.67 207.06 460.5 213.25C460.27 221.64 450.54 224.13 443.75 223.9C432.87 223.53 429.29 218.58 426.57 209.11C424.13 209.11 421.69 209.11 419.25 209.11C417.76 216.76 423.62 224.72 430.13 228.13C441.35 234 460.55 232.58 466.78 220.06C468.31 216.97 468.72 213.45 468.24 210.05C466.54 198.03 452.61 195.22 442.73 193.12C437.83 192.08 429.6 190.58 429.18 184.23C428.49 173.9 443.64 172.89 450.56 175.24C456.01 177.08 456.95 181.11 458.83 185.86C461.3 185.86 463.78 185.86 466.25 185.86ZM81.04 167.95C78.34 167.95 75.64 167.95 72.94 167.95C72.05 172.66 72.69 177.96 72.69 182.75C72.69 192.75 72.69 202.75 72.69 212.75C72.69 216.93 71.52 226.84 73.25 230.21C75.85 230.21 78.44 230.21 81.04 230.21C81.04 209.46 81.04 188.71 81.04 167.95ZM105.97 167.98C103.05 167.98 100.12 167.98 97.19 167.98C97.19 188.71 97.19 209.44 97.19 230.18C99.71 230.18 102.23 230.18 104.75 230.18C105.8 226.72 105.17 222.39 105.17 218.75C105.18 210.92 105.17 203.08 105.17 195.25C105.17 191.94 103.92 184.92 105.75 182.36C109.12 185.51 111.46 190.82 114.1 194.66C119.75 202.86 125.22 211.21 130.74 219.49C135.39 226.46 136.38 232.52 146.43 229.75C146.43 209.16 146.43 188.57 146.43 167.98C143.78 167.98 141.13 167.98 138.48 167.98C138.48 183.89 138.48 199.79 138.48 215.7C127.65 199.79 116.81 183.88 105.97 167.98ZM162.09 168.24C162.09 188.78 162.09 209.31 162.09 229.85C166.21 230.8 171 230.28 175.25 230.28C184.96 230.26 196.03 231.38 203.97 224.71C217.73 213.16 217.46 180.97 201.39 171.36C193.79 166.81 184.24 167.9 175.75 167.9C171.3 167.9 166.44 167.37 162.09 168.24ZM305.23 167.96C302.35 167.96 299.48 167.96 296.6 167.96C296.6 188.7 296.6 209.44 296.6 230.18C299.25 230.18 301.9 230.18 304.56 230.18C304.56 214.26 304.56 198.34 304.56 182.42C307.64 183.77 310.31 190.07 312.28 193C318.16 201.76 323.87 210.68 329.91 219.34C334.2 225.49 336.56 233.4 345.82 229.75C345.82 209.16 345.82 188.57 345.82 167.98C343.16 167.98 340.5 167.98 337.84 167.98C337.84 183.9 337.84 199.83 337.84 215.75C326.97 199.82 316.1 183.89 305.23 167.96ZM406.77 167.91C391.8 167.91 376.83 167.91 361.86 167.91C360.88 172.73 361.62 178.33 361.62 183.25C361.62 193.42 361.62 203.58 361.62 213.75C361.62 217.54 360.52 227.41 362.25 230.27C377.52 230.27 392.79 230.27 408.06 230.27C408.06 227.85 408.06 225.43 408.06 223.01C395.35 223.01 382.64 223.01 369.93 223.01C369.93 215.9 369.93 208.8 369.93 201.69C381.39 201.69 392.85 201.69 404.3 201.69C404.3 199.38 404.3 197.06 404.3 194.75C392.85 194.49 381.4 194.24 369.94 193.98C369.94 187.71 369.94 181.43 369.94 175.15C382.22 175.15 394.49 175.15 406.77 175.15C406.77 172.74 406.77 170.33 406.77 167.91ZM491.54 167.98C488.75 167.98 485.96 167.98 483.18 167.98C483.18 188.72 483.18 209.46 483.18 230.19C485.96 230.19 488.75 230.19 491.54 230.19C491.54 209.46 491.54 188.72 491.54 167.98ZM533.75 167.94C530.8 167.94 527.85 167.94 524.9 167.94C517.02 188.7 509.13 209.46 501.25 230.22C504.08 230.22 506.92 230.22 509.75 230.22C512.08 223.76 514.42 217.31 516.75 210.85C525.4 210.85 534.06 210.85 542.71 210.85C545.22 217.3 547.74 223.74 550.25 230.19C553.25 230.19 556.25 230.19 559.25 230.19C550.75 209.44 542.25 188.69 533.75 167.94ZM253.37 174.23C281.37 172.78 283.54 222.09 256.25 223.86C226.09 225.82 224.4 175.74 253.37 174.23ZM170.41 222.75C170.41 207 170.41 191.25 170.41 175.5C176.62 173.97 192.16 174.3 197.43 178.32C207.51 186.03 208.36 211.93 197.83 219.58C191.66 224.05 177.67 223.96 170.41 222.75ZM529.25 175.69C532.58 185.09 535.92 194.48 539.25 203.88C532.75 203.88 526.25 203.88 519.75 203.88C522.92 194.48 526.08 185.09 529.25 175.69ZM558.36 238.73C554.27 236.86 537.72 238.18 532.25 238.18C511.08 238.18 489.92 238.18 468.75 238.18C394.58 238.18 320.42 238.01 246.25 238.18C207.58 238.26 168.92 238.18 130.25 238.18C115.42 238.18 100.58 238.18 85.75 238.18C83.98 238.18 73.53 237.74 72.79 238.53C71.95 239.42 72.45 240.29 72.72 241.25C76.34 242.09 80.53 241.54 84.25 241.54C92.58 241.54 100.92 241.54 109.25 241.54C134.58 241.54 159.92 241.54 185.25 241.54C265.92 241.54 346.58 241.54 427.25 241.54C458.25 241.54 489.25 241.54 520.25 241.54C529.08 241.54 537.92 241.54 546.75 241.54C550.25 241.54 555.17 242.42 558.36 240.98C558.36 240.23 558.36 239.48 558.36 238.73ZM75.25 262.98C78.18 262.29 82 263.54 84.47 261.24C85.78 260.02 86.21 258.51 86.16 256.75C85.97 250.63 76.67 250.81 72.49 252.25C71.95 256.27 72.29 260.66 72.3 264.75C72.31 265.84 71.81 268.32 72.46 269.24C72.95 269.95 73.48 269.81 74.25 269.91C74.58 267.6 74.92 265.29 75.25 262.98ZM102.85 252.75C101.55 251.19 89.94 251.32 88.41 252.75C89.43 254.72 91.98 253.87 93.99 254.25C94.28 259.42 94.58 264.58 94.87 269.75C95.48 269.78 96.23 270.07 96.67 269.45C97.93 267.67 96.58 257.25 97.16 254.25C99.08 253.85 102.01 254.79 102.85 252.75ZM125.08 252.75C123.62 251.22 112.39 251.26 110.85 252.75C111.81 254.77 114.41 253.86 116.47 254.25C117.56 257.47 115.4 269.06 118.25 269.96C120.55 267.75 118.33 257.88 119.42 254.25C121.45 253.91 124.2 254.76 125.08 252.75ZM206.25 265.88C202.61 263.33 204.28 249.77 197.63 252.25C197.11 254.92 196.7 268.39 198.25 269.89C201.95 268.89 198.02 258.65 200.25 256.19C202.52 259.03 202.59 269.78 206.75 269.83C208.42 265.3 210.08 260.77 211.75 256.24C214.01 259.25 209.4 269.92 214.52 269.75C214.52 263.92 214.52 258.08 214.52 252.25C208.35 250.28 209.17 262.54 206.25 265.88ZM272.25 251.92C271.84 256.12 272.16 260.52 272.15 264.75C272.15 265.93 271.66 268.4 272.37 269.4C272.8 270.01 273.39 269.77 273.99 269.75C274.24 265.19 274.5 260.62 274.75 256.06C277.5 258.85 277.25 269.31 281.25 269.92C283.08 265.34 284.92 260.75 286.75 256.17C287.67 259.51 285.82 267.74 287.75 269.91C288.43 269.73 288.76 269.96 289.12 269.22C290.12 267.23 289.5 254.77 289.15 252.25C282.69 250.17 284.42 263.44 280.75 265.89C279.08 261.23 277.42 256.57 275.75 251.92C274.58 251.92 273.42 251.92 272.25 251.92ZM343.21 252.75C339.18 249.16 338.73 253.78 337.69 255.94C337.36 256.61 336.35 257.14 335.87 257.75C336.32 258.78 337.44 258.95 337.75 259.89C338.63 262.55 336.02 269 339.25 269.93C341.44 267.49 338.96 262.76 340.06 259.78C340.46 258.7 341.92 258.98 342.52 257.75C341.7 257.25 340.89 256.75 340.08 256.25C340.28 253.54 342.2 254.74 343.21 252.75ZM448.25 251.79C447.78 252.01 447.43 251.84 447.08 252.34C446.52 253.17 446.92 255.28 446.92 256.25C446.92 259.08 446.11 268.32 447.75 269.96C448.45 269.75 448.73 269.94 449.12 269.22C450.04 267.53 449.27 258.93 449.26 256.75C449.26 255.79 449.7 253.34 449.21 252.53C448.93 252.08 448.64 252.09 448.25 251.79ZM478.25 251.77C476.06 252.8 477.07 255.23 476.75 257.43C475.39 257.09 473.87 255.93 472.4 256.23C463.95 258 468.3 274.36 476.25 268.64C476.92 269.09 477.58 269.54 478.25 269.99C479.59 268.57 479.51 253.39 478.25 251.77ZM170.06 252.74C167.55 253.25 168.63 254.15 167.82 256.13C167.41 257.14 166.52 257.04 166.25 258.22C166.83 258.73 167.41 259.24 167.99 259.75C167.99 262.73 167.99 265.71 167.99 268.69C169.55 269.63 170.83 270.53 172.48 269.25C171.7 268.46 170.93 267.67 170.15 266.88C170.15 264.43 170.15 261.98 170.15 259.54C170.89 259.11 171.63 258.68 172.37 258.25C171.98 256.89 171.3 256.88 170.06 256.25C170.06 255.08 170.06 253.91 170.06 252.74ZM235.25 252.68C233.77 253.35 233.01 256.22 231.99 257.75C232.4 258.85 233.38 259.12 233.66 260.25C234.53 263.7 231.66 270.9 237.83 269.75C237.98 267.48 236.64 268.44 236.04 266.72C235.6 265.48 235.36 260.5 236.16 259.41C236.84 258.5 237.54 258.99 238.11 257.75C237.61 257.26 236.65 257.01 236.26 256.52C235.32 255.34 236.36 253.8 235.25 252.68ZM374.25 252.6C373.17 254.32 372.09 256.03 371.01 257.75C371.63 258.42 372.24 259.08 372.85 259.75C372.85 262.82 372.85 265.9 372.85 268.97C374.19 269.23 375.54 269.49 376.88 269.75C377.06 267.51 375.71 268.4 375.1 266.68C374.67 265.46 374.45 260.51 375.22 259.44C375.54 259 376.68 258.64 377.15 258.25C376.65 257.03 375.6 257.15 375.15 256.15C374.53 254.77 375.35 253.7 374.25 252.6ZM75.01 260.13C75.01 258.17 75.01 256.21 75.01 254.25C77.66 253.76 83.86 253.04 83.85 257.25C83.84 261.21 77.5 260.55 75.01 260.13ZM129.84 256.23C121.76 257.23 122.85 270.91 131.24 269.92C138.98 269 137.84 255.24 129.84 256.23ZM157.81 256.22C149.46 256.95 150.66 270.95 159.24 269.91C166.77 269 165.64 255.54 157.81 256.22ZM185.75 269.86C186.5 267.39 186.88 259.07 184.51 257.26C181.96 255.31 174.79 256.13 175.29 260.25C177.91 261.57 180.01 255.81 183.72 260.25C181.74 263.27 174.47 260.93 174.59 266.24C174.7 271.25 180.42 269.74 183.25 268.71C184.08 269.09 184.92 269.47 185.75 269.86ZM223.31 256.21C215.05 256.99 216.5 271.47 225.22 269.86C232.66 268.48 231.09 255.47 223.31 256.21ZM245.38 256.22C237.21 257.56 239.1 271.69 247.69 269.85C255.03 268.27 253.25 254.93 245.38 256.22ZM262.13 258.25C262.52 255.07 257.39 257.13 255.75 257.18C255.2 259.4 254.92 269.1 256.75 269.92C259.32 268.57 257.23 262.93 258.13 260.34C258.8 258.39 260.85 259.06 262.13 258.25ZM304.02 269.75C305 266.33 304.83 256.99 300.1 256.24C297.88 255.89 291.19 257.83 294.13 260.75C296.47 260.25 300.29 256.16 301.79 260.75C299.23 263.12 292.71 261.07 292.74 266.28C292.76 271.11 298.47 269.88 301.23 268.75C302.16 269.08 303.09 269.42 304.02 269.75ZM317.25 269.92C319.95 269.09 319.46 259.3 317.33 257.43C314.64 255.06 313.3 257.4 310.7 257.47C309.89 257.49 309.16 257.02 308.25 257.03C307.72 259.38 307.22 269.21 309.25 269.97C311.85 267.57 307.38 255.94 315.53 259.25C317.09 262.27 314.76 267.74 317.25 269.92ZM355.75 269.75C356.07 267.61 355.8 258.42 354.05 257.22C351.33 255.34 344.26 256.11 345.25 260.44C347.77 260.39 350.97 256.48 353.15 260.25C351.46 263.43 344.67 260.88 344.15 265.78C343.6 270.94 349.96 269.86 352.75 268.81C353.75 269.12 354.75 269.44 355.75 269.75ZM369.25 259.82C368.66 256.02 363.75 255.55 360.98 257.25C358.78 258.59 358.26 261.93 358.51 264.25C358.85 267.39 360.94 269.9 364.25 269.94C366.73 269.97 370.21 268.05 369.1 265.25C367.2 265.22 360.46 272.2 360.79 262.75C361.06 254.92 367.25 261.37 369.25 259.82ZM401.5 257.75C400.05 255.38 397.1 257 394.81 257.25C394.61 258.76 394.14 268.31 394.85 269.4C395.31 270.1 395.97 269.78 396.64 269.75C397.69 266.24 395.36 261.24 398.75 258.79C400.12 258.67 400.63 258.93 401.5 257.75ZM418.02 269.75C418.7 269.78 419.34 270.09 419.94 269.62C420.67 269.05 420.15 258.95 419.64 258.09C417.63 254.65 413.25 257.51 410.25 256.95C409.68 257.99 409.34 268.75 410.09 269.59C410.43 269.98 410.82 269.79 411.25 269.91C413.59 267.33 409.08 254.73 418.02 259.75C418.02 263.08 418.02 266.42 418.02 269.75ZM434.75 257.03C432.07 256.98 428.89 255.53 426.33 257.06C422.49 259.36 422.49 266.68 426.19 269.06C428.63 270.63 430.35 269.17 432.75 269.25C432.78 275.31 426.51 270.96 424.11 271.25C424.38 275.65 431.36 276.22 433.77 273.03C436.29 269.7 435.44 260.96 434.75 257.03ZM464.18 269.75C465.7 266.2 465.74 257.33 460.92 256.29C459.1 255.9 458.23 257.44 456.69 257.51C455.96 257.55 455.09 257.02 454.25 256.98C453.68 259.28 453.32 268.52 454.75 269.96C457.93 268.87 453.48 254.63 461.75 259.53C462.57 262.24 460.64 269.9 464.18 269.75ZM487.9 256.23C479.85 257.36 480.82 270.85 489.25 269.94C497.04 269.1 495.82 255.13 487.9 256.23ZM506.03 269.75C506.72 269.78 507.35 270.1 507.95 269.64C508.68 269.1 508.26 259.12 507.65 258.09C505.62 254.66 501.18 257.47 498.25 256.94C497.41 259.33 497 269.28 499.25 269.94C501.63 267.33 497.06 254.74 506.03 259.75C506.03 263.08 506.03 266.42 506.03 269.75ZM523.25 263.6C524.51 256.86 514.74 252.96 512.17 259.87C511.15 262.63 511.49 266.89 514 268.74C517.04 270.99 522.21 270.15 523.15 266.25C521.17 265.02 513.84 271.46 514.25 263.6C517.25 263.6 520.25 263.6 523.25 263.6ZM535.62 259.75C536.25 255.42 527.48 255.14 526.16 258.87C524.35 263.98 531.84 263.59 534.03 265.75C532.47 270.28 528.88 265.79 526.52 265.75C524.14 270.02 534.05 271.88 536.03 267.24C538.54 261.39 529.65 262.81 528.14 259.75C530.63 257.07 532.98 260.34 535.62 259.75ZM556.75 269.82C557.49 266.08 557.6 257.28 552.95 256.29C550.51 255.76 544.52 257.53 546.75 260.68C549.06 260.75 552.05 256.08 554.33 260.25C552.81 263.6 545.79 260.7 545.35 265.75C544.86 271.38 551.3 269.56 554.25 268.72C555.08 269.09 555.92 269.45 556.75 269.82ZM139.75 256.84C137.32 259.73 145.05 267.6 142.71 271.48C142.03 272.6 140.49 272.66 139.46 273.25C140.22 275.46 142.36 275.35 143.82 273.59C146.22 270.68 146.94 265.88 148.22 262.41C148.64 261.3 150.22 258.96 149.98 257.77C149.84 257.08 149.61 257.29 149.25 256.82C146.73 257.93 145.68 263.51 144.75 266.17C142.58 263.78 142.81 258.2 139.75 256.84ZM323.75 256.83C320.98 258.43 321.41 275.07 330.25 268.5C330.92 268.99 331.58 269.47 332.25 269.96C333.6 268.64 333.84 257.78 331.75 256.8C330.13 258.76 332.42 271.98 325.25 266.57C324.58 263.96 326.09 258.15 323.75 256.83ZM381.25 256.83C378.95 257.98 379.16 268.33 382.59 269.67C386.14 271.06 386.43 267.74 389.75 269.92C391.15 268.5 391.37 257.79 389.25 256.86C386 259.43 391.28 268.67 383.75 267.38C380.46 264.6 383.89 259.59 381.25 256.83ZM404.25 256.89C402.65 257.97 402.42 269.2 404.75 269.88C405.6 269.06 406.2 258.44 405.43 257.37C405.1 256.92 404.69 257.07 404.25 256.89ZM540.75 256.83C539.19 258.13 538.85 269.29 541.25 269.92C541.97 269.1 542.53 258.43 541.85 257.36C541.54 256.86 541.2 257.05 540.75 256.83ZM129.87 258.71C135.38 258 135.76 267.16 130.54 267.74C125.74 268.28 125.1 259.33 129.87 258.71ZM157.82 258.68C163.33 258.13 163.51 267.61 158.21 267.77C153.37 267.92 153 259.15 157.82 258.68ZM223.39 258.71C228.82 257.99 229.37 267.31 224.25 267.68C219.17 268.04 218.44 259.37 223.39 258.71ZM245.83 258.68C251.38 258.13 251.53 267.68 246.21 267.77C241.44 267.85 241.05 259.15 245.83 258.68ZM428.86 258.71C433.92 258.11 434.36 267.05 429.51 267.74C424.91 268.39 424.24 259.26 428.86 258.71ZM473.75 267.77C470 266.62 467.75 259.49 472.92 258.75C478.37 257.96 478.01 266.19 473.75 267.77ZM487.9 258.73C493.3 257.97 493.82 267.21 488.75 267.63C483.71 268.04 483.1 259.4 487.9 258.73ZM520.97 261.1C518.69 261.1 516.41 261.1 514.14 261.1C515.34 257.92 519.88 257.73 520.97 261.1ZM183.62 264.25C182.88 267.33 179.22 269.14 177 266.25C177.84 263.75 181.35 263.77 183.62 264.25ZM301.79 264.25C301.24 267.5 297.23 268.97 295.07 266.25C295.84 263.88 299.64 263.64 301.79 264.25ZM353.11 264.25C352.71 267.34 348.77 269.17 346.73 266.25C347.55 263.77 350.97 263.82 353.11 264.25ZM554.29 264.25C553.87 267.63 548.18 269.47 548.03 265.25C549.87 264.15 552.22 263.65 554.29 264.25Z" fill="#feffff" fill-rule="evenodd" stroke="#feffff" stroke-width="0.25" stroke-linejoin="round"/>
<path d="M249.3 167.2C259.44 165.92 270.1 168.96 276.8 176.94C291.58 194.55 283.72 226.89 259.69 230.82C254.7 231.64 249.22 231.31 244.4 229.79C215.46 220.69 218.57 171.07 249.3 167.2ZM466.25 185.86C463.78 185.86 461.3 185.86 458.83 185.86C456.95 181.11 456.01 177.08 450.56 175.24C443.64 172.89 428.49 173.9 429.18 184.23C429.6 190.58 437.83 192.08 442.73 193.12C452.61 195.22 466.54 198.03 468.24 210.05C468.72 213.45 468.31 216.97 466.78 220.06C460.55 232.58 441.35 234 430.13 228.13C423.62 224.72 417.76 216.76 419.25 209.11C421.69 209.11 424.13 209.11 426.57 209.11C429.29 218.58 432.87 223.53 443.75 223.9C450.54 224.13 460.27 221.64 460.5 213.25C460.67 207.06 454.48 205.12 449.74 203.53C439.84 200.19 425.19 200.15 421.76 187.96C420.86 184.78 421.02 181.52 422.21 178.41C427.09 165.75 445.51 164.58 456.14 169.61C462.03 172.39 467.42 178.97 466.25 185.86ZM81.04 167.95C81.04 188.71 81.04 209.46 81.04 230.21C78.44 230.21 75.85 230.21 73.25 230.21C71.52 226.84 72.69 216.93 72.69 212.75C72.69 202.75 72.69 192.75 72.69 182.75C72.69 177.96 72.05 172.66 72.94 167.95C75.64 167.95 78.34 167.95 81.04 167.95ZM105.97 167.98C116.81 183.88 127.65 199.79 138.48 215.7C138.48 199.79 138.48 183.89 138.48 167.98C141.13 167.98 143.78 167.98 146.43 167.98C146.43 188.57 146.43 209.16 146.43 229.75C136.38 232.52 135.39 226.46 130.74 219.49C125.22 211.21 119.75 202.86 114.1 194.66C111.46 190.82 109.12 185.51 105.75 182.36C103.92 184.92 105.17 191.94 105.17 195.25C105.17 203.08 105.18 210.92 105.17 218.75C105.17 222.39 105.8 226.72 104.75 230.18C102.23 230.18 99.71 230.18 97.19 230.18C97.19 209.44 97.19 188.71 97.19 167.98C100.12 167.98 103.05 167.98 105.97 167.98ZM162.09 168.24C166.44 167.37 171.3 167.9 175.75 167.9C184.24 167.9 193.79 166.81 201.39 171.36C217.46 180.97 217.73 213.16 203.97 224.71C196.03 231.38 184.96 230.26 175.25 230.28C171 230.28 166.21 230.8 162.09 229.85C162.09 209.31 162.09 188.78 162.09 168.24ZM305.23 167.96C316.1 183.89 326.97 199.82 337.84 215.75C337.84 199.83 337.84 183.9 337.84 167.98C340.5 167.98 343.16 167.98 345.82 167.98C345.82 188.57 345.82 209.16 345.82 229.75C336.56 233.4 334.2 225.49 329.91 219.34C323.87 210.68 318.16 201.76 312.28 193C310.31 190.07 307.64 183.77 304.56 182.42C304.56 198.34 304.56 214.26 304.56 230.18C301.9 230.18 299.25 230.18 296.6 230.18C296.6 209.44 296.6 188.7 296.6 167.96C299.48 167.96 302.35 167.96 305.23 167.96ZM406.77 167.91C406.77 170.33 406.77 172.74 406.77 175.15C394.49 175.15 382.22 175.15 369.94 175.15C369.94 181.43 369.94 187.71 369.94 193.98C381.4 194.24 392.85 194.49 404.3 194.75C404.3 197.06 404.3 199.38 404.3 201.69C392.85 201.69 381.39 201.69 369.93 201.69C369.93 208.8 369.93 215.9 369.93 223.01C382.64 223.01 395.35 223.01 408.06 223.01C408.06 225.43 408.06 227.85 408.06 230.27C392.79 230.27 377.52 230.27 362.25 230.27C360.52 227.41 361.62 217.54 361.62 213.75C361.62 203.58 361.62 193.42 361.62 183.25C361.62 178.33 360.88 172.73 361.86 167.91C376.83 167.91 391.8 167.91 406.77 167.91ZM491.54 167.98C491.54 188.72 491.54 209.46 491.54 230.19C488.75 230.19 485.96 230.19 483.18 230.19C483.18 209.46 483.18 188.72 483.18 167.98C485.96 167.98 488.75 167.98 491.54 167.98ZM533.75 167.94C542.25 188.69 550.75 209.44 559.25 230.19C556.25 230.19 553.25 230.19 550.25 230.19C547.74 223.74 545.22 217.3 542.71 210.85C534.06 210.85 525.4 210.85 516.75 210.85C514.42 217.31 512.08 223.76 509.75 230.22C506.92 230.22 504.08 230.22 501.25 230.22C509.13 209.46 517.02 188.7 524.9 167.94C527.85 167.94 530.8 167.94 533.75 167.94ZM253.37 174.23C224.4 175.74 226.09 225.82 256.25 223.86C283.54 222.09 281.37 172.78 253.37 174.23ZM170.41 222.75C177.67 223.96 191.66 224.05 197.83 219.58C208.36 211.93 207.51 186.03 197.43 178.32C192.16 174.3 176.62 173.97 170.41 175.5C170.41 191.25 170.41 207 170.41 222.75ZM529.25 175.69C526.08 185.09 522.92 194.48 519.75 203.88C526.25 203.88 532.75 203.88 539.25 203.88C535.92 194.48 532.58 185.09 529.25 175.69ZM558.36 238.73C558.36 239.48 558.36 240.23 558.36 240.98C555.17 242.42 550.25 241.54 546.75 241.54C537.92 241.54 529.08 241.54 520.25 241.54C489.25 241.54 458.25 241.54 427.25 241.54C346.58 241.54 265.92 241.54 185.25 241.54C159.92 241.54 134.58 241.54 109.25 241.54C100.92 241.54 92.58 241.54 84.25 241.54C80.53 241.54 76.34 242.09 72.72 241.25C72.45 240.29 71.95 239.42 72.79 238.53C73.53 237.74 83.98 238.18 85.75 238.18C100.58 238.18 115.42 238.18 130.25 238.18C168.92 238.18 207.58 238.26 246.25 238.18C320.42 238.01 394.58 238.18 468.75 238.18C489.92 238.18 511.08 238.18 532.25 238.18C537.72 238.18 554.27 236.86 558.36 238.73ZM75.25 262.98C74.92 265.29 74.58 267.6 74.25 269.91C73.48 269.81 72.95 269.95 72.46 269.24C71.81 268.32 72.31 265.84 72.3 264.75C72.29 260.66 71.95 256.27 72.49 252.25C76.67 250.81 85.97 250.63 86.16 256.75C86.21 258.51 85.78 260.02 84.47 261.24C82 263.54 78.18 262.29 75.25 262.98ZM102.85 252.75C102.01 254.79 99.08 253.85 97.16 254.25C96.58 257.25 97.93 267.67 96.67 269.45C96.23 270.07 95.48 269.78 94.87 269.75C94.58 264.58 94.28 259.42 93.99 254.25C91.98 253.87 89.43 254.72 88.41 252.75C89.94 251.32 101.55 251.19 102.85 252.75ZM125.08 252.75C124.2 254.76 121.45 253.91 119.42 254.25C118.33 257.88 120.55 267.75 118.25 269.96C115.4 269.06 117.56 257.47 116.47 254.25C114.41 253.86 111.81 254.77 110.85 252.75C112.39 251.26 123.62 251.22 125.08 252.75ZM206.25 265.88C209.17 262.54 208.35 250.28 214.52 252.25C214.52 258.08 214.52 263.92 214.52 269.75C209.4 269.92 214.01 259.25 211.75 256.24C210.08 260.77 208.42 265.3 206.75 269.83C202.59 269.78 202.52 259.03 200.25 256.19C198.02 258.65 201.95 268.89 198.25 269.89C196.7 268.39 197.11 254.92 197.63 252.25C204.28 249.77 202.61 263.33 206.25 265.88ZM272.25 251.92C273.42 251.92 274.58 251.92 275.75 251.92C277.42 256.57 279.08 261.23 280.75 265.89C284.42 263.44 282.69 250.17 289.15 252.25C289.5 254.77 290.12 267.23 289.12 269.22C288.76 269.96 288.43 269.73 287.75 269.91C285.82 267.74 287.67 259.51 286.75 256.17C284.92 260.75 283.08 265.34 281.25 269.92C277.25 269.31 277.5 258.85 274.75 256.06C274.5 260.62 274.24 265.19 273.99 269.75C273.39 269.77 272.8 270.01 272.37 269.4C271.66 268.4 272.15 265.93 272.15 264.75C272.16 260.52 271.84 256.12 272.25 251.92ZM343.21 252.75C342.2 254.74 340.28 253.54 340.08 256.25C340.89 256.75 341.7 257.25 342.52 257.75C341.92 258.98 340.46 258.7 340.06 259.78C338.96 262.76 341.44 267.49 339.25 269.93C336.02 269 338.63 262.55 337.75 259.89C337.44 258.95 336.32 258.78 335.87 257.75C336.35 257.14 337.36 256.61 337.69 255.94C338.73 253.78 339.18 249.16 343.21 252.75ZM448.25 251.79C448.64 252.09 448.93 252.08 449.21 252.53C449.7 253.34 449.26 255.79 449.26 256.75C449.27 258.93 450.04 267.53 449.12 269.22C448.73 269.94 448.45 269.75 447.75 269.96C446.11 268.32 446.92 259.08 446.92 256.25C446.92 255.28 446.52 253.17 447.08 252.34C447.43 251.84 447.78 252.01 448.25 251.79ZM478.25 251.77C479.51 253.39 479.59 268.57 478.25 269.99C477.58 269.54 476.92 269.09 476.25 268.64C468.3 274.36 463.95 258 472.4 256.23C473.87 255.93 475.39 257.09 476.75 257.43C477.07 255.23 476.06 252.8 478.25 251.77ZM170.06 252.74C170.06 253.91 170.06 255.08 170.06 256.25C171.3 256.88 171.98 256.89 172.37 258.25C171.63 258.68 170.89 259.11 170.15 259.54C170.15 261.98 170.15 264.43 170.15 266.88C170.93 267.67 171.7 268.46 172.48 269.25C170.83 270.53 169.55 269.63 167.99 268.69C167.99 265.71 167.99 262.73 167.99 259.75C167.41 259.24 166.83 258.73 166.25 258.22C166.52 257.04 167.41 257.14 167.82 256.13C168.63 254.15 167.55 253.25 170.06 252.74ZM235.25 252.68C236.36 253.8 235.32 255.34 236.26 256.52C236.65 257.01 237.61 257.26 238.11 257.75C237.54 258.99 236.84 258.5 236.16 259.41C235.36 260.5 235.6 265.48 236.04 266.72C236.64 268.44 237.98 267.48 237.83 269.75C231.66 270.9 234.53 263.7 233.66 260.25C233.38 259.12 232.4 258.85 231.99 257.75C233.01 256.22 233.77 253.35 235.25 252.68ZM374.25 252.6C375.35 253.7 374.53 254.77 375.15 256.15C375.6 257.15 376.65 257.03 377.15 258.25C376.68 258.64 375.54 259 375.22 259.44C374.45 260.51 374.67 265.46 375.1 266.68C375.71 268.4 377.06 267.51 376.88 269.75C375.54 269.49 374.19 269.23 372.85 268.97C372.85 265.9 372.85 262.82 372.85 259.75C372.24 259.08 371.63 258.42 371.01 257.75C372.09 256.03 373.17 254.32 374.25 252.6ZM75.01 260.13C77.5 260.55 83.84 261.21 83.85 257.25C83.86 253.04 77.66 253.76 75.01 254.25C75.01 256.21 75.01 258.17 75.01 260.13ZM129.84 256.23C137.84 255.24 138.98 269 131.24 269.92C122.85 270.91 121.76 257.23 129.84 256.23ZM157.81 256.22C165.64 255.54 166.77 269 159.24 269.91C150.66 270.95 149.46 256.95 157.81 256.22ZM185.75 269.86C184.92 269.47 184.08 269.09 183.25 268.71C180.42 269.74 174.7 271.25 174.59 266.24C174.47 260.93 181.74 263.27 183.72 260.25C180.01 255.81 177.91 261.57 175.29 260.25C174.79 256.13 181.96 255.31 184.51 257.26C186.88 259.07 186.5 267.39 185.75 269.86ZM223.31 256.21C231.09 255.47 232.66 268.48 225.22 269.86C216.5 271.47 215.05 256.99 223.31 256.21ZM245.38 256.22C253.25 254.93 255.03 268.27 247.69 269.85C239.1 271.69 237.21 257.56 245.38 256.22ZM262.13 258.25C260.85 259.06 258.8 258.39 258.13 260.34C257.23 262.93 259.32 268.57 256.75 269.92C254.92 269.1 255.2 259.4 255.75 257.18C257.39 257.13 262.52 255.07 262.13 258.25ZM304.02 269.75C303.09 269.42 302.16 269.08 301.23 268.75C298.47 269.88 292.76 271.11 292.74 266.28C292.71 261.07 299.23 263.12 301.79 260.75C300.29 256.16 296.47 260.25 294.13 260.75C291.19 257.83 297.88 255.89 300.1 256.24C304.83 256.99 305 266.33 304.02 269.75ZM317.25 269.92C314.76 267.74 317.09 262.27 315.53 259.25C307.38 255.94 311.85 267.57 309.25 269.97C307.22 269.21 307.72 259.38 308.25 257.03C309.16 257.02 309.89 257.49 310.7 257.47C313.3 257.4 314.64 255.06 317.33 257.43C319.46 259.3 319.95 269.09 317.25 269.92ZM355.75 269.75C354.75 269.44 353.75 269.12 352.75 268.81C349.96 269.86 343.6 270.94 344.15 265.78C344.67 260.88 351.46 263.43 353.15 260.25C350.97 256.48 347.77 260.39 345.25 260.44C344.26 256.11 351.33 255.34 354.05 257.22C355.8 258.42 356.07 267.61 355.75 269.75ZM369.25 259.82C367.25 261.37 361.06 254.92 360.79 262.75C360.46 272.2 367.2 265.22 369.1 265.25C370.21 268.05 366.73 269.97 364.25 269.94C360.94 269.9 358.85 267.39 358.51 264.25C358.26 261.93 358.78 258.59 360.98 257.25C363.75 255.55 368.66 256.02 369.25 259.82ZM401.5 257.75C400.63 258.93 400.12 258.67 398.75 258.79C395.36 261.24 397.69 266.24 396.64 269.75C395.97 269.78 395.31 270.1 394.85 269.4C394.14 268.31 394.61 258.76 394.81 257.25C397.1 257 400.05 255.38 401.5 257.75ZM418.02 269.75C418.02 266.42 418.02 263.08 418.02 259.75C409.08 254.73 413.59 267.33 411.25 269.91C410.82 269.79 410.43 269.98 410.09 269.59C409.34 268.75 409.68 257.99 410.25 256.95C413.25 257.51 417.63 254.65 419.64 258.09C420.15 258.95 420.67 269.05 419.94 269.62C419.34 270.09 418.7 269.78 418.02 269.75ZM434.75 257.03C435.44 260.96 436.29 269.7 433.77 273.03C431.36 276.22 424.38 275.65 424.11 271.25C426.51 270.96 432.78 275.31 432.75 269.25C430.35 269.17 428.63 270.63 426.19 269.06C422.49 266.68 422.49 259.36 426.33 257.06C428.89 255.53 432.07 256.98 434.75 257.03ZM464.18 269.75C460.64 269.9 462.57 262.24 461.75 259.53C453.48 254.63 457.93 268.87 454.75 269.96C453.32 268.52 453.68 259.28 454.25 256.98C455.09 257.02 455.96 257.55 456.69 257.51C458.23 257.44 459.1 255.9 460.92 256.29C465.74 257.33 465.7 266.2 464.18 269.75ZM487.9 256.23C495.82 255.13 497.04 269.1 489.25 269.94C480.82 270.85 479.85 257.36 487.9 256.23ZM506.03 269.75C506.03 266.42 506.03 263.08 506.03 259.75C497.06 254.74 501.63 267.33 499.25 269.94C497 269.28 497.41 259.33 498.25 256.94C501.18 257.47 505.62 254.66 507.65 258.09C508.26 259.12 508.68 269.1 507.95 269.64C507.35 270.1 506.72 269.78 506.03 269.75ZM523.25 263.6C520.25 263.6 517.25 263.6 514.25 263.6C513.84 271.46 521.17 265.02 523.15 266.25C522.21 270.15 517.04 270.99 514 268.74C511.49 266.89 511.15 262.63 512.17 259.87C514.74 252.96 524.51 256.86 523.25 263.6ZM535.62 259.75C532.98 260.34 530.63 257.07 528.14 259.75C529.65 262.81 538.54 261.39 536.03 267.24C534.05 271.88 524.14 270.02 526.52 265.75C528.88 265.79 532.47 270.28 534.03 265.75C531.84 263.59 524.35 263.98 526.16 258.87C527.48 255.14 536.25 255.42 535.62 259.75ZM556.75 269.82C555.92 269.45 555.08 269.09 554.25 268.72C551.3 269.56 544.86 271.38 545.35 265.75C545.79 260.7 552.81 263.6 554.33 260.25C552.05 256.08 549.06 260.75 546.75 260.68C544.52 257.53 550.51 255.76 552.95 256.29C557.6 257.28 557.49 266.08 556.75 269.82ZM139.75 256.84C142.81 258.2 142.58 263.78 144.75 266.17C145.68 263.51 146.73 257.93 149.25 256.82C149.61 257.29 149.84 257.08 149.98 257.77C150.22 258.96 148.64 261.3 148.22 262.41C146.94 265.88 146.22 270.68 143.82 273.59C142.36 275.35 140.22 275.46 139.46 273.25C140.49 272.66 142.03 272.6 142.71 271.48C145.05 267.6 137.32 259.73 139.75 256.84ZM323.75 256.83C326.09 258.15 324.58 263.96 325.25 266.57C332.42 271.98 330.13 258.76 331.75 256.8C333.84 257.78 333.6 268.64 332.25 269.96C331.58 269.47 330.92 268.99 330.25 268.5C321.41 275.07 320.98 258.43 323.75 256.83ZM381.25 256.83C383.89 259.59 380.46 264.6 383.75 267.38C391.28 268.67 386 259.43 389.25 256.86C391.37 257.79 391.15 268.5 389.75 269.92C386.43 267.74 386.14 271.06 382.59 269.67C379.16 268.33 378.95 257.98 381.25 256.83ZM404.25 256.89C404.69 257.07 405.1 256.92 405.43 257.37C406.2 258.44 405.6 269.06 404.75 269.88C402.42 269.2 402.65 257.97 404.25 256.89ZM540.75 256.83C541.2 257.05 541.54 256.86 541.85 257.36C542.53 258.43 541.97 269.1 541.25 269.92C538.85 269.29 539.19 258.13 540.75 256.83ZM129.87 258.71C125.1 259.33 125.74 268.28 130.54 267.74C135.76 267.16 135.38 258 129.87 258.71ZM157.82 258.68C153 259.15 153.37 267.92 158.21 267.77C163.51 267.61 163.33 258.13 157.82 258.68ZM223.39 258.71C218.44 259.37 219.17 268.04 224.25 267.68C229.37 267.31 228.82 257.99 223.39 258.71ZM245.83 258.68C241.05 259.15 241.44 267.85 246.21 267.77C251.53 267.68 251.38 258.13 245.83 258.68ZM428.86 258.71C424.24 259.26 424.91 268.39 429.51 267.74C434.36 267.05 433.92 258.11 428.86 258.71ZM473.75 267.77C478.01 266.19 478.37 257.96 472.92 258.75C467.75 259.49 470 266.62 473.75 267.77ZM487.9 258.73C483.1 259.4 483.71 268.04 488.75 267.63C493.82 267.21 493.3 257.97 487.9 258.73ZM520.97 261.1C519.88 257.73 515.34 257.92 514.14 261.1C516.41 261.1 518.69 261.1 520.97 261.1ZM183.62 264.25C181.35 263.77 177.84 263.75 177 266.25C179.22 269.14 182.88 267.33 183.62 264.25ZM301.79 264.25C299.64 263.64 295.84 263.88 295.07 266.25C297.23 268.97 301.24 267.5 301.79 264.25ZM353.11 264.25C350.97 263.82 347.55 263.77 346.73 266.25C348.77 269.17 352.71 267.34 353.11 264.25ZM554.29 264.25C552.22 263.65 549.87 264.15 548.03 265.25C548.18 269.47 553.87 267.63 554.29 264.25Z" fill="#040404" fill-rule="evenodd" stroke="#040404" stroke-width="0.25" stroke-linejoin="round"/>
<path d="M128.8 79.23C146.69 78.25 167.02 82.18 181.35 93.42C199.49 107.66 200.39 130.53 181.5 144.73C154.11 165.32 97.68 165.4 77.22 134.53C75.47 131.88 74.46 128.75 73.55 125.74C66.43 102.14 95.42 84.76 114.78 81.15C119.37 80.29 124.13 79.48 128.8 79.23ZM148.39 108.25C155.5 109.34 178.54 100.39 166.48 91.28C154.69 82.36 128.9 82.36 115.23 85.92C109.92 87.3 102.82 88.84 99.47 93.72C93.52 102.4 113.9 108.87 119.75 108.34C122.01 101.53 126.16 78.63 138.34 86.43C139.56 87.2 140.75 88.46 141.65 89.6C142.96 91.26 143.96 93.48 144.82 95.39C146.66 99.5 146.99 104.04 148.39 108.25ZM289.87 89.21C302.81 86.91 315.77 92.31 322.76 103.48C332.96 119.81 323.65 144.25 304.63 148.8C290.08 152.28 273.89 145.32 268.13 131.15C261.24 114.23 271.11 92.54 289.87 89.21ZM410.39 89.21C414.87 88.29 420.63 88.33 424.96 89.76C434.55 92.93 442.52 99.52 445.85 109.36C451.3 125.49 441.55 144.84 424.67 148.83C420.28 149.87 416.1 149.8 411.68 149.2C378.77 144.68 377.99 95.93 410.39 89.21ZM262.44 90.84C262.44 94.16 262.44 97.49 262.44 100.81C256.62 101.13 250.81 101.44 244.99 101.75C243.68 104.8 244.49 109.42 244.49 112.75C244.49 120.92 244.51 129.08 244.47 137.25C244.46 140.68 245.36 145.34 243.78 148.42C239.94 148.42 236.09 148.42 232.25 148.42C230.69 144.84 231.68 139.64 231.66 135.75C231.62 127.34 233.07 108.95 231.25 101.77C225.39 101.43 219.53 101.09 213.67 100.75C213.67 97.45 213.67 94.14 213.67 90.84C229.93 90.84 246.19 90.84 262.44 90.84ZM342.75 90.86C347.42 98.64 352.08 106.41 356.75 114.18C361.26 106.41 365.78 98.63 370.29 90.86C375.2 90.86 380.12 90.86 385.03 90.86C384.2 93.95 381.82 96.62 380.12 99.36C376.12 105.8 372.37 112.54 368.01 118.74C366.48 120.92 364.02 123.9 363.27 126.48C361.4 132.9 364.31 141.63 362.75 148.4C358.58 148.4 354.42 148.4 350.25 148.4C349.54 142.97 351.36 130.03 349.76 125.95C348.17 121.91 344.58 118.15 342.33 114.42C339.34 109.48 336.46 104.33 333.2 99.57C331.4 96.94 328.92 93.86 328.08 90.86C332.97 90.86 337.86 90.86 342.75 90.86ZM500.05 90.84C500.05 94.32 500.05 97.8 500.05 101.29C494.06 101.29 488.08 101.29 482.1 101.29C482.1 116.99 482.1 132.7 482.1 148.41C477.98 148.41 473.87 148.41 469.75 148.41C468.11 144.63 469.18 138.86 469.17 134.75C469.15 124.31 470.5 111.94 468.94 101.75C463.03 101.42 457.11 101.08 451.2 100.75C451.2 97.45 451.2 94.14 451.2 90.84C467.48 90.84 483.76 90.84 500.05 90.84ZM519.25 90.87C524.73 90.87 530.21 90.87 535.69 90.87C543.38 110.05 551.06 129.24 558.75 148.42C554.08 148.42 549.42 148.42 544.75 148.42C542.92 144.24 541.08 140.06 539.25 135.88C536.28 134.55 518.72 134.53 515.75 135.86C513.92 140.05 512.08 144.24 510.25 148.43C505.58 148.43 500.92 148.43 496.25 148.43C495.99 144.22 501 135.33 502.8 131.07C506.67 121.89 510.47 112.61 514.11 103.33C515.74 99.18 518.07 95.18 519.25 90.87ZM142.25 108.79C142.44 105 139.04 94.42 134.24 94.25C129.17 94.08 125.49 105.36 126.25 109.16C130.18 110.19 138.72 110.87 142.25 108.79ZM87.75 100.24C80.53 103.56 80.34 121.35 83.01 127.76C88.89 141.83 103.22 150.08 117.6 153.22C121.24 154.01 125.13 155.32 128.88 154.75C128.35 153.18 126.98 152.12 125.98 150.75C124.32 148.45 123.07 145.29 122.18 142.62C119.64 134.96 119.78 127.15 118.88 119.25C115.75 117.91 112.29 117.64 109.05 116.72C100.18 114.18 90.87 109.44 87.75 100.24ZM180.75 100.15C179.72 101.26 179.56 103.14 178.77 104.55C177.58 106.66 175.45 108.33 173.63 109.88C166.73 115.74 157.38 116.11 149.34 119.25C148.09 127.44 148.71 135.61 145.77 143.57C144.94 145.83 143.85 148.29 142.58 150.34C141.6 151.93 139.97 153.06 139.25 154.75C143.07 155.39 147.12 153.95 150.84 153.18C165.04 150.26 179.41 141.68 185.21 127.9C188.43 120.26 187.82 105.76 180.75 100.15ZM293.33 100.16C272.61 105.26 276.5 140.52 297.25 138.54C322.28 136.15 315.38 94.72 293.33 100.16ZM413.4 100.21C392.89 105.23 397.06 140.77 418.25 138.55C441.93 136.07 436.42 94.59 413.4 100.21ZM527.25 105.47C525.4 109.4 519.52 121.89 520.25 125.62C525.12 125.62 530 125.62 534.87 125.62C534.84 122.07 529.68 107.87 527.25 105.47ZM142.77 119.9C136.93 119.9 131.09 119.9 125.25 119.9C124.43 124.73 127.34 142.8 134.25 142.65C139.98 142.53 142.52 129.48 142.91 125.25C143.07 123.53 143.63 121.32 142.77 119.9Z" fill="#f70506" fill-rule="evenodd" stroke="#f70506" stroke-width="0.25" stroke-linejoin="round"/>
</svg>