<svg xmlns="http://www.w3.org/2000/svg" viewBox="0 0 360 360" width="360" height="360">

<path d="M87.17 275.75C87.6 272.19 89.6 268.5 90.78 265.08C93.58 256.91 95.84 248.67 98.93 240.77C100.38 237.05 104.09 229.66 103.93 225.75C103.83 223.32 100.93 219.78 99.79 217.45C96.93 211.6 94.76 205.53 92.84 199.31C88.03 183.76 90.29 159.4 96.07 144.3C121.75 77.21 210.08 61.99 259.67 112.58C266.75 119.79 272.77 128.62 276.89 137.83C301.28 192.46 271.32 251.54 215.19 267.86C198.1 272.82 177.93 272.76 160.78 267.91C156.47 266.69 142.6 259.84 139.75 260.02C135.95 260.27 131.24 262.66 127.66 263.85C118.65 266.86 109.43 269.3 100.38 272.19C96.82 273.33 90.85 276.34 87.17 275.75ZM112.61 251.75C115.17 252.03 118.04 250.09 120.45 249.24C125.43 247.48 130.66 246.79 135.64 244.89C137.62 244.13 140.92 242.36 143.14 242.73C147.08 243.38 155.21 249.63 160.27 250.98C178.34 255.8 197.71 257.57 215.68 250.94C245.96 239.77 268.67 211.25 269.07 178.25C269.14 172.64 269.25 166.11 267.66 160.69C263.5 146.59 257.6 134.48 247.69 123.55C207.11 78.81 130.26 96 110.6 152.33C105.3 167.51 105.15 187.13 111.06 202.18C112.8 206.62 114.53 211.51 117.29 215.45C118.63 217.36 121.76 220.85 121.86 223.27C121.93 224.93 120.75 226.95 120.27 228.53C118.52 234.25 112.79 246.85 112.61 251.75ZM238.25 200.47C239.08 204.59 238.41 212.2 235.32 215.55C229.87 221.45 216.76 226.06 208.82 223.83C179.95 215.71 163.65 201.2 147.14 176.64C140.28 166.45 135.49 151.9 142.7 140.43C146.64 134.15 150.17 130.57 157.75 130.61C159.48 130.62 161.76 130.57 163.3 131.46C164.97 132.41 166.18 135.67 166.8 137.39C168.48 142.07 173.4 151.1 173.28 155.74C173.15 161.12 163.8 165.16 164.58 169.2C165.3 172.9 173.7 183.79 176.69 186.56C182.23 191.7 188.39 195.86 195.19 199.07C197.06 199.95 199.52 201.98 201.71 200.99C205.86 199.11 210.66 188.84 214.75 188.92C216.71 188.96 219.59 191 221.36 191.88C227.03 194.7 232.64 197.56 238.25 200.47Z" fill="#fdfdfd" fill-rule="evenodd" stroke="#fdfdfd" stroke-width="0.25" stroke-linejoin="round"/>
</svg>