<?xml version="1.0" encoding="UTF-8"?>
<svg xmlns="http://www.w3.org/2000/svg" viewBox="0 0 554 554" width="554" height="554">
<path d="M0.13 0.13C184.71 0.13 369.29 0.13 553.88 0.13C553.88 184.71 553.88 369.29 553.88 553.88C369.29 553.88 184.71 553.88 0.13 553.88C0.13 369.29 0.13 184.71 0.13 0.13ZM186.57 177.42C186.4 178.36 186.23 179.31 186.05 180.25C182.05 183.85 164.52 187.3 158.75 188.14C155.22 188.65 147.83 188.4 146.25 191.1C148.46 192.97 151.79 194.02 154.34 195.42C163.43 200.4 172.75 206.01 182.99 208.26C185.28 208.77 194.35 211.35 195.3 209.96C195.59 210.97 195.88 211.99 196.17 213C189.81 215.33 182.53 218.18 176.65 221.89C167.2 227.84 158.28 234.59 148.31 239.57C144.23 241.61 139.9 243.8 135.56 245.27C132.24 246.39 126.76 246.52 124.14 248.75C127.46 250.74 131.9 251.55 135.48 253.28C141.39 256.14 146.83 260.32 151.98 264.29C155.75 267.19 158.99 271.07 162.4 274.34C177.47 288.76 195.26 306.86 216.28 311.98C222.7 313.54 229.68 313.47 236.25 313.11C243.24 312.74 250 311.1 256.58 308.82C269.92 304.2 281.14 296.9 293.33 290.08C295.08 289.09 304.33 283.97 304 282.75C306.03 282.94 317.5 276.92 318.57 275.25C316.28 273.61 313.07 273.55 310.4 272.79C305.75 271.47 300.73 269.95 296.39 267.83C291.07 265.22 285.3 262.84 280.07 260.02C260.97 249.72 229.36 230.17 210.5 251.75C200.66 262.99 204.04 279.86 215.62 288.14C218.34 290.09 221.8 292.04 225.26 292.35C234.97 293.23 246.21 288.62 245.23 277.12C245.11 275.61 245.32 273.46 244.64 272.09C242.99 268.76 239.85 265.77 236.43 264.32C234.68 263.57 232.61 264.27 231.75 262.86C232.19 261.66 234.96 261.95 236.25 262.01C241.02 262.25 245.01 265.26 247.91 268.84C250.69 272.27 251.53 277.37 250.83 281.71C250.51 283.72 248.96 285.45 249.25 287.5C246.01 289.66 244.36 294.36 240.32 295.99C222.3 303.25 200.91 290.57 199.03 271.25C198.47 265.51 199.58 259.5 202.07 254.32C203.18 252.02 205.5 249.92 206.08 247.52C208.52 246.56 210.61 243.65 212.88 242.14C218.64 238.33 225.89 236.67 232.75 236.49C238.49 236.35 244.7 237.51 250.17 239.14C253.27 240.06 256.98 242.61 260.2 242.48C260.21 243.98 265.57 245.56 266.95 246.3C274.58 250.4 282.15 254.6 290.01 258.25C299.93 262.85 310.08 268.34 321.25 269.21C344.53 271.04 365.78 256.11 384.44 244.21C390.02 240.65 397.52 238.53 402.64 234.75C401.34 232.39 391.95 229.69 389 228.24C377.89 222.77 367.66 216.3 356.77 210.48C353.32 208.63 348.04 204.09 344.25 205C343.94 202.84 341.7 202.76 339.9 201.83C334.84 199.23 328.47 198.13 322.75 197.86C304.98 197.02 289.49 206.15 290.94 225.75C292.02 240.34 310.22 253.43 323.99 245.73C331.75 241.4 334.46 229.27 327.5 222.73C324.51 219.92 318.65 219.38 317.09 217.75C320.5 216.43 324.77 217.13 327.99 218.77C329.33 219.45 330.94 221.71 332.25 221.5C334.48 225.14 336.57 228.31 337.01 232.75C337.38 236.5 336.22 240.46 334.35 243.62C326.51 256.89 307.3 255.37 296.47 246.77C288.51 240.45 284.16 229.99 285.25 219.97C285.67 216.1 286.96 212.91 288.19 209.25C288.6 208.02 289.74 207.77 289.08 206.57C291.12 205.87 292.77 202.71 294.35 201.1C297.24 198.17 300.96 195.99 304.72 194.44C309.49 192.46 314.62 191.82 319.75 191.85C322.24 191.86 324.87 192.45 327.3 191.86C327.56 191.93 327.82 192.01 328.08 192.08C329.66 193.28 340.46 195.8 343.64 197.14C350.28 199.94 356.7 203.73 362.94 207.31C365.84 208.98 369.48 212.02 372.76 212.54C376.72 217 385.15 215.42 390.23 214.36C396.91 212.96 403.19 208.65 408.66 204.89C416.02 199.84 423.94 195.58 431.36 190.75C429.95 188.94 420.56 188.42 417.75 188.06C409.41 187 400.67 184.85 392.78 181.96C389.52 180.77 386.02 178.8 382.54 178.42C383.55 170.92 386.32 163.49 388.44 156.23C389.93 151.12 390.91 145.8 392.55 140.78C394 136.32 398.12 125.44 397.25 121.25C393.58 120.6 388.87 122.18 385.22 122.85C376.54 124.45 367.78 125.93 359.19 127.83C356.27 128.47 347.78 129.13 345.81 131.05C344.29 132.53 344.28 135.6 343.74 137.52C342.16 143.16 340.78 148.99 338.74 154.5C337.85 154 337.05 154.08 336.09 153.66C333.13 152.4 330.43 150.18 327.56 148.72C322.1 145.95 316.9 143.29 311.22 141.02C306.16 138.99 300.41 138.64 295.52 136.42C291.93 130.51 288.34 124.6 284.75 118.7C280.94 120.28 276.87 133.32 273.22 136.59C263.9 139.14 254.94 142.51 246.37 147.12C241.07 149.96 236.4 154.26 230.79 155.95C228.56 151.64 228.11 146.2 226.7 141.57C223.13 129.86 219.79 117.99 216.66 106.14C215.43 101.51 214.1 92.44 211.25 88.87C195.08 88.88 178.92 88.9 162.75 88.91C162.05 93.12 167.31 108.04 168.81 112.87C172.77 125.59 175.39 138.74 179.31 151.43C181.9 159.81 185.16 168.78 186.57 177.42ZM406.25 88.51C390.08 88.51 373.92 88.51 357.75 88.51C355.42 93.07 350.72 108.9 351.04 113.75C354.25 114.57 362.18 111.44 365.77 110.58C373.65 108.7 381.72 107.08 389.75 106.02C393.82 105.48 399.09 105.67 402.75 103.8C404.33 99.4 407.12 93.15 406.25 88.51ZM429.25 363.81C425.01 359.93 412.8 358.86 407.25 358.83C402.63 358.8 397.81 358.41 393.24 359.36C378.64 362.4 365.37 372.28 364.7 388.28C363.93 406.73 380.26 414.48 394.69 420.57C402.23 423.75 413.56 427.84 409.72 438.47C405.8 449.32 385.32 445.61 377.26 442.96C374.53 442.06 371.04 439.83 368.2 440.25C366.85 446.25 365.5 452.25 364.16 458.25C367.74 461.91 378.65 463.65 383.67 464.2C402.99 466.31 429.44 461.52 433.59 438.75C437.03 419.83 425.62 409.61 409.8 402.92C402.58 399.86 386.59 396.63 388.63 385.8C390.72 374.71 408.12 377.01 415.71 379.06C418.54 379.83 421.91 381.79 424.75 381.44C426.51 378.43 429.81 367.06 429.25 363.81ZM345.25 364.25C340.78 359.98 323.42 359.11 317.25 359.11C291.88 359.11 267.58 371.35 260.3 397.1C258.38 403.9 258.2 411.24 258.57 418.25C258.83 423.09 259.89 428.14 261.63 432.65C270.41 455.34 288.38 463.32 311.75 464.07C324.21 464.47 337.5 462.93 349.1 458.25C349.1 440.27 349.1 422.29 349.1 404.31C336.43 404.31 323.75 404.31 311.08 404.31C311.08 410.13 311.08 415.94 311.08 421.75C316.14 422.1 321.19 422.44 326.25 422.79C327.51 425.24 326.86 428.99 326.84 431.75C326.82 434.69 328.13 441.54 326.13 443.88C324.88 445.34 322.11 445.05 320.41 445.24C314.86 445.86 308.8 445.8 303.48 443.75C290.03 438.57 283.08 426.95 282.68 412.75C282.07 391.29 296.25 378.3 317.25 378.07C321.86 378.02 326.75 378.48 331.24 379.53C334.32 380.24 337.63 381.87 340.75 381.86C342.25 375.99 343.75 370.12 345.25 364.25ZM143.75 360.14C135.92 360.14 128.08 360.14 120.25 360.14C119.21 365.85 123.23 376.32 124.56 382.25C128.69 400.66 132.92 419.19 137.79 437.4C139.32 443.13 141.4 458.76 144.25 462.86C149.8 463.54 155.65 463.07 161.25 463.07C163.81 463.07 166.98 463.61 169.25 462.39C171.53 457.97 171.81 451.63 172.93 446.75C175.63 434.91 178.26 423.01 180.79 411.12C181.59 407.35 183.15 393.59 185.25 391.54C187.22 394.53 187.8 404.72 188.48 408.75C190.6 421.33 193.2 433.88 195.82 446.35C196.88 451.38 196.84 458.79 199.75 463.05C207.75 463.05 215.75 463.05 223.75 463.05C227.6 456.71 228.03 447.44 230.1 440.33C234.93 423.72 239.02 406.68 243.15 389.83C244.74 383.35 246.44 376.83 248.2 370.39C249.02 367.4 250.59 363.76 250.25 360.65C245.81 358.65 238.13 360.05 233.25 360.08C231.34 360.09 229.01 359.77 227.39 360.75C225.64 366.4 225 372.33 223.78 378.1C219.68 397.45 216.61 416.95 212.75 436.23C207.92 410.86 203.08 385.49 198.25 360.11C190.42 360.11 182.58 360.11 174.75 360.11C171.74 364.71 170.94 374.64 169.86 380.22C167.49 392.46 164.67 404.67 162.21 416.85C161.33 421.2 160.7 431.34 158.25 434.56C153.42 409.76 148.58 384.95 143.75 360.14Z" fill="#ffffff" fill-rule="evenodd" stroke="#ffffff" stroke-width="0.25" stroke-linejoin="round"/>
<path d="M230.79 155.95C232.02 164.55 235.68 173.33 237.94 181.77C238.73 184.72 239.16 189.7 241.25 191.91C251.91 173.47 262.56 155.03 273.22 136.59C276.87 133.32 280.94 120.28 284.75 118.7C288.34 124.6 291.93 130.51 295.52 136.42C285.43 142.86 275.34 149.31 265.25 155.75C273.25 153.87 281.07 149.36 289 146.73C292.2 145.68 296.36 143.08 299.75 143.83C308.93 159.84 318.12 175.85 327.3 191.86C324.87 192.45 322.24 191.86 319.75 191.85C314.62 191.82 309.49 192.46 304.72 194.44C300.96 195.99 297.24 198.17 294.35 201.1C292.77 202.71 291.12 205.87 289.08 206.57C287.64 204.01 286.19 201.45 284.75 198.9C281.87 200.94 278.43 208.99 276.67 212.41C271.46 222.52 264.86 232.17 260.2 242.48C256.98 242.61 253.27 240.06 250.17 239.14C244.7 237.51 238.49 236.35 232.75 236.49C225.89 236.67 218.64 238.33 212.88 242.14C210.61 243.65 208.52 246.56 206.08 247.52C202.78 236.01 199.47 224.51 196.17 213C195.88 211.99 195.59 210.97 195.3 209.96C192.39 199.11 189.48 188.26 186.57 177.42C185.16 168.78 181.9 159.81 179.31 151.43C175.39 138.74 172.77 125.59 168.81 112.87C167.31 108.04 162.05 93.12 162.75 88.91C178.92 88.9 195.08 88.88 211.25 88.87C214.1 92.44 215.43 101.51 216.66 106.14C219.79 117.99 223.13 129.86 226.7 141.57C228.11 146.2 228.56 151.64 230.79 155.95ZM406.25 88.51C407.12 93.15 404.33 99.4 402.75 103.8C399.09 105.67 393.82 105.48 389.75 106.02C381.72 107.08 373.65 108.7 365.77 110.58C362.18 111.44 354.25 114.57 351.04 113.75C350.72 108.9 355.42 93.07 357.75 88.51C373.92 88.51 390.08 88.51 406.25 88.51ZM382.54 178.42C379.28 189.79 376.02 201.16 372.76 212.54C369.48 212.02 365.84 208.98 362.94 207.31C356.7 203.73 350.28 199.94 343.64 197.14C340.46 195.8 329.66 193.28 328.08 192.08C331.63 179.56 335.19 167.03 338.74 154.5C340.78 148.99 342.16 143.16 343.74 137.52C344.28 135.6 344.29 132.53 345.81 131.05C347.78 129.13 356.27 128.47 359.19 127.83C367.78 125.93 376.54 124.45 385.22 122.85C388.87 122.18 393.58 120.6 397.25 121.25C398.12 125.44 394 136.32 392.55 140.78C390.91 145.8 389.93 151.12 388.44 156.23C386.32 163.49 383.55 170.92 382.54 178.42ZM429.25 363.81C429.81 367.06 426.51 378.43 424.75 381.44C421.91 381.79 418.54 379.83 415.71 379.06C408.12 377.01 390.72 374.71 388.63 385.8C386.59 396.63 402.58 399.86 409.8 402.92C425.62 409.61 437.03 419.83 433.59 438.75C429.44 461.52 402.99 466.31 383.67 464.2C378.65 463.65 367.74 461.91 364.16 458.25C365.5 452.25 366.85 446.25 368.2 440.25C371.04 439.83 374.53 442.06 377.26 442.96C385.32 445.61 405.8 449.32 409.72 438.47C413.56 427.84 402.23 423.75 394.69 420.57C380.26 414.48 363.93 406.73 364.7 388.28C365.37 372.28 378.64 362.4 393.24 359.36C397.81 358.41 402.63 358.8 407.25 358.83C412.8 358.86 425.01 359.93 429.25 363.81ZM345.25 364.25C343.75 370.12 342.25 375.99 340.75 381.86C337.63 381.87 334.32 380.24 331.24 379.53C326.75 378.48 321.86 378.02 317.25 378.07C296.25 378.3 282.07 391.29 282.68 412.75C283.08 426.95 290.03 438.57 303.48 443.75C308.8 445.8 314.86 445.86 320.41 445.24C322.11 445.05 324.88 445.34 326.13 443.88C328.13 441.54 326.82 434.69 326.84 431.75C326.86 428.99 327.51 425.24 326.25 422.79C321.19 422.44 316.14 422.1 311.08 421.75C311.08 415.94 311.08 410.13 311.08 404.31C323.75 404.31 336.43 404.31 349.1 404.31C349.1 422.29 349.1 440.27 349.1 458.25C337.5 462.93 324.21 464.47 311.75 464.07C288.38 463.32 270.41 455.34 261.63 432.65C259.89 428.14 258.83 423.09 258.57 418.25C258.2 411.24 258.38 403.9 260.3 397.1C267.58 371.35 291.88 359.11 317.25 359.11C323.42 359.11 340.78 359.98 345.25 364.25ZM143.75 360.14C148.58 384.95 153.42 409.76 158.25 434.56C160.7 431.34 161.33 421.2 162.21 416.85C164.67 404.67 167.49 392.46 169.86 380.22C170.94 374.64 171.74 364.71 174.75 360.11C182.58 360.11 190.42 360.11 198.25 360.11C203.08 385.49 207.92 410.86 212.75 436.23C216.61 416.95 219.68 397.45 223.78 378.1C225 372.33 225.64 366.4 227.39 360.75C229.01 359.77 231.34 360.09 233.25 360.08C238.13 360.05 245.81 358.65 250.25 360.65C250.59 363.76 249.02 367.4 248.2 370.39C246.44 376.83 244.74 383.35 243.15 389.83C239.02 406.68 234.93 423.72 230.1 440.33C228.03 447.44 227.6 456.71 223.75 463.05C215.75 463.05 207.75 463.05 199.75 463.05C196.84 458.79 196.88 451.38 195.82 446.35C193.2 433.88 190.6 421.33 188.48 408.75C187.8 404.72 187.22 394.53 185.25 391.54C183.15 393.59 181.59 407.35 180.79 411.12C178.26 423.01 175.63 434.91 172.93 446.75C171.81 451.63 171.53 457.97 169.25 462.39C166.98 463.61 163.81 463.07 161.25 463.07C155.65 463.07 149.8 463.54 144.25 462.86C141.4 458.76 139.32 443.13 137.79 437.4C132.92 419.19 128.69 400.66 124.56 382.25C123.23 376.32 119.21 365.85 120.25 360.14C128.08 360.14 135.92 360.14 143.75 360.14Z" fill="#04669d" fill-rule="evenodd" stroke="#04669d" stroke-width="0.25" stroke-linejoin="round"/>
<path d="M273.22 136.59C262.56 155.03 251.91 173.47 241.25 191.91C239.16 189.7 238.73 184.72 237.94 181.77C235.68 173.33 232.02 164.55 230.79 155.95C236.4 154.26 241.07 149.96 246.37 147.12C254.94 142.51 263.9 139.14 273.22 136.59ZM295.52 136.42C300.41 138.64 306.16 138.99 311.22 141.02C316.9 143.29 322.1 145.95 327.56 148.72C330.43 150.18 333.13 152.4 336.09 153.66C337.05 154.08 337.85 154 338.74 154.5C335.19 167.03 331.63 179.56 328.08 192.08C327.82 192.01 327.56 191.93 327.3 191.86C318.12 175.85 308.93 159.84 299.75 143.83C296.36 143.08 292.2 145.68 289 146.73C281.07 149.36 273.25 153.87 265.25 155.75C275.34 149.31 285.43 142.86 295.52 136.42ZM186.57 177.42C189.48 188.26 192.39 199.11 195.3 209.96C194.35 211.35 185.28 208.77 182.99 208.26C172.75 206.01 163.43 200.4 154.34 195.42C151.79 194.02 148.46 192.97 146.25 191.1C147.83 188.4 155.22 188.65 158.75 188.14C164.52 187.3 182.05 183.85 186.05 180.25C186.23 179.31 186.4 178.36 186.57 177.42ZM382.54 178.42C386.02 178.8 389.52 180.77 392.78 181.96C400.67 184.85 409.41 187 417.75 188.06C420.56 188.42 429.95 188.94 431.36 190.75C423.94 195.58 416.02 199.84 408.66 204.89C403.19 208.65 396.91 212.96 390.23 214.36C385.15 215.42 376.72 217 372.76 212.54C376.02 201.16 379.28 189.79 382.54 178.42ZM260.2 242.48C264.86 232.17 271.46 222.52 276.67 212.41C278.43 208.99 281.87 200.94 284.75 198.9C286.19 201.45 287.64 204.01 289.08 206.57C289.74 207.77 288.6 208.02 288.19 209.25C286.96 212.91 285.67 216.1 285.25 219.97C284.16 229.99 288.51 240.45 296.47 246.77C307.3 255.37 326.51 256.89 334.35 243.62C336.22 240.46 337.38 236.5 337.01 232.75C336.57 228.31 334.48 225.14 332.25 221.5C330.94 221.71 329.33 219.45 327.99 218.77C324.77 217.13 320.5 216.43 317.09 217.75C318.65 219.38 324.51 219.92 327.5 222.73C334.46 229.27 331.75 241.4 323.99 245.73C310.22 253.43 292.02 240.34 290.94 225.75C289.49 206.15 304.98 197.02 322.75 197.86C328.47 198.13 334.84 199.23 339.9 201.83C341.7 202.76 343.94 202.84 344.25 205C348.04 204.09 353.32 208.63 356.77 210.48C367.66 216.3 377.89 222.77 389 228.24C391.95 229.69 401.34 232.39 402.64 234.75C397.52 238.53 390.02 240.65 384.44 244.21C365.78 256.11 344.53 271.04 321.25 269.21C310.08 268.34 299.93 262.85 290.01 258.25C282.15 254.6 274.58 250.4 266.95 246.3C265.57 245.56 260.21 243.98 260.2 242.48ZM196.17 213C199.47 224.51 202.78 236.01 206.08 247.52C205.5 249.92 203.18 252.02 202.07 254.32C199.58 259.5 198.47 265.51 199.03 271.25C200.91 290.57 222.3 303.25 240.32 295.99C244.36 294.36 246.01 289.66 249.25 287.5C248.96 285.45 250.51 283.72 250.83 281.71C251.53 277.37 250.69 272.27 247.91 268.84C245.01 265.26 241.02 262.25 236.25 262.01C234.96 261.95 232.19 261.66 231.75 262.86C232.61 264.27 234.68 263.57 236.43 264.32C239.85 265.77 242.99 268.76 244.64 272.09C245.32 273.46 245.11 275.61 245.23 277.12C246.21 288.62 234.97 293.23 225.26 292.35C221.8 292.04 218.34 290.09 215.62 288.14C204.04 279.86 200.66 262.99 210.5 251.75C229.36 230.17 260.97 249.72 280.07 260.02C285.3 262.84 291.07 265.22 296.39 267.83C300.73 269.95 305.75 271.47 310.4 272.79C313.07 273.55 316.28 273.61 318.57 275.25C317.5 276.92 306.03 282.94 304 282.75C304.33 283.97 295.08 289.09 293.33 290.08C281.14 296.9 269.92 304.2 256.58 308.82C250 311.1 243.24 312.74 236.25 313.11C229.68 313.47 222.7 313.54 216.28 311.98C195.26 306.86 177.47 288.76 162.4 274.34C158.99 271.07 155.75 267.19 151.98 264.29C146.83 260.32 141.39 256.14 135.48 253.28C131.9 251.55 127.46 250.74 124.14 248.75C126.76 246.52 132.24 246.39 135.56 245.27C139.9 243.8 144.23 241.61 148.31 239.57C158.28 234.59 167.2 227.84 176.65 221.89C182.53 218.18 189.81 215.33 196.17 213Z" fill="#8fd6f6" fill-rule="evenodd" stroke="#8fd6f6" stroke-width="0.25" stroke-linejoin="round"/>
</svg>